<?xml version="1.0" encoding="UTF-8"?>
<svg id="Layer_2" data-name="Layer 2" xmlns="http://www.w3.org/2000/svg" viewBox="0 0 1077.25 2349.38">
  <defs>
    <style>
      .cls-1 {
        stroke: #686346;
        stroke-miterlimit: 10;
        stroke-width: .25px;
      }

      .cls-1, .cls-2 {
        fill: #686346;
      }

      .cls-2 {
        stroke-width: 0px;
      }
    </style>
  </defs>
  <g id="Layer_1-2" data-name="Layer 1">
    <g>
      <path class="cls-2" d="m1016.58,16.92l-.54-.59c-.25-.28-.72-.61-1.52-.62-.17,0-.26-.02-.35-.03-.09,0-.17-.02-.29-.03-.84-.28-1.47,0-1.77.19l-.77.49c-.56.35-1.12.7-1.66,1.06-.66.43-1.3.89-1.96,1.36-1.07.77-2.18,1.56-3.36,2.21-2.35,1.29-5.11,2.58-8.43,3.94l-.93.38c-2.79,1.15-5.67,2.33-8.71,3.16-6.14,1.67-11.62,2.93-16.76,3.84-2.46.44-5.15.79-8,1.04-.7.06-1.41.12-2.13.18-1.94.15-3.95.31-5.89.63-2.91.49-5.99.62-8.96.75-.75.03-1.5.06-2.24.1-2.39.12-4.84.35-7.21.58-1.91.18-3.86.3-5.81.36l-1.3.03c-1.61.04-3.28.08-4.93.24-2.16.21-4.32.12-6.34-.01-.5-.03-1.01-.08-1.53-.13-1.02-.1-2.07-.2-3.19-.19-3.89.05-7.89-.19-11.79-.43-.59-.04-1.13,0-1.65.02-.43.02-.83.04-1.19.02-1.37-.08-2.78-.21-4.15-.34-.72-.07-1.44-.14-2.15-.2-.48-.04-1-.15-1.56-.27-.68-.14-1.38-.29-2.14-.35-.61-.05-1.17-.03-1.72,0-.44.02-.85.03-1.22,0-.7-.04-1.41-.06-2.12-.08-.98-.02-1.9-.04-2.8-.14-.25-.02-.57-.12-.92-.23-.32-.1-.64-.19-.96-.26-1.08-.24-2.17-.31-3.1-.35-2.2-.09-4.36-.46-6.44-.82l-.54-.09c-1.55-.26-3.07-.49-4.53-.66-.22-.03-.52-.12-.83-.21-.34-.1-.72-.22-1.14-.29-.24-.04-.49-.11-.73-.18-.44-.12-.94-.25-1.49-.32-1.77-.22-3.33-.3-4.84-.38-.5-.03-.99-.05-1.49-.08-1.5-.09-3.01-.16-4.51-.23-.75-.03-1.49-.07-2.22-.1-.92-.04-1.82-.04-2.7-.04-.92,0-1.8,0-2.64-.04-.08-.01-.3-.1-.44-.15-.38-.15-.85-.33-1.4-.39-.67-.08-1.29.03-1.78.11-.28.05-.54.09-.71.08-.53-.02-1.2,0-1.91.24-1.82-.76-3.77-.92-6.16-.54-.73.12-1.47.15-2.2.1-.08,0-.27-.05-.42-.09-.35-.08-.8-.19-1.3-.2-.72,0-1.45,0-2.17,0-.86,0-1.68.02-2.66-.07-.49-.04-1.01-.09-1.54-.09-.64,0-1.27.02-1.91.04-.61.02-1.22.04-1.82.04-.77-.01-1.54,0-2.3,0-.61,0-1.23,0-1.85,0h-1.13c-1.96-.04-3.97-.06-6.04.19-.2-.17-.49-.39-.95-.61-.72-.35-1.39-.15-1.71-.04-.05.01-.1.02-.14.04-.42.08-.8.29-1.13.63-.27.08-.66.11-1.53.07-2.02-.09-4.13,0-6.09.27-.48.07-.9.19-1.26.3-.26.08-.5.15-.68.17-.48.05-1.03.05-1.61.03-.67-.01-1.36-.02-2.08.05-2.13.23-4.26.62-6.32,1.01l-1.3.24-4.54.42c-2.24.21-4.56.43-6.82.82-3.22.56-6.15,1.43-9.57,2.56-2.05.5-3.91,1.12-5.7,1.88l-.42.14c-1.15.36-2.37.63-3.66.91-1.3.29-2.65.59-3.93.98-2.32.72-4.54,1.89-6.5,2.92l-.57.3c-6.21,3.25-13.59,5.87-21.24,8.49-3.7,1.27-8.26,2.39-13.94,3.45-.73.13-1.15.42-1.42.63-6.65,1.23-12.66,2.29-18.82,2.7-.98.07-1.97.12-2.96.18-1.53.08-3.12.17-4.65.3-3.29.28-6.2.48-8.9.61l-.17.02c-4.37.59-8.95,1.05-13.6,1.37-.83.06-1.65.1-2.47.14-2.15.11-4.38.22-6.68.63-.79.14-1.58.3-2.36.45-2.6.51-5.05,1-7.55,1-1.11,0-2.22-.09-3.29-.21-1.45-.47-3.11-.72-4.72-.97l-.55-.09c-1.42-.22-3.04-.5-4.21-.94-.89-.33-1.79-.18-2.65-.02-.35.06-.71.13-1.03.15-.07-.01-.15-.03-.23-.05-.06-.01-.13-.03-.2-.04-2.61-1.95-6.85-2.77-11.34-3.51-.4-.07-.61-.08-.82-.1-.12,0-.24-.02-.48-.06-.15-.02-.33-.14-.63-.33-.25-.16-.54-.34-.89-.51-.61-.29-1.24-.31-1.75-.32-.14,0-.27,0-.31,0-.33-.12-.68-.3-1.05-.49-.5-.27-1.08-.57-1.76-.78-3.24-1.02-5.57-1.9-7.15-3.16-1.28-1.01-2.98-1.78-4.63-2.52-.82-.37-1.66-.75-2.41-1.14-1.16-.61-2.23-1.38-3.26-2.13-.47-.34-.94-.68-1.4-.99-3.72-2.53-6.73-5.24-8.67-7.06,0,0-.01-.01-.02-.02.13-1.02-.17-1.83-.88-2.42.08-.78-.24-1.5-.5-1.96,8.39-1.35,16.46-2.83,23.19-5.69,5.48-2.33,13.77-5.84,12.01-11.82-.2-.69-.07-1.54.06-2.43.06-.36.11-.73.15-1.09.07-.68.02-1.34-.02-1.93-.02-.26-.04-.51-.05-.77-.04-1.21-1.14-1.95-1.79-2.4-.11-.08-.24-.15-.39-.22-.39-.3-.83-.43-1.12-.51-.06-.02-.11-.03-.09-.02-.14-.08-.3-.15-.45-.23-.05-.02-.09-.05-.14-.07-.86-2.11-3.25-3.57-7.3-4.46-4.55-1-10.02-1.09-14.3-.23-7.67,1.54-12.8,4.02-15.63,7.55-.08.07-.37.24-.56.35-.37.21-.78.44-1.17.76-1.09.88-1.68,1.92-2.19,2.82-.31.55-.78,1.14-1.27,1.76-.26.33-.51.65-.75.97-.32.43-.7.87-1.11,1.33-.93,1.06-1.89,2.15-2.35,3.45-.54,1.54-.29,3.03-.07,4.34.07.44.15.88.18,1.3,0,.06-.03.18-.09.37-.01.04-.02.08-.04.12-.05.02-.11.04-.16.06-1.12.44-1.37.54-3,.85-.46-.03-.91-.04-1.35-.05-.57-.02-1.12-.03-1.62-.08-2.51-.25-4.6-.39-6.7-.25-7.36.49-14.18-.41-21.4-1.36l-5.81-.75c-6.06-.78-12.33-1.58-18.37-2.64-3.39-.6-6.7-1.31-10.44-2.23-.88-.22-1.79-.38-2.67-.53-.7-.12-1.36-.24-2-.38-.96-.65-1.83-.73-2.59-.23-.03-.02-.05-.03-.08-.05-.28-.17-.56-.35-.87-.52-1.91-1.07-4.26-2.25-7.96-2.64-1.3-.49-2.62-1.06-3.93-1.68-.36-.17-.73-.35-1.09-.53-1.46-.72-2.97-1.46-4.64-1.99-2.77-.87-5.57-.99-7.95-1-.55,0-1.09-.03-1.61-.05-1.54-.07-3.14-.14-4.87.28-.22-.05-.43-.11-.64-.17-1.29-.35-2.45-.37-3.42-.34-1.01.03-2.02,0-3.1-.01-1.34-.03-2.72-.06-4.08.02-3.52.21-7.6.44-11.51.35-4.85-.11-9.33.41-13.65.91l-1.31.15c-.9.1-1.8.24-2.71.38-1.13.17-2.3.36-3.44.45-5.74.49-11.27,1.45-16.61,2.38l-.24.04c-.54.09-1.12.14-1.73.2-.65.06-1.33.11-2.01.23-3.89.66-7.55,1.37-10.89,2.12-.85.19-1.28.37-1.62.52-.26.11-.44.19-.94.3l-.58.13c-2.65.58-5.39,1.19-7.84,1.96-.92.29-1.85.57-2.81.86-3.14.95-6.38,1.94-10.01,3.31-.7.26-1.17.68-1.52.98-.14.12-.34.29-.41.32-.75.27-1.58.49-2.45.74-1.85.51-3.76,1.04-5.25,2.01-1.69,1.1-3.54,2.23-5.67,2.97-.5.17-1.06.32-1.66.47-.82.21-1.67.43-2.46.75l-1.5.61c-2.13.87-4.26,1.74-6.32,2.61-1.3.55-2.56,1.16-3.78,1.76-1.31.64-2.66,1.3-4.04,1.86-.46.19-1.06.34-1.69.51-.53.14-1.05.27-1.54.43l-.61.2c-.75.24-1.53.5-2.28.78-.48.18-.77.4-1,.62-5.94,2.28-11.45,3.98-17.34,5.35-1.86.43-3.52,1.02-5.13,1.59-.75.27-1.49.53-2.24.77-1.72.55-3.68,1.11-6.18,1.74-1.6.41-3.49.6-5.49.8-1.06.11-2.16.22-3.23.37-.65.09-.99.13-1.32.17-.37.04-.72.09-1.45.19-1.05.15-2.11.31-3.18.47-2.7.41-5.49.84-8.28,1.04-1.47.11-3.03.03-4.68-.05-.6-.03-1.2-.06-1.8-.08-.72-.02-1.4.05-2.05.12-.51.05-.98.11-1.41.1-1.02-.01-2.03.03-3.02.07-.94.03-1.84.07-2.73.06-2.97-.02-6.88-.04-10.77-.11-.54-.01-1.16-.16-1.83-.32-.67-.16-1.35-.33-2.1-.4-.62-.06-1.2.03-1.66.1-.26.04-.55.08-.69.07-.69-.05-1.39-.08-2.09-.11-.63-.03-1.27-.05-1.9-.09-1.04-.07-2.08-.23-3.18-.4-.81-.12-1.65-.25-2.5-.35-.37-.21-.76-.29-1.05-.35l-.15-.03c-4.46-1.07-8.75-1.12-12.06-1.01-.28-.17-.65-.4-1.16-.51-.64-.14-1.28-.27-1.93-.39-.75-.14-1.49-.29-2.2-.46-4.25-1-8.84-2.02-14.1-2.54-.34-.03-.73-.2-1.21-.4l-.43-.18c-.12-.05-.24-.11-.36-.17-.26-.13-.59-.29-.98-.42-.52-.17-1.04-.13-1.59.12l-.79.07-.04.1-.11-.11c-.31-.32-.72-.5-1.23-.56-.11-.05-.23-.11-.37-.16-.35-.89-1.43-1.21-2.96-1.66-.22-.06-.43-.14-.63-.21-.21-.07-.4-.14-.6-.2-.51-.15-1.21-.1-1.21-.1-.63.05-1.04.34-1.3.59-2.05-.98-4.91-1.21-7.91-1.45-.05,0-.09,0-.14-.01-.05-.08-.1-.17-.15-.25-1.11-1.62-3.95-2.31-7.88-2.83-2.03-.27-2.61-.73-3.56-1.48-.11-.08-.21-.17-.31-.25-.37-.31-.83-.69-1.48-1.06-.56-.32-1.36-.39-2.07.05l-.85.13c-.12-.09-.23-.19-.37-.3-.41-.35-.98-.83-2.05-1.44-.31-.18-.7-.36-1.2-.39-.17,0-.81,0-1.35.44-.07,0-.16,0-.24.02-.31-.1-.63-.21-.96-.3-.74-.21-1.41-.48-2.09-.83-.51-.27-1.01-.49-1.5-.71-.68-.3-1.33-.59-1.82-.92-.31-.21-.64-.39-.93-.54-.08-.04-.16-.09-.25-.13-.1-.12-.2-.2-.28-.26l-.77-.44-.75.06c-.97.07-1.46.5-1.7.91-.06-.02-.12-.04-.16-.06.14-.75.06-2.18-2.27-2.95-.9-.3-1.78-.48-2.67-.54-.35-.57-1.01-1.17-2.23-1.56-.7-.23-1.45-.23-2.28-.19-.07-.12-.15-.25-.25-.37-.3-.36-.63-.74-.97-1.05-.33-.3-.71-.43-1.04-.49-.27-.42-.72-.95-1.58-1.26-1.71-.63-4.31-1.59-4.46-2.31-.3-1.44-1.99-1.88-3.34-2.23-.16-.04-.31-.08-.42-.11-2.51-.76-4.38-1.69-5.54-2.75-.51-.47-1.95-1.62-4.28-2.25-.19-.05-.35-.08-.49-.09-2.42-1.7-5.52-2.48-10.22-2.59l-4.36-.62,2.09,2.54c-.29.6-.63,1.33-.63,2.2,0,2.31,1.54,4.31,4.72,6.11.05.05.13.31.18.47.11.33.24.74.5,1.15.3.47.75.75,1.08.93.32.51.87.78,1.34.85.09.01.17.04.26.06.23.05.51.12.83.15.51.05.99-.02,1.37-.08.98.56,1.94,1.18,2.88,1.78,1.03.66,2.09,1.35,3.2,1.97,2.45,1.38,5.09,2.74,7.64,4.06,1.21.63,2.43,1.26,3.63,1.89,1.1.58,2.58,1.32,4.23,1.92,2.01.73,3.45,1.44,4.28,2.11,1.69,1.37,4.29,2.17,6.8,2.94l1.06.32c1.77.53,3.44,1.04,4.26,1.73.78.65,2.18.89,2.34.92,1.56.26,2.34.48,2.74.63-.28,1.01.28,1.8.93,2.19.25.15.48.24.66.3.04.01.07.03.11.04.46.3,1.22.51,1.78.47.02,0,1.55-.13,2.1-1.14.11.04.24.08.37.12,1.22.37,2.51.61,3.77.84.96.18,1.96.36,2.86.6.35.09.46.15.65.25.36.19.74.37,1.46.56,3.87,1.01,8.99,2.32,14.3,3.44,1.04.22,2.07.47,3.09.72.96.23,1.92.47,2.9.68,1.14.25,2.29.5,3.44.75,6.6,1.45,13.43,2.94,20.54,3.94,13.44,1.89,27.94,3.63,42.94,3.63h1.22c1.52,0,3.06,0,4.55,0,7.53.06,16.36-.05,24.73-1.4,1.71-.28,3.44-.54,5.17-.8,5.32-.81,10.81-1.64,15.71-2.89,8.68-2.21,17.01-4.69,24.73-7.38,3.89-1.35,7.43-2.94,10.86-4.47,1.15-.51,2.29-1.02,3.43-1.52,1.02-.44,2.08-.88,3.15-1.31.77-.31,1.55-.63,2.31-.95,1.15-.48,2.28-.99,3.39-1.48l1.08-.48c.55-.25,1.1-.5,1.65-.76.87-.4,1.75-.81,2.66-1.19.82-.35,1.67-.67,2.52-1,.93-.36,1.87-.72,2.78-1.1,1.81-.77,3.62-1.57,5.45-2.38,3.23-1.43,6.57-2.91,9.99-4.24,9.54-3.69,19.81-6.29,31.4-7.95.87-.12,1.79-.18,2.76-.23,1.03-.06,2.09-.12,3.15-.27,2.12-.31,4.25-.64,6.39-.98,4.32-.67,8.78-1.37,13.22-1.87,11.55-1.3,21.63-1.65,30.84-1.08,2.86.56,5.03,1.02,7.02,1.49.47.11.63.19.88.31.43.21.85.39,1.67.59,3.51.83,6.92,1.64,10.09,2.52,1.39.39,2.76.81,4.21,1.25,2.79.85,5.67,1.73,8.76,2.38,14.31,3.01,25.3,5.2,35.87,6.77,12.09,1.79,25.28,1.7,38.04,1.61,5.72-.04,5.97.46,6.47,1.57,2.13,4.64,6.68,9.03,14.75,14.23.06.04.19.22.3.36.21.29.47.64.88.97.63.5,1.48,1.16,2.52,1.76,7.11,4.07,16.05,7.61,28.14,11.13l.24.07h.25c3.04.12,6.33.44,10.05,1,2.48.37,5,.81,7.44,1.24,1.21.21,2.43.43,3.64.63,3.8.64,7.17,1.05,10.21,1.22.92.09,1.89.13,3.02.13.25,0,.5,0,.76,0,1.25,0,2.35-.02,3.36-.07l.82-.04v-.05c.68-.03,1.36-.06,2.03-.08,7.78-.2,15.44-.42,22.76-.66,2.97-.1,6.33-.21,9.56-.82,2.02-.38,3.98-.96,5.87-1.52,2.49-.74,4.85-1.43,7.3-1.7l.51-.06c4.11-.45,8.37-.92,12.58-1.6,7.5-1.22,14.17-2.72,19.84-4.46,6.26-1.92,11.74-4.28,16.57-6.37l1.77-.76c2.76-1.18,5.43-2.4,7.69-3.44l.24-.08c.33-.11.66-.22,1-.33,1.05-.32,2.12-.6,3.27-.9,1.35-.35,2.74-.71,4.08-1.15,2.68-.89,5.32-1.73,8.06-2.35,9.14-2.07,16.53-3.25,23.94-3.85,1.36-.11,2.73-.23,4.12-.34,7.22-.62,14.67-1.25,22.2-.95l3.45.14c4.12.17,8.38.35,12.49.42,1.79.03,3.66.11,5.47.18,1.5.06,3,.12,4.48.16,8.35.22,16.09,1.21,25.34,2.48,5.12.7,10.43,1.1,15.58,1.49,1.93.15,3.85.29,5.76.45.6.05,1.19.11,1.79.17.58.06,1.16.11,1.74.16,5.08.43,10.84.92,16.19,1.08.32,0,.55-.02.76-.06l3.37.1c6.6.21,13.43.42,20.16.27,3.78-.08,7.59-.51,10.86-.9.89-.11,1.72-.3,2.53-.5.81-.19,1.57-.37,2.3-.44.46-.05,1.01-.01,1.59.02.67.04,1.36.08,2.07.02.69-.06,1.4-.11,2.11-.15,1.52-.1,3.1-.21,4.64-.42.92-.12,1.78-.33,2.62-.53.8-.19,1.56-.37,2.31-.46,1.59-.2,3.21-.39,4.83-.57,4.18-.47,8.49-.96,12.57-1.81,6.87-1.43,12.56-3.16,16.91-5.15.49-.22.84-.56,1.06-1.02l.44-.2c6.89-3.15,14.01-6.4,18.47-11.09.77-.81.84-1.65.82-2.28,0-.06.01-.12.02-.17l.14-.88Zm-425.95.86c-.41.47-2.46,1.13-3.57,1.48-.34.11-.69.22-1.03.33-.99.33-2.41.84-3.59,1.43-3.63,1.81-9.66,3.89-17.98,3.7,0-.07,0-.13.01-.2.37-3.01.91-5.93,3.43-8.6.1-.1.22-.19.34-.29.23-.18.5-.39.75-.66,2.58-2.8,4.97-5.06,10.22-6.67,2.24-.68,6.53-1.16,7.42-.93,2.42.78,4.07,2.26,4.28,2.99.24.8.24,1.77,0,2.96-.05.23-.1.47-.15.7-.26,1.11-.55,2.37-.13,3.76Z"/>
      <path class="cls-2" d="m135.49,38.14s0,0,0,0c0-.03,0-.07.01-.1.01-.06-.17.11-.02.1Z"/>
      <path class="cls-2" d="m75.23,12.71s-.05,0,0,0h0Z"/>
    </g>
    <path class="cls-1" d="m1076.67,2189.02c-.6-1.43-1.07-2.57-1.81-3.35-9.75-10.31-18.39-22.09-25.66-35-1.21-2.15-2.54-4.14-3.95-6.25-2.79-4.17-5.67-8.48-7.46-13.96-1.7-5.19-4.16-10.21-6.55-15.07-1.51-3.07-3.07-6.25-4.45-9.48-3.16-7.4-6.08-15.08-8.9-22.51-.67-1.76-1.34-3.52-2.01-5.28-.16-.43-.33-.86-.51-1.28-.56-1.41-1.15-2.87-1.53-4.46-.76-3.15-1.6-6.35-2.41-9.45-1.7-6.48-3.46-13.19-4.66-19.96-1.5-8.42-2.5-17.06-3.47-25.42-.49-4.2-.99-8.55-1.55-12.8-.29-2.17-.27-4.33-.25-6.43,0-1.22.02-2.38-.03-3.54-.11-2.76-.4-5.61-.68-8.36-.48-4.73-.97-9.63-.64-14.47.28-4.02.45-8.12.63-12.09.44-10.12.9-20.58,2.99-30.85.63-3.12.83-6.55,1.02-9.86.28-4.82.56-9.8,2.17-14.25,2.61-7.23,4.18-15,5.7-22.52.29-1.42.57-2.84.87-4.25l.24-1.18c1.78-8.62,3.63-17.53,5.86-26.17.88-3.4,1.58-6.96,2.26-10.41.49-2.47.99-5.02,1.56-7.51,1.54-6.77,3.31-13.57,5.03-20.14l.49-1.89c.42-1.63.82-3.27,1.22-4.9.76-3.15,1.55-6.4,2.54-9.55,1.26-4.03,2.65-8.07,3.99-11.98,1.9-5.55,3.86-11.29,5.5-17.02,1.55-5.46,2.75-11.2,3.91-16.74.92-4.43,1.88-9,3.02-13.46.8-3.13,1.74-6.24,2.65-9.25,1.2-3.96,2.43-8.06,3.33-12.15,1.66-7.57,3.25-15.67,5-25.48l.47-2.62c1.61-9.04,3.28-18.38,4.74-27.6,1.26-8,2.32-16.21,3.34-24.14.27-2.09.54-4.18.81-6.26.15-1.17.32-2.34.5-3.51.36-2.47.74-5.02.9-7.5.16-2.56.09-5.12.02-7.84-.09-3.19-.18-6.49.15-9.77.36-3.54,1.06-7.05,1.74-10.44.86-4.27,1.66-8.3,1.85-12.42.22-4.96-.03-10.1-.28-15.07-.15-3.07-.31-6.24-.36-9.38-.12-8.03-.37-16.21-.62-24.12-.19-6.35-.4-12.92-.53-19.39-.03-1.32-.05-2.63-.07-3.95-.09-5.61-.18-11.41-.8-17-.86-7.69-1.88-14.44-3.13-20.62-.49-2.4-1.21-4.72-1.97-7.17-.81-2.62-1.65-5.32-2.18-8.13-.37-1.99-.38-4.03-.39-6.01-.02-3.7-.03-6.89-2.21-9.4-.57-.65-.67-1.46-.75-2.05-.02-.13-.03-.27-.06-.4-.41-1.77-.79-3.57-1.15-5.3-.69-3.32-1.41-6.76-2.39-9.98-.61-2.01-1.5-3.91-2.44-5.93-.92-1.97-1.86-4.01-2.56-6.19-.77-2.42-1.2-4.97-1.61-7.44-.5-3-.97-5.84-2.01-8.31-2.08-4.95-4.72-9.75-7.28-14.4-.97-1.77-1.95-3.54-2.89-5.32-.71-1.34-1.57-2.6-2.47-3.93-1.25-1.85-2.55-3.76-3.49-5.96-2-4.7-4.17-9.08-8.71-11.14-1.19-.54-1.4-1.88-1.52-2.68-.02-.14-.04-.28-.07-.4-1.11-1.93-2.44-4.08-3.98-5.6-1.06-1.05-2.11-2.1-3.16-3.15-2.79-2.79-5.68-5.68-8.63-8.36-2.34-2.12-3.86-3.66-3.8-5.74.07-2.21,1.99-3.72,4.2-5.46,9.37-7.36,15.5-15.98,18.75-26.34,2.85-9.09,5.36-17.3,7.31-25.73,2.4-10.41,4.83-21.57,6.39-32.68.97-6.9.93-14.17.88-21.2-.06-10.26-.3-20.71-.53-30.81l-.13-5.91c-.01-.49.04-.95.08-1.35.03-.31.08-.77.05-.92-.37-1.6-.77-3.19-1.17-4.78-.82-3.24-1.68-6.6-2.2-10.04-1.36-8.94-2.7-18.05-3.99-26.85-.8-5.47-1.61-10.94-2.42-16.41-.72-4.86-1.91-9.76-3.05-14.49-.36-1.49-.72-2.99-1.07-4.48-.47-2.03-1.16-4.11-1.82-6.13-1.13-3.43-2.29-6.97-2.59-10.67-.5-6.05-1.84-11.87-4.5-19.45-1.48-4.23-2.94-8.47-4.39-12.71-1.98-5.79-4.04-11.77-6.13-17.61-1.78-4.97-3.73-9.96-5.62-14.79-1.2-3.07-2.4-6.15-3.57-9.24-.95-2.52-1.74-5.13-2.49-7.65-.82-2.73-1.67-5.55-2.71-8.17-.73-1.84-1.5-3.66-2.26-5.48-1.34-3.18-2.72-6.47-3.91-9.84-.58-1.66-.79-3.39-.98-5.07-.17-1.45-.33-2.82-.72-4-.78-2.37-1.95-4.58-3.19-6.92-.94-1.77-1.91-3.6-2.71-5.53l-.07-.19c-.46-1.48-.71-3.06-.95-4.6-.24-1.54-.47-3-.9-4.33-1.06-3.34-2.19-6.72-3.28-9.98-1.1-3.3-2.25-6.71-3.32-10.1-1.34-4.22-2.53-8.58-3.68-12.79-.4-1.46-.79-2.91-1.2-4.36-.97-3.5-2.02-7.05-3.03-10.48-1-3.38-2.03-6.88-2.99-10.35-1.06-3.79-1.88-7.23-2.53-10.53l-.21-1.05c-1.31-6.68-2.66-13.59-3.62-20.48-.21-1.47-.71-2.94-1.25-4.49-1.15-3.32-2.45-7.08-.92-11.69.68-2.06.38-5.53-.33-6.33-1.73-1.94-2.17-3.83-2.56-5.49l-.02-.11c-.35-1.51-.43-3.05-.5-4.53-.02-.51-.05-1.02-.09-1.52-.12-1.68-.17-3.38-.21-5.02-.02-.93-.05-1.85-.08-2.78-.03-.79.23-1.44.43-1.92.02-.04.03-.08.05-.11-.34-1.3-.76-2.62-1.17-3.9-.89-2.8-1.81-5.69-2.1-8.77-.45-4.8-.73-9.69-.99-14.42-.12-2.12-.24-4.25-.37-6.37-.16-2.58-.53-5.23-.88-7.79-.45-3.24-.91-6.58-1-9.94-.18-6.58.04-13.25.24-19.7.15-4.6.3-9.36.31-14.02,0-2.37-.18-4.85-.36-7.24-.29-3.83-.59-7.8-.16-11.71,1.08-9.98,3.04-19.62,4.81-27.74,3.01-13.78,6.7-28.31,11.29-44.4,1.52-5.34,3.79-10.37,5.99-15.24,1.14-2.53,2.32-5.15,3.37-7.76,4.36-10.84,10.66-19.7,16.24-26.93,4.28-5.54,9.61-11.04,15.86-16.35,5.84-4.96,12.18-9.22,18.31-13.34,1.5-1.01,3.01-2.02,4.5-3.04,1.54-1.05,3.84-2.35,6.06-1.51,1.39.53,2.42,1.76,3.07,3.66,3.66,10.71,10.07,19.48,16.45,27.37,3.31,4.09,7.91,6.35,12.62,6.21,4.43-.14,8.44-2.38,11.28-6.31.99-1.37,1.69-4.03,1.52-5.8-.74-7.87-2.81-13.55-6.92-18.99-5.03-6.65-11.25-9.97-17.83-13.48-2.13-1.14-4.34-2.31-6.48-3.61-.6-.36-1.58-.53-2.52-.69-1.71-.3-3.64-.63-4.76-2.33l-.89-1.33c-3.45-5.14-7.01-10.46-7.3-18-.04-.09-.1-.17-.15-.26-.19-.34-.44-.76-.58-1.29-.29-1.03-.58-2.06-.87-3.09-2.58-9.11-5.25-18.53-4.68-28.72.08-1.35-.07-2.62-.42-3.77-2.38-7.72-2.27-15.69-2.16-23.39.07-4.88.14-9.93-.45-14.74-.56-4.51-.46-9.15-.36-13.64.04-1.96.08-3.99.07-5.96,0-1.13-.02-2.26-.04-3.39-.08-6.01-.15-12.23.67-18.21.19-1.36.4-2.71.61-4.06.5-3.22,1.02-6.55,1.21-10.06.26-4.89,1.35-9.69,2.41-14.33.62-2.72,1.26-5.53,1.71-8.28.33-2.01.57-4.1.81-6.12.35-3.03.72-6.17,1.39-9.22.6-2.75,1.52-5.37,2.41-7.9.8-2.28,1.55-4.43,2.1-6.66.65-2.68,1.1-5.52,1.54-8.27.52-3.28,1.06-6.67,1.95-9.94,2.12-7.78,4.6-15.53,7.01-23.02.64-1.99,1.28-3.98,1.91-5.98,1.15-3.63,2.48-7.23,3.76-10.71,1.17-3.18,2.38-6.47,3.44-9.74,1.64-5.07,3.07-10.35,4.45-15.45.94-3.48,1.91-7.07,2.94-10.59.02-.18-.09-.83-.16-1.21-.2-1.1-.44-2.46.19-3.66,3.53-6.74,4.51-14.18,5.54-22.06.31-2.37.63-4.83,1.03-7.24.95-5.78,1.54-11.43,1.76-16.8l.06-1.4c.25-6.05.52-12.31-.12-18.21-.77-7.16-2.58-14.16-4.52-21.29-1.87-6.87-3.99-13.56-6.68-21.8-.33.39-.76.89-.93,1.17.12,2.54.59,5.06,1.1,7.73.32,1.71.66,3.48.89,5.25.23,1.73.49,3.47.75,5.21.84,5.56,1.71,11.3,1.37,16.93-.21,3.54,0,4,.7,4.5l1.3.92-.6,1.58c-.65,1.71-1.15,3.38-1.62,5l.27,1.24c.75,3.39.62,5.71-.38,7.1-.32.44-.6.8-.84,1.11-.19.24-.39.5-.51.68.05.17.18.48.44,1.05l.09.2c.38.81.9,1.92.8,3.23-.42,5.97-1.09,11.99-1.73,17.82l-.3,2.7c-.09.86-.28,1.64-.45,2.39-.45,1.92-.73,3.08.46,4.88,1.16,1.76-.04,4.03-1.71,7.19-.6,1.14-1.22,2.31-1.6,3.25-.04.12-.03.47.03.6,2.24,3.9.16,6.53-1.3,7.85h.2s-.08,2.11-.08,2.11c-.03.83-.06,1.7-.08,2.56-.03.87-.05,1.75-.09,2.59l-.09,2.31-2.05-.41c-.17-.03-.28-.04-.36-.04-.09.26-.18.79-.23,1.13-.18,1.07-.54,3.27-2.25,4.11-.95,6.26-4.07,16.23-6.19,20.53-.18.36-.11,1.48-.05,2.38.07,1.03.14,2.2.03,3.47l-.02.27-.09.25c-.37,1.08-.86,2.23-1.38,3.45-.75,1.77-1.52,3.6-2.08,5.5-.75,2.56-1.36,5.25-1.96,7.85-.66,2.88-1.33,5.85-2.21,8.73-.79,2.61-1.77,5.15-2.71,7.61-.58,1.5-1.17,3.06-1.71,4.59-.27.78-.67,1.61-1.05,2.41-.35.74-.92,1.92-1.03,2.48,1.69,3.69.38,6.54-.59,8.64-.37.8-.72,1.56-.9,2.3-.26,1.06-.54,2.12-.83,3.18-.55,2.05-1.07,3.98-1.41,5.96-.68,3.95-1.16,8.05-1.62,12.02-.49,4.17-1,8.48-1.73,12.7-.58,3.31-1.44,6.59-2.28,9.76-1.39,5.26-2.69,10.22-2.8,15.26-.09,3.96-.6,7.84-1.1,11.6-.8,6.02-1.55,11.71-.68,17.68.48,3.25.06,6.53-.34,9.71-.28,2.17-.54,4.22-.52,6.22.03,6.89.52,13.93.99,20.73l.21,3.07c.28,4.11.79,8.3,1.28,12.35.33,2.7.67,5.49.94,8.25.31,3.19.43,6.45.55,9.6.21,5.75.41,11.18,1.67,16.28.51,2.06.98,4.14,1.46,6.23,1.92,8.4,3.9,17.08,8.25,24.39l1,1.68-1.51,1.11c-.76.56-1.51,1.12-2.25,1.67-3.55,2.65-6.9,5.16-10.48,6.97l-.74.37c-2.24,1.12-4.02,2-5.45,4.28l-.36.57c-2.23,3.54-5,7.95-8.39,8.18-2.9.2-4.44,2.14-6.23,4.39-1.11,1.4-2.26,2.84-3.79,3.94-1.15.83-2.16,2.43-3.13,3.98-1.14,1.82-2.22,3.53-3.73,4.48-1.01.63-1.35,1.31-1.88,2.34-.25.49-.53,1.05-.91,1.61-.62.94-1.32,1.71-2,2.45-.66.72-1.27,1.39-1.73,2.13-.9,1.45-1.75,3.06-2.58,4.62-1.87,3.52-3.81,7.16-6.56,9.74-1.53,1.43-2,3.37-2.55,5.61-.71,2.9-1.51,6.18-4.68,8.82-3.47,2.89-5.3,10.01-6.91,16.29-.31,1.2-.61,2.38-.92,3.51-.34,1.25-.75,2.45-1.16,3.62-1.04,3.02-2.02,5.88-1.83,9.43.23,4.45-1.16,8.84-2.5,13.09-.57,1.81-1.17,3.69-1.61,5.49-.62,2.55-1.29,5.12-1.95,7.6-.98,3.71-1.99,7.55-2.8,11.34-.68,3.17-1.13,6.44-1.3,9.47-.15,2.76-.11,5.63-.07,8.4.04,3.01.08,6.13-.11,9.22-.22,3.54-.63,7.11-1.02,10.56-.5,4.38-1.01,8.92-1.14,13.35-.16,5.65.24,11.47.63,17.11.15,2.11.29,4.22.41,6.32.17,3.01.31,6.01.46,9.02.34,7.2.7,14.65,1.41,21.9.42,4.33,1.14,8.75,1.83,13.01.92,5.64,1.86,11.48,2.18,17.33.59,10.91,1.99,20.52,4.3,29.39.56,2.15.94,4.36,1.32,6.5.36,2.06.73,4.18,1.25,6.23,1.31,5.12,2.15,10.45,2.96,15.6.79,4.98,1.6,10.13,2.83,15,4.1,16.23,8.9,32.35,13.47,47.48,5.02,16.61,9.31,30.34,13.52,43.21,1.44,4.4,3.07,8.81,4.64,13.09.75,2.03,1.5,4.06,2.23,6.09.11.29.35.66.61,1.04.38.56.81,1.2,1.09,2.02.93,2.67,1.77,5.42,2.58,8.08,1.25,4.1,2.54,8.34,4.16,12.26,4.6,11.16,9.82,23.81,13.22,37.07,1.42,5.55,3.09,11.13,4.71,16.53,1.32,4.42,2.69,9,3.92,13.55l.24.9c1.4,5.18,2.85,10.54,3.86,15.95.97,5.24,1.77,10.6,2.54,15.79.43,2.92.87,5.83,1.33,8.74.43,2.68.91,5.41,1.37,8.04.7,3.99,1.43,8.12,2.01,12.23.57,4.11.86,8.3,1.14,12.34.23,3.39.47,6.89.88,10.29.15,1.26.66,2.78,1.15,4.25.97,2.91,1.88,5.65.74,7.92-.95,1.88-.4,3.92.23,6.29.76,2.85,1.7,6.36-.59,9.59h0c.07,2.17.23,4.39.39,6.54.3,4.06.6,8.26.32,12.43-.16,2.4-.18,4.85-.2,7.22-.02,1.91-.03,3.89-.12,5.83-.13,2.89-.79,5.66-1.42,8.35-.95,4.04-1.85,7.86-1.04,11.89l.27,1.32-1,.77c-2.2,1.7-2.65,4.36-3.16,7.44-.36,2.14-.73,4.35-1.73,6.43-1.76,3.69-2.95,7.71-4.2,11.97-.78,2.66-1.59,5.41-2.56,8.06-.17.48-.45.84-.71,1.1.34,4.57-2.43,6.41-4.49,7.77-.65.43-1.27.84-1.77,1.3-1.15,1.06-2.19,2.37-3.28,3.75-1.01,1.28-2.06,2.6-3.25,3.77l-.32.31-.41.12c-.42.13-.86.25-1.3.38-2.06.58-4.18,1.18-5.82,2.46-5.79,4.53-12.15,6.03-20.62,4.86-.8-.11-1.61-.24-2.43-.37-6.5-1.03-12.64-2-16.97,4.94-.32.52-.81,1.3-1.73,1.69-4.63,1.98-7.23,4.83-8.16,8.95-.16.69-.53,1.11-.74,1.33-.93,2.09-1.69,4.25-2.48,6.54-.29.85-.59,1.69-.89,2.53-.46,1.27-.31,3.03.4,4.72.69,1.63,1.8,2.88,2.89,3.27,3.05,1.09,5.92.51,9.9-1.98,3.04-1.9,6.1-3.91,9.06-5.86,5.33-3.51,10.83-7.13,16.47-10.25,3.24-1.79,8.16-2.93,11.32-1.19,1.08.59,2.18,1.11,3.24,1.62,1.32.63,2.69,1.27,4.04,2.07,8.69,5.14,15.35,11.41,20.37,19.18,1.78,2.76,3.3,5.71,4.77,8.57.64,1.25,1.28,2.5,1.95,3.73,2.59,4.81,5.97,11.17,9.27,17.88.51.54,1.05,1.25,1.7,2.23,2.53,3.82,3.62,8.34,4.69,12.71,1.24,5.13,2.42,9.98,5.75,13.45.35.37.56.81.62,1.33.43,1.84.9,3.67,1.36,5.49.59,2.33,1.21,4.74,1.74,7.15,3.02,13.67,5.92,27.23,8.61,40.31.21,1.01.42,2.02.63,3.03,1.41,6.7,2.86,13.64,3.16,20.64.63,14.77.84,29.8,1.04,44.33l.1,7.31c.04,3.03.12,6.06.19,9.09.12,4.95.24,10.07.23,15.12,0,1.66-.42,3.27-.82,4.83-.42,1.62-.81,3.14-.58,4.2,1.43,6.38,1.06,12.51.71,18.43-.06,1.07-.13,2.14-.18,3.22-.3,6.02-1.24,12.04-2.16,17.86-.63,3.98-1.27,8.1-1.7,12.14-.1.96.11,2.12.33,3.36.3,1.7.62,3.45.26,5.23-.34,1.68-1.11,3.11-1.85,4.51-1.63,3.04-2.26,4.49-.11,6.96.39.45.91,1.41.06,2.89-.03.04-.05.09-.08.14-.39,1.48-.73,3.06-1.06,4.59-.92,4.28-1.86,8.71-4.14,12.09-1.54,2.29-1.47,4.12-1.38,6.66.01.39.03.79.04,1.19.02.94.27,2.16.52,3.34.51,2.44,1.03,4.97-.13,6.78-2.15,3.35-2.56,7.3-3,11.47-.33,3.12-.67,6.35-1.76,9.46-.39,1.11-.61,2.37-.85,3.71-.48,2.73-1.01,5.76-3.14,8.06.46.76.82,1.63.67,2.66-.3,2.1-.54,4.27-.77,6.37-.48,4.34-.98,8.83-2.03,13.14-.58,2.39-1.72,4.48-2.82,6.5-1.02,1.88-1.98,3.66-2.43,5.51-.24.98-.58,1.82-.88,2.55-.55,1.34-.98,2.4-.81,4.29.29,3.28-.9,6.59-2.05,9.79-.42,1.17-.82,2.28-1.14,3.36-.02.07-.04.13-.07.2.43.95.67,2.08.12,3.13-.7,1.33-2.01,1.4-3.03,1.3-.05.87-.09,1.76-.13,2.62-.17,3.93-.34,7.99-1.85,11.58-3.8,9.06-7.33,18.03-8.75,28.14-.24,1.7-.86,3.26-1.47,4.76-.95,2.36-1.77,4.4-1.02,6.6.47,1.4.34,2.52-.4,3.34-2.19,2.43-2.64,5.88-3.1,9.53-.3,2.34-.61,4.77-1.4,7.05-.72,2.11-.89,4.56-1.06,7.15-.14,2.14-.29,4.36-.78,6.51-1.02,4.55-2.41,9.03-3.74,13.35-1.12,3.63-2.28,7.38-3.2,11.1-1.9,7.67-3.27,14.01-4.32,19.95-.91,5.18-1.36,10.61-1.79,15.85-.16,1.92-.32,3.85-.5,5.77-.15,1.59-.5,3.12-.83,4.6-.78,3.46-1.46,6.44.34,9.6.87,1.52.23,3.14-.34,4.57-.48,1.21-.97,2.45-.8,3.68.44,3.09-.03,6.2-.49,9.21-.33,2.17-.64,4.22-.62,6.22.03,3.72.36,7.55.68,11.26.2,2.36.41,4.81.55,7.23l.14,2.6c.33,6.15.67,12.5,1.54,18.57.38,2.67.75,5.34,1.12,8.01,1.36,9.9,2.77,20.13,4.97,29.92,1.94,8.66,4.58,17.77,8.56,29.52,4.72,13.95,8.78,24.35,13.15,33.74,5.72,12.27,12.39,24.14,18.75,35.15,3.28,5.69,7.16,11.11,10.91,16.35,1.27,1.77,2.53,3.54,3.78,5.32,3.65,5.22,7.73,10.47,12.48,16.05,2.16,2.54,4.18,4.05,7.39,3.81-.14-.33-.27-.65-.4-.96Zm-34.9-1636.1c1.09.31,2.09.45,2.97.56,1.49.2,2.91.39,4.1,1.39,3.48,2.9,6.62,6.33,9.65,9.64,1.04,1.13,2.08,2.27,3.13,3.38,2.24,2.37,3.19,4.67,2.81,6.82-.36,2.08-1.9,3.74-4.57,4.92l-.61.27-.63-.23c-9.47-3.42-13.6-12.35-18.38-22.68l-2.41-5.21,3.94,1.14Z"/>
    <path class="cls-2" d="m98.34,1743.58c1.06,1.22,2.1,2.58,3.17,3.86,1.51,1.8,3.09,3.46,4.95,4.44,1.06.56,2.22.89,3.49.9,2.75.02,4.18-2.15,5.55-4.9.2-.39.39-.8.59-1.21.54-1.13.83-2.22.93-3.27.17-1.75-.16-3.41-.63-5.03-.53-1.86-1.38-3.72-2.41-5.3-.34-.53-.71-1.02-1.09-1.47-1.75-2.09-3.52-4.19-5.31-6.23-1.2-1.36-2.41-2.7-3.64-4-.61-.65-1.24-1.29-1.86-1.92-1.25-1.25-2.53-2.46-3.83-3.6-.34-.29-.68-.58-1.01-.86s-.67-.56-1.01-.84c-2-1.67-3.87-3.39-5.1-6.36-.03-.08-.16.03-.4.11-.08.03-.17.05-.28.07-.06.63,0,1.12.1,1.54.02.08.04.16.05.24.06.23.11.43.13.63.01.13.02.25,0,.37-.05.3-.23.6-.67.94h0c-.21-.35-.41-.67-.61-.96-1.16-1.79-2.02-2.84-2.67-4.11-.11-.21-.21-.43-.31-.66-.88-2.12-1.63-4.33-2.35-6.55-.54-1.67-1.08-3.34-1.66-4.98-.19-.55-.39-1.09-.6-1.64-1.19-3.14-2.25-6.32-3.19-9.56-.94-3.24-1.77-6.53-2.48-9.88-.48-2.23-.9-4.48-1.28-6.75-.31-1.89-.58-3.8-.83-5.7-.42-3.18-.81-6.36-1.31-9.52-.65-4.1-1.4-8.19-1.97-12.31-.19-1.37-.36-2.75-.5-4.14-.18-1.8-.41-3.61-.61-5.43-.14-1.21-.27-2.42-.38-3.64-.05-.61-.1-1.21-.14-1.82-.08-1.21-.12-2.43-.11-3.64.02-1.92.05-3.84.09-5.76.04-1.92.09-3.84.15-5.76.12-3.84.27-7.68.42-11.52.16-3.84.32-7.68.46-11.52.15-3.84.27-7.68.36-11.52.06-2.57.22-5.13.44-7.69.07-.85.15-1.71.24-2.56.29-2.9.65-5.81.99-8.71.34-2.9.67-5.78.9-8.6.2-2.52.4-5.04.61-7.55.52-6.29,1.08-12.55,1.92-18.8.17-1.25.35-2.5.54-3.74.15-.97.28-1.95.4-2.93.72-5.89.96-11.9,1.49-17.84.09-.99.19-1.98.29-2.97.28-2.55.61-5.1.98-7.64.37-2.54.78-5.07,1.22-7.57.18-1.03.43-2.04.72-3.04.87-3,2.07-5.91,2.53-9.01.36-2.41.68-4.82.98-7.25.59-4.85,1.1-9.71,1.67-14.56.14-1.21.29-2.42.45-3.63.15-1.21.32-2.42.49-3.63.27-1.94.86-3.82,1.34-5.71.29-1.14.55-2.28.69-3.45.65-5.51,1.2-11.03,1.73-16.56.53-5.53,1.03-11.07,1.56-16.6.86-8.84,1.97-17.67,2.65-26.54.08-1,.13-2.01.17-3.01.08-2.01.11-4.03.18-6.05.04-1.01.08-2.01.15-3.02.33-4.88.74-9.74,1.14-14.61.2-2.43.4-4.87.6-7.3.19-2.44.37-4.87.54-7.31.04-.57.07-1.14.08-1.71.13-3.99-.17-8.02.01-12.01.21-4.76.83-9.49.99-14.25.26-7.53.24-15.07.38-22.61.11-5.54.27-11.08.31-16.62.01-1.85.01-3.69-.01-5.54-.04-3.29-.1-6.58-.15-9.87-.03-1.64-.05-3.29-.06-4.93-.02-6.16-.4-12.32-.33-18.48,0-.56,0-1.12-.03-1.68-.06-1.68-.22-3.36-.22-5.05,0-1.64.14-3.29.3-4.94.27-2.75.6-5.51.39-8.21-.5-6.26-1.71-12.42-2.28-18.68-.13-1.4-.26-2.81-.4-4.21-.27-2.81-.55-5.62-.78-8.44-.11-1.41-.22-2.82-.3-4.23-.32-5.52-.5-11.05-.93-16.56-.23-2.91-.65-5.79-1.02-8.68-.12-.96-.24-1.93-.35-2.89-.19-1.79-.37-3.58-.53-5.37-.49-5.38-.92-10.77-1.7-16.08-.32-2.21-.64-4.42-.96-6.64-.64-4.42-1.28-8.85-1.97-13.26-.34-2.21-.7-4.41-1.08-6.61-.64-3.77-1.44-7.49-2.24-11.22-.8-3.72-1.6-7.45-2.26-11.21-.24-1.38-.41-2.77-.68-4.13-.09-.45-.19-.9-.3-1.35-1.09-4.19-2.09-8.4-3.09-12.63-.84-3.56-1.68-7.14-2.5-10.72-.27-1.19-.55-2.38-.82-3.58-.03-.13-.07-.26-.11-.39-.23-.63-.63-1.19-.91-1.8-.06-.12-.11-.24-.15-.37-.04-.13-.08-.25-.11-.39-.22-1.1-.36-2.23-.47-3.37-.19-1.9-.31-3.81-.68-5.65-.41-2.03-1.2-3.94-1.88-5.85-.1-.27-.19-.55-.28-.82-.11-.34-.23-.67-.36-.99-.13-.33-.26-.65-.4-.97-.28-.64-.58-1.28-.87-1.91-.44-.95-.87-1.91-1.21-2.91-.12-.33-.22-.67-.32-1.01-.33-1.2-.62-2.43-.89-3.66-.13-.62-.26-1.24-.39-1.86-.64-3.1-1.25-6.21-2.26-9.09-1.27-3.62-2.61-7.19-3.99-10.74s-2.79-7.08-4.19-10.62c-.09-.22-.19-.52-.26-.83-.05-.21-.09-.43-.12-.64-.03-.32-.02-.61.07-.83,1.2-2.89,2.26-6.08,3.66-8.79.47-.9.97-1.75,1.53-2.51.82-1.11,1.58-2.26,2.3-3.44,2.52-4.14,4.49-8.68,6.23-13.37.25-.67.49-1.34.73-2.02.48-1.35.94-2.71,1.4-4.08.46-1.36.9-2.73,1.35-4.1.45-1.37.89-2.73,1.35-4.08.88-2.64,1.55-5.4,2.1-8.23.22-1.13.42-2.28.6-3.43.09-.58.18-1.15.26-1.73.68-4.64,1.15-9.38,1.78-14.02.26-1.95.5-3.9.73-5.86.67-5.87,1.19-11.79,1.65-17.7.74-9.54,1.71-19.07,2.24-28.64.33-5.95.28-11.94.31-17.91,0-.56-.01-1.11-.02-1.67-.05-3.9-.31-7.79-.75-11.62-.48-4.13-1.2-8.19-1.96-12.26-.25-1.35-.51-2.71-.76-4.06-.87-4.65-1.63-9.34-2.55-13.96-.18-.92-.38-1.85-.58-2.76-.4-1.83-.83-3.65-1.32-5.45-1.81-6.7-4.42-13.02-6.22-19.69-.26-.95-.5-1.91-.72-2.88-.55-2.43-1.17-4.68-1.98-6.8-.2-.53-.41-1.06-.64-1.57-.67-1.55-1.46-3.04-2.41-4.5-.13-.2-.23-.48-.29-.79-.18-.83-.17-1.93-.2-2.67-.02-.46-.07-.77-.19-.79-.81-.09-1.13-.87-1.3-1.85-.03-.2-.06-.4-.09-.61-.05-.41-.09-.85-.14-1.26-.07-.62-.16-1.21-.35-1.66-.12-.3-.29-.54-.51-.68-.11-.07-.24-.12-.39-.14-.29-.04-.66.03-1.13.23h0c-.26-.89-.48-1.8-.69-2.72-.1-.46-.21-.91-.31-1.37-.4-1.83-.81-3.64-1.43-5.32-.15-.42-.32-.83-.51-1.23-.73-1.59-1.57-3.1-2.46-4.59-.59-1-1.21-1.98-1.84-2.98-.31-.5-.63-1-.95-1.51-.64-1.01-1.27-2.05-1.9-3.12-.02-.1-.02-.26-.02-.43,0-.29,0-.65-.01-1.06-.02-.48-.07-1.01-.2-1.49-.05-.16-.1-.31-.17-.46-.48-1.06-.98-2.11-1.49-3.15-1.02-2.08-2.09-4.12-3.11-6.2-.51-1.04-1.02-2.08-1.5-3.14-1.32-2.88-2.22-6.09-3.14-9.3-.46-1.6-.93-3.2-1.46-4.76-.88-2.59-1.95-5.06-3.44-7.22-.6-.86-1.27-1.68-2.03-2.43-.05-.05-.1-.11-.16-.17-.82-.93-2.06-3.17-1.02-5.73.05-.12.04-.33,0-.57-.13-.73-.6-1.83-.97-2.14-.43-.35-.79-.75-1.11-1.17-1.11-1.49-1.62-3.37-2.03-5.32-.24-1.12-.44-2.25-.71-3.35-.2-.82-.43-1.63-.74-2.38-.8-1.95-1.49-3.98-2.14-6.04-1.08-3.44-2.03-6.99-3.09-10.45-1.14-3.73-2.01-7.49-2.49-11.45-.08-.66-.15-1.32-.21-2-.06-.67-.11-1.35-.14-2.03-.07-1.39-.21-2.78-.39-4.16-.09-.69-.19-1.38-.3-2.07-.22-1.38-.46-2.75-.71-4.12-.37-2.06-.75-4.12-1.05-6.19-.38-2.64-.98-5.31-1.01-7.94-.01-1.42-.01-2.85,0-4.27.01-1.43.03-2.85.05-4.28.04-2.85.09-5.7.07-8.55-.04-7.61-.65-15.28-.48-22.85.02-1.08.06-2.16.12-3.24.21-3.89.63-7.82,1.23-11.71.15-.97.31-1.94.48-2.9.51-2.89,1.12-5.74,1.82-8.51,1.63-6.47,2.76-13.24,4.87-19.54.38-1.15.8-2.28,1.25-3.39.68-1.67,1.46-3.29,2.35-4.85.26-.45.5-.93.72-1.42.22-.49.43-1,.63-1.52,1.17-3.12,1.87-6.71,2.88-9.99.42-.21.78-.29,1.2-.5h0s0,0,0,0c.14.52.31,1.01.49,1.51.17.5.34.99.49,1.51.39-1.59.35-3.24.44-4.69.05-.87.16-1.67.43-2.34.25-.62.5-1.24.76-1.86,1.52-3.72,3.07-7.48,5.02-10.78.33-.55.66-1.09,1.01-1.61,1.9-2.84,4.06-5.38,6.24-7.89,2.18-2.51,4.39-5,6.4-7.72,2.19-2.97,4.55-6.18,5.93-9.83,3.71-9.81,6.96-19.94,10.35-29.96.9-2.65,1.68-5.21,2.51-7.94h0s0,0,0,0c.61.7.59.86.64.93.4-2.15.75-4.33,1.13-6.49.63-3.6,1.32-7.14,2.46-10.37.24-.67.47-1.32.68-1.96.64-1.92,1.13-3.75,1.25-5.83.02-.4.04-.81.06-1.21.04-.81.08-1.61.15-2.42.04-.4.09-.8.15-1.2.27-1.8.55-3.61.77-5.41.11-.9.21-1.81.28-2.71.07-.9.13-1.81.15-2.72.02-.88.12-1.81.29-2.77.25-1.45.65-2.98,1.17-4.56s1.16-3.18,1.9-4.78c.26-.56.28-1.33.22-2.14-.01-.2-.03-.41-.05-.61-.06-.62-.15-1.24-.18-1.79-.17-2.78-1.58-6.28-.81-8.37,1.59-4.3.5-8.33.74-12.47.06-1.04.1-2.08.13-3.12s.05-2.08.05-3.13c.02-3.13-.06-6.27-.16-9.41-.04-1.05-.07-2.09-.11-3.14-.08-2.09-.16-4.19-.22-6.28-.04-1.49-.27-2.97-.51-4.44-.06-.37-.12-.74-.18-1.11-.18-1.11-.34-2.22-.41-3.34-.34-5.04-.35-10.11-.85-15.11-.41-4.09-.79-8.18-1.17-12.27-.35-3.63-.7-7.25-1.11-10.87-.65-5.8-1.39-11.58-2.17-17.34-.07-.51-.13-1.02-.2-1.52-.15-1.07-.32-2.13-.53-3.19-.61-3.16-1.45-6.25-2.32-9.33-.06-.21-.13-.41-.19-.61-.83-2.78-1.88-5.44-2.79-8.19-.65-1.99-1.24-4.01-1.81-6.04-.57-2.03-1.13-4.07-1.74-6.08-.41-1.34-.83-2.67-1.3-3.97-.66-1.83-1.45-3.58-2.27-5.31-1.02-2.13-2.08-4.24-3.01-6.42-.93-2.18-1.72-4.5-2.53-6.81-1.34-3.85-2.69-7.67-4.67-10.81-1.16-1.83-2.38-3.6-3.65-5.31-3.81-5.15-8-9.88-11.94-14.84-1.76-2.21-3.73-4.43-5.91-5.73-.77-.46-1.57-.87-2.37-1.24-1.21-.56-2.44-1.03-3.68-1.47-1.24-.44-2.49-.85-3.73-1.28-.23-.08-.49-.11-.75-.11-.01,0-.02,0-.03,0-.52.02-1.06.19-1.55.46-.25.14-.48.3-.68.49-.58.53-1.16,1.09-1.74,1.66-1.37,1.34-2.75,2.76-4.04,4.21.28.93.63,1.77,1.03,2.51.2.37.42.72.65,1.04,1.17,1.61,2.72,2.59,4.68,2.72,1.68.12,3.31.96,4.92,1.79.09.05.18.09.27.14.6.3,1.18.63,1.75.97,1.15.68,2.25,1.42,3.32,2.23,5.7,4.31,10.28,10.37,14.2,17.3.84,1.48,1.66,3,2.44,4.56.13.25.25.52.37.78,2.3,4.76,3.97,10.15,6,15.53.02,0,.04,0,.06.02.08.04.13.21.21.44.02.07.05.14.07.21.35.9.75,1.78,1.18,2.64,1.37,2.75,2.99,5.34,3.98,8.11.13.36.25.73.35,1.1.19.67.33,1.36.42,2.06.06.46.1.93.11,1.41.01.81-.05,1.64-.2,2.5.22.24.44.46.66.66.44.41.85.76,1.18,1.16.03.04.05.08.08.12.13.16.25.33.34.52.3.62.54,1.31.74,2.02.12.44.23.88.34,1.32.07.28.13.56.2.84.38,1.59.75,3.19,1.1,4.79.71,3.2,1.39,6.42,2.04,9.64.32,1.61.64,3.23.96,4.84.39,2.01.16,4.34.36,6.39.03.34.08.68.14,1s.14.64.24.94c.56,1.69,1.01,3.41,1.37,5.14.24,1.16.44,2.32.62,3.49.95,6.44,1.03,13.08,1.77,19.55.58,5,.68,10.1.87,15.18.03.73.05,1.45.09,2.18.22,5.19.29,10.4.45,15.6.06,2.08.14,4.16.24,6.23.05,1.04.11,2.07.18,3.11.04.6.05,1.19.05,1.78-.01,1.18-.1,2.34-.18,3.49-.02.29-.04.58-.06.87-.06.87-.12,1.73-.13,2.61,0,.29,0,.58,0,.87.02,1.46.17,2.94.6,4.46.24.86.46,1.8.63,2.75.11.64.2,1.28.26,1.92.09.96.1,1.9,0,2.77-.44,3.77-1.12,7.49-1.71,11.22-.15.93-.29,1.87-.42,2.81-.39,2.82-.69,5.66-.74,8.57-.05,2.78-1.16,5.53-1.56,8.34-.55,3.89-.99,7.81-1.48,11.72-.08.65-.97.99-1.28,1.63-.13.27-.26.56-.37.85-.34.87-.61,1.81-.82,2.72-.2.88-.31,1.79-.41,2.71-.16,1.54-.28,3.09-.68,4.51-1.19,4.2-2.54,8.36-4,12.86h0c-.22-.03-1.11-.28-1.85-.41-.11-.02-.21-.03-.31-.05-.02.08-.06.19-.1.3-.04.11-.1.24-.15.36-.08.19-.15.36-.2.51-.02.05-.04.11-.05.15.41.33.86.58,1.22.75.36.17.62.27.63.28-.97,3.58-1.98,6.98-2.99,10.33-.34,1.12-.67,2.23-1.01,3.34-.04.13-.08.26-.12.4-.16.55-.31,1.16-.47,1.77-.45,1.66-.95,3.27-1.65,3.4-.55.1-.94.22-1.22.38-.14.08-.25.17-.33.28-.04.05-.08.11-.11.17-.28.54-.12,1.39.06,2.86.19,1.61-1.12,4.48-1.89,4.67-4.36,1.08-5.58,5.65-6.55,10.53-.03.15-.2.07-.48.19-.06.02-.12.05-.18.1-.13.08-.28.21-.44.41h0s0,0,0,0c-.27-.79-.77-1.49-1.22-2.81-.32.65-.6,1.29-.86,1.92-.27.64-.52,1.27-.75,1.89-.15.41-.3.82-.45,1.22-.59,1.61-1.13,3.14-1.81,4.53h0c-.07-.02-.14-.05-.23-.08-.09-.03-.18-.07-.28-.12-.6-.26-1.4-.67-1.93-.82-.03.45-.04.91-.04,1.36,0,.45.01.88,0,1.28,0,.39-.02.74-.07,1.01-.05.28-.13.48-.26.58-.62.48-1.17,1.04-1.65,1.67-.32.42-.62.86-.9,1.33-.14.23-.27.47-.4.71-.52.97-.97,2.01-1.41,3.05s-.87,2.1-1.33,3.1c-.23.5-.47.99-.73,1.45-.65,1.18-1.25,2.41-1.83,3.67s-1.12,2.54-1.66,3.83c-1.08,2.58-2.12,5.2-3.28,7.71-.19.41-.44.79-.72,1.14-.55.71-1.21,1.35-1.71,2.09-.25.37-.46.75-.59,1.18-.29.91-.51,1.85-.72,2.81-.1.48-.19.96-.28,1.44-.18.97-.34,1.94-.52,2.91-.26,1.45-.56,2.9-.97,4.27-.38,1.28-.84,2.53-1.3,3.77-.62,1.65-1.25,3.29-1.74,5-.12.43-.24.86-.34,1.29-.2.85-.38,1.71-.57,2.56-1.34,5.97-2.49,12.01-3.44,18.11-1.11,7.07-1.96,14.2-2.44,21.38-.21,3.19-.51,6.41-.55,9.65,0,.65,0,1.3,0,1.95.03,1.3.11,2.61.26,3.93.39,3.29.63,6.6.8,9.93.06,1.11.11,2.22.16,3.33.1,2.23.18,4.46.27,6.68.09,2.23.19,4.46.32,6.68.41,6.88.99,13.78,1.92,20.58.54,3.93,2.1,7.61,2.78,11.52.14.82.27,1.65.39,2.49.12.83.22,1.67.32,2.51.2,1.68.37,3.37.56,5.06.09.84.19,1.68.3,2.51.32,2.5.73,4.97,1.36,7.34,1.32,4.97,3.08,9.75,4.9,14.5.36.95.73,1.89,1.1,2.84.73,1.89,1.46,3.78,2.17,5.68.77,2.07,1.54,4.13,2.32,6.19,1.56,4.12,3.14,8.22,4.77,12.28.82,2.03,1.64,4.05,2.49,6.07,4.88,11.64,10.32,22.9,15.23,34.52,1.59,3.77,2.95,7.76,4.34,11.69.2.56.4,1.12.6,1.68,0,.16,0,.33.02.5.06.51.23,1.04.44,1.6,1.2,3.18,2.47,6.33,3.7,9.51.61,1.59,1.21,3.18,1.78,4.79s1.12,3.23,1.63,4.88c2.11,6.84,4.09,13.75,5.91,20.73.61,2.33,1.2,4.66,1.78,7,.17.7.34,1.4.51,2.11.34,1.4.66,2.81.98,4.22.31,1.41.61,2.82.9,4.24.28,1.42.55,2.84.8,4.26.5,2.85.91,5.73,1.22,8.64.31,2.91.51,5.85.58,8.84.02.75.03,1.5.03,2.25,0,5.19,1.06,10.38,1.4,15.58.05.74.08,1.49.1,2.23.05,2.82-.22,5.64-.45,8.46-.14,1.7-.27,3.39-.32,5.09-.03,1.07.16,2.13.34,3.2.06.36.12.71.18,1.07-.09.24-.19.49-.29.75-.1.26-.2.53-.3.8-.58,1.62-1.08,3.4-.72,4.72.62,2.33-.57,4.6-.85,6.81-.03.22-.05.44-.05.66-.02.66.06,1.32.33,1.97.18.43.43.87.79,1.29-1.83,3.03-.94,6.98-1.09,9.95-.01.23-.03.45-.05.67-.05.43-.13.84-.26,1.21-.12.35-.23.71-.33,1.07-.81,2.86-1.03,5.81-1.28,8.72-.22,2.54-.47,5.05-1.17,7.42-.15.52-.34,1.02-.54,1.51-.19.49-.39.97-.56,1.44-.06.16-.11.32-.16.48-.4,1.27-.55,2.55.12,4.03.08.18.18.37.29.56.07.11-.25.46-.47.79-.04.06-.07.11-.1.16-.03.05-.05.11-.07.15-.27.81-.53,1.62-.79,2.44-1.27,4.1-2.38,8.3-3.7,12.36-.26.81-.54,1.62-.82,2.42-.28.8-.58,1.59-.89,2.37-.25.63-.52,1.26-.8,1.88-1.95,4.32-4.47,8.26-6.74,12.29-.09.16-.21.33-.34.49-.8.96-2.2,1.77-2.69,1.81-.04,0-.07,0-.1,0-.03,0-.05-.02-.06-.04-.97-1.67-2.33-2.72-3.62-3.99-.77-.76-1.51-1.6-2.12-2.71-.93-1.68-1.86-3.37-2.8-5.04-.31-.56-.63-1.11-.95-1.67-1.91-3.32-3.91-6.56-6.11-9.57-.37-.5-.74-1-1.12-1.48-.76-.98-1.54-1.92-2.35-2.84-.41-.46-.82-.91-1.24-1.35-.84-.88-1.72-1.72-2.63-2.53-.44-.38-.87-.73-1.29-1.05-1.71-1.26-3.38-2.01-5.12-2.38-.87-.19-1.76-.28-2.68-.3-.46-.01-.93,0-1.41.02h0c-.45.02-1-.38-1.61-.8-.12-.08-.25-.17-.37-.25-.25-.17-.51-.32-.77-.44-1.29,2.52-2.64,5.16-3.97,7.77-1,1.96-2,3.91-2.96,5.78-.32.62-.64,1.24-.95,1.85.04.2.09.4.15.61.25.83.67,1.7.92,2.4.19.53.29.97.16,1.22-.81,1.64-1.29,3.27-1.54,4.89-.19,1.21-.24,2.42-.21,3.62.09,3.61.99,7.18,1.58,10.74.17,1.01.42,1.99.73,2.95.61,1.93,1.44,3.79,2.23,5.65.4.93.79,1.86,1.14,2.81.33.89.7,1.76,1.09,2.61.2.43.4.85.61,1.26.42.83.87,1.63,1.34,2.41.95,1.56,1.99,3.01,3.12,4.34.85.99,1.74,1.91,2.67,2.75.62.56,1.26,1.08,1.92,1.56,2.29,1.68,4.77,2.87,7.34,3.42.37.08.74.15,1.11.2.74.11,1.49.16,2.24.16,1.5,0,3.02-.23,4.54-.71,1.52-.48,3.04-1.2,4.54-2.2.17-.12.35-.22.52-.31.17-.09.34-.17.5-.23.33-.13.66-.22.97-.25.16-.02.31-.03.47-.02.15,0,.3.02.45.05.44.08.87.26,1.26.53.26.18.52.4.76.66.6.65,1.12,1.54,1.55,2.64.82,2.09,1.66,4.18,2.49,6.27,2.52,6.26,5.08,12.51,7.54,18.8,2.16,5.52,2.81,11.76,4.22,17.66.47,1.97,1.03,3.89,1.75,5.74.39,1,.77,2.01,1.13,3.03.18.51.35,1.02.52,1.53.68,2.05,1.29,4.14,1.8,6.27.13.53.25,1.07.37,1.6.35,1.61.65,3.24.88,4.89.39,2.75.61,5.56.63,8.42,0,1.02.26,2.16.79,2.76,1.34,1.51,2.21,3.28,2.81,5.19.36,1.15.63,2.34.85,3.56.14.82.26,1.64.37,2.47.05.42.11.83.16,1.25.1.83.2,1.67.3,2.49s.22,1.65.35,2.45c.07.4.14.8.22,1.2.25,1.25.48,2.51.72,3.77,1.2,6.28,2.32,12.6,3.33,18.95.41,2.54.8,5.08,1.17,7.63.41,2.75.81,5.49,1.2,8.24,1.18,8.25,2.3,16.51,3.42,24.78.68,4.98,1,10.04,1.67,15.02.07.52.17,1.05.28,1.59.67,3.21,1.92,6.57,1.83,9.47-.02.48-.07.96-.17,1.41-.31,1.43-.56,2.84-.74,4.22-.06.46-.11.91-.15,1.36-.17,1.8-.18,3.52,0,5.09,1.16,9.73,2.28,19.27,1.8,29.17-.04.85.05,1.71.18,2.57.17,1.15.42,2.31.52,3.46.03.29.04.57.05.86.02,1.2.03,2.41.03,3.61,0,3.61-.07,7.23-.04,10.84.06,5.9.13,11.79.13,17.69,0,1.97,0,3.93-.02,5.9,0,.91-.04,1.81-.08,2.72s-.09,1.81-.14,2.72c-.1,1.81-.19,3.62-.15,5.43.05,2.92.79,6,.99,8.88.02.26.03.52.04.78.03,1.03-.02,2.03-.22,2.98-.15.75-.29,1.49-.4,2.22-.22,1.48-.37,2.94-.46,4.39-.09,1.45-.13,2.9-.14,4.35-.01,2.17.04,4.34.06,6.53,0,.37.02.74.04,1.12.04.75.11,1.49.18,2.24s.15,1.49.2,2.24c.08,1.12.13,2.23.05,3.33-.16,2.16-.39,4.31-.63,6.46-.24,2.15-.48,4.3-.65,6.46-.22,2.8-.29,5.64-.29,8.48,0,.52.04,1.06.08,1.61.01.18.03.36.04.54.04.72.05,1.43-.1,2.09-.04.2-.09.39-.14.59s-.11.4-.16.6c-.81,2.78-2.15,5.61-1.66,7.88.11.51.2,1.02.27,1.52.59,4.05.07,8.01-.51,11.95-.51,3.44-1.07,6.87-.98,10.33.09,3.65-.08,7.33-.32,11-.08,1.23-.17,2.45-.25,3.67-.21,2.9-.37,5.79-.55,8.74-.06.98-.12,1.98-.18,2.98.13.08.24.15.4.25.11.07.24.15.43.27.28.17.66.42,1.24.78-.23.03-.44.08-.64.12-.59.15-1.05.35-1.4.61-1.41,1.03-1.13,2.88-1.01,4.9.02.38.06.76.12,1.14.34,2.48,1.16,5.01.06,7.78-.08.21-.18.43-.29.65-.39.79-.8,1.72-1.16,2.71-.28.74-.53,1.52-.75,2.3-.65,2.34-.94,4.69-.37,6.18.08.22.16.42.22.61.13.38.23.71.3,1,.31,1.3.06,1.75-.24,2-.13.11-.27.18-.38.27-.84,5.17-1.57,10.27-2.3,15.3-.29,2.01-.59,4.01-.88,6.01-.3,1.99-.61,3.97-.92,5.94-.32,1.97-.65,3.93-1.01,5.87-.88,4.87-1.89,9.66-3.13,14.39-.03.34.1.72.26,1.11.11.26.23.52.34.78.16.39.28.78.24,1.14-.3,2.66-.76,5.26-1.2,7.87-.07.44-.14.87-.22,1.31-.63,3.92-1.15,7.89-.93,12.1.02.36-.02.74-.08,1.14-.1.67-.29,1.39-.44,2.14-.09.45-.17.92-.21,1.4-.07.79-.04,1.61.21,2.44.07.24-.82.69-1.18,1.15-.05.07-.09.13-.12.2-.25.67-.49,1.43-.64,2.18-.05.25-.09.5-.12.74-.06.47-.07.95-.07,1.44,0,1.45.18,2.94-.03,4.34-.03.19-.07.37-.12.55-.24.91-.72,1.76-1.01,2.65-.12.36-.2.72-.24,1.09-.48,5.47-.4,11.02-.9,16.48-.6,6.53-1.83,12.97-2.46,19.5-.21,2.14-.27,4.29-.32,6.45-.05,2.16-.08,4.32-.23,6.47-.23,3.38-.45,6.76-.68,10.13-.23,3.38-.46,6.76-.71,10.13-.01.18-.06.36-.13.54-.07.18-.17.36-.27.52-.05.08-.11.16-.17.23-.11.14-.23.26-.35.35-.06.04-.11.08-.16.11-.63.33-1.02.54-1.2.78-.12.16-.16.33-.11.56.02.11.06.24.12.38.12.29.3.65.54,1.13.1.2.19.41.26.64.23.67.35,1.41.36,2.11,0,.85,0,1.7-.03,2.55-.04,1.27-.1,2.54-.17,3.82-.07,1.27-.15,2.54-.21,3.82-.13,2.74-.16,5.5,0,8.18.04.56.09,1.12.15,1.68.13,1.12.31,2.25.49,3.37.18,1.12.36,2.25.5,3.36.2,1.67.3,3.31.14,4.9-.27,2.63-.23,5.2-.05,7.72.03.42.06.84.1,1.26.08.84.16,1.67.26,2.51.33,2.92.75,5.82.99,8.76.24,2.95.71,5.86,1.23,8.77.31,1.74.64,3.48.95,5.22.34,1.93.67,3.87,1.01,5.81.66,3.88,1.33,7.75,2.12,11.58.39,1.91.81,3.81,1.28,5.69,2.08,8.43,4.46,16.71,6.89,24.98.04.12.07.24.11.35.1.33.2.63.27.88.05.17.08.33.09.47.04.35-.04.6-.33.78-.29.18-.78.27-1.58.31-1.21.06-2.41.69-3.6,1.48-.3.2-.59.4-.89.61-.89.63-1.77,1.28-2.65,1.78-.57.33-1.17.74-1.77,1.18-.6.44-1.21.91-1.8,1.34-1.18.86-2.29,1.58-3.16,1.66-1.37.13-2.58.5-3.7,1.04-2.02.96-3.74,2.44-5.52,3.93-.4.33-.8.66-1.2.99-.24.19-.47.4-.69.61-.44.42-.84.88-1.21,1.37-.19.25-.37.5-.54.76-.7,1.05-1.32,2.24-1.97,3.56-.21.43-.44.83-.7,1.21-.76,1.16-1.7,2.15-2.68,3.13-1.3,1.3-2.65,2.57-3.72,4.13-1.36,1.98-2.64,4.12-3.93,6.24-.32.53-.64,1.06-.96,1.58-.96,1.57-1.93,3.1-2.93,4.51-1.12,1.58-2.11,3.23-3.03,4.94-.3.57-.6,1.14-.89,1.72-3.45,6.95-5.74,14.63-9.07,21.63-.28.59-.47,1.25-.62,1.97-.1.48-.17.97-.23,1.48-.06.51-.11,1.03-.15,1.55-.04.52-.09,1.04-.14,1.55-.17,1.79-.42,3.47-1.18,4.59-.91,1.35-1.55,2.78-2.05,4.26-.6,1.77-.99,3.61-1.41,5.44-.35,1.52-.72,3.03-1.25,4.48-.17.48-.8.71-1.28.99-.1.06-.19.11-.27.18-.16.12-.28.27-.31.44-.71,3.55-1.53,7.09-2.21,10.65-.53,2.77-.99,5.56-1.24,8.38-.28,3.04.04,6.08-.55,9.12-.08.43-.19.87-.31,1.3-.13.43-.24.88-.34,1.33-.4,1.8-.59,3.7-.78,5.62-.14,1.44-.27,2.89-.46,4.31-.26,1.9-.55,3.8-.86,5.65-.31,1.85-.63,3.66-.98,5.38-.04-.04-.18-.2-.35-.37-.17-.17-.35-.37-.45-.49-.2.49-.26,1.21-.18,1.61.09.49.27.99.46,1.49.25.67.51,1.33.58,1.96.02.16.02.31,0,.46-.1,1.3-.2,2.6-.29,3.9-.69,9.09-1.32,18.17-.69,27.3.02.29.03.58.02.87-.04,2.04-.66,4.14-1.07,6.12.26.98.69,2.06,1,3.11s.51,2.08.31,2.95c-.33,1.47-.54,2.94-.65,4.41-.15,1.95-.14,3.9-.03,5.85.23,4.37.89,8.72,1.09,13.06.02.47.12.93.27,1.38.36,1.14,1,2.25,1.28,3.41.06.23.1.47.12.7.04.39.06.78.07,1.18.01.79-.02,1.59-.08,2.4-.13,2.01-.35,4.04-.04,5.93.27,1.64.59,3.27.93,4.89,1.03,4.86,2.28,9.65,3.24,14.53,1.47,7.46,2.29,15.15,3.9,22.55,1.12,5.16,2.74,10.14,4,15.25.19.79.38,1.58.56,2.37.18.79.36,1.59.54,2.39,1.06,4.78,2.05,9.61,3.51,14.15,1.8,5.59,2.51,11.41,5.9,16.55,1.27,1.93,2.13,4.32,2.9,6.8.15.5.31,1,.46,1.5.3,1.01.6,2.02.92,3.01.2.44.43.87.67,1.28.73,1.24,1.57,2.4,2.2,3.71.27.56.3,1.29.57,1.84,0,0,0,0,0,0,0,0,0,0,0,0-.1-.2-.41-.26-.52-.46-.18-.35-.42-.71-.66-1.06-.12-.18-.24-.35-.35-.53-.11-.18-.21-.35-.3-.53.32.93.88,1.75,1.4,2.58.21.33.4.67.58,1.01.09.17.17.35.24.53.68,1.71,1.31,3.46,1.93,5.22,1.85,5.27,3.56,10.63,6,15.47.16.31.31.62.45.94,1.63,3.47,2.81,7.28,4.6,10.7.33.62.67,1.23,1.05,1.82.37.59.77,1.17,1.21,1.72,2.69,3.45,4.36,8.1,6.16,12.47.2.48.41.96.63,1.42.22.47.45.92.68,1.38.46.91.94,1.81,1.38,2.73.22.46.43.93.63,1.41.59,1.44,1.06,2.97,1.26,4.73.02.13.04.27.07.4.03.13.07.26.11.39.35,1.03,1.12,1.98,1.81,2.95.09.12.17.25.26.37.42.62.8,1.25,1.01,1.94.97,3.15,1.58,6.49,2.24,9.77.36,1.78.15,3.7.41,5.51.11.8.53,1.6.79,2.39.05.16.1.32.14.47.07.31.11.63.08.93-.09.88-.24,1.75-.4,2.62-.48,2.62-1.16,5.22-1.53,7.83-.16,1.16-.26,2.32-.25,3.48,0,.22,0,.43,0,.63.01.82.03,1.54.01,2.2,0,.17-.01.33-.02.49-.04.64-.14,1.22-.32,1.8-.05.14-.1.29-.16.43-.12.29-.26.57-.43.86-.26.43-.59.88-1.01,1.35-.28.31-.55.64-.81.97-1.57,2-2.89,4.34-4.13,6.49-.21.36-.41.71-.62,1.06h0c-.53-.35-1-.49-1.43-.49-.11,0-.21,0-.31.03-.1.02-.2.04-.3.07-.39.13-.76.36-1.11.65-.18.14-.35.29-.52.45-.17.16-.35.31-.53.47-.18.15-.36.3-.54.44-.49.36-1.1.42-1.74.4-.16,0-.32-.02-.48-.03-.32-.02-.65-.05-.97-.06-.16,0-.32,0-.47.01h0c-.12,0-.25-.02-.39-.06-.07-.02-.14-.04-.22-.07-.29-.1-.58-.22-.76-.2-.05,0-.08.02-.11.04-1.7,1.44-3.34,1.91-5.16,1.82-.61-.03-1.23-.13-1.89-.28-2.95-.66-5.95-1.13-8.46-2.92-.68-.49-1.33-1.07-1.92-1.79-.4-.48-.77-1.01-1.13-1.61-1.63-2.78-2.93-5.95-3.63-9.19-.08-.38-.15-.77-.21-1.16-.42-2.72-.31-5.54-.31-8.13-.84-.14-1.53-.12-2.12.01-1.36.31-2.11,1.29-2.58,2.56-.2.55-.35,1.15-.48,1.78-.13.63-.23,1.29-.33,1.95-.16,1.02-.31,2.03-.42,3.03-.04.33-.07.67-.1,1-.37,3.99-.09,7.86,2.28,11.56.71,1.11,1.26,2.41,1.84,3.68.57,1.27,1.17,2.5,1.99,3.49.94,1.14,1.97,2.28,3.07,3.24.27.24.55.47.83.69.56.43,1.13.81,1.72,1.11.29.15.58.28.88.4,4.6,1.74,9.3,3.44,14.07,4.27.68.12,1.36.22,2.05.3.57.07,1.15.1,1.72.11,2.3.01,4.61-.48,6.79-1.46,1.63-.74,3.2-1.76,4.63-3.05,2.22-2,4.14-4.49,6.15-6.84.67-.78,1.35-1.55,2.05-2.28,1.19-1.23,2.26-2.52,3.2-3.86.95-1.34,1.77-2.75,2.47-4.21.23-.49.45-.98.66-1.48,1.85-4.51,2.56-9.57,2.05-15.23-.31-3.42,1.71-6.57.12-10.53-.47-1.17.43-3.8-.61-5.71-.54-.99-.79-2.46-.78-3.8,0-.96.25-1.98.43-2.97.14-.74.24-1.47.18-2.14-.02-.22-.05-.44-.11-.65-.15-.55-.49-.89-.69-1.3-.08-.15-.12-.32-.14-.51-.03-.31.02-.68.26-1.19.12-.25-.02-.69-.27-1.22-.17-.35-.39-.74-.62-1.14-.35-.6-.72-1.21-.98-1.72.07-.01.12-.02.16-.03.04-.01.07-.02.11-.03.06-.02.13-.04.27-.07-.08-1.23,0-2.29-.07-3.52-.13.02-.25.03-.36.03-1.01-.02-1.28-.83-1.46-1.74-.02-.1-.04-.2-.06-.31-.09-.51-.17-1.03-.35-1.44-.34-.76-.64-1.57-.93-2.38-.1-.27-.19-.54-.29-.81-.39-1.07-.81-2.13-1.34-3.07-.17-.29-.34-.58-.53-.86-1.28-1.96-2.88-3.62-4.12-5.62-.18-.15-.36-.32-.54-.48-.54-.48-1.08-.98-1.6-1.46-.19-.74-.31-1.54-.43-2.34-.06-.4-.13-.81-.2-1.21-.11-.61-.24-1.21-.42-1.78-.06-.19-.13-.38-.2-.57-.44-1.12-1.12-2.11-2.27-2.83-.28-.18-.55-.4-.81-.67-.66-.67-1.25-1.61-1.79-2.69-.97-1.94-1.73-4.34-2.28-6.46-.2-.77-.3-1.58-.42-2.35-.12-.77-.25-1.5-.52-2.1-.32-.72-.83-1.25-1.74-1.45,0,0,0-.05.02-.14.02-.09.04-.2.05-.33.03-.26.04-.57-.04-.77-1.15-2.75-2.25-5.53-3.45-8.23-.81-2.02-1.73-4.13-2.54-6.29-.57-1.51-1.43-2.81-2-4.32-.24-.64-.47-1.29-.69-1.95-.44-1.31-.85-2.64-1.29-3.95-.22-.65-.45-1.3-.69-1.94-1.95-5.15-4.25-10.11-6.18-15.27-.28-.74-.54-1.48-.8-2.23-.71-2.05-1.26-4.18-1.77-6.34-.51-2.16-.97-4.35-1.49-6.5-.17-.72-.35-1.43-.54-2.14-.19-.71-.39-1.41-.61-2.11-1.24-3.97-3.5-7.48-4.52-11.53-1.6-6.38-2.54-13.05-3.98-19.51-.1-.43-.24-.84-.42-1.24-.53-1.2-1.29-2.32-1.54-3.61-.99-5.1-1.55-10.35-2.45-15.48-.13-.73-.27-1.46-.41-2.19-.09-.46-.33-.86-.6-1.24-.37-.52-.81-1.01-1.08-1.57-.07-.14-.12-.29-.17-.44-.15-.56-.33-1.11-.51-1.66-.09-.28-.19-.55-.28-.83-.47-1.39-.97-2.78-1.29-4.21-.06-.29-.12-.57-.17-.86-.35-2.02-.28-4.12.71-6.37.03-.08.05-.2.04-.35,0-.14-.02-.3-.06-.45-.1-.45-.22-.9-.35-1.34-.26-.9-.57-1.79-.87-2.68-.15-.45-.3-.89-.45-1.34-.58-1.78-1.05-3.57-1.05-5.37,0-.73,0-1.46,0-2.18,0-.72,0-1.45,0-2.17,0-3.6-.07-7.15-.59-10.72-.1-.71-.23-1.43-.37-2.14-.18-.88-.33-1.78-.46-2.69-.4-2.74-.59-5.59-.54-8.34.03-1.91.39-3.87.72-5.8.24-1.38.47-2.76.56-4.1.08-1.07.07-2.13-.09-3.15-.35-2.23.04-4.26.41-6.3.33-1.78.64-3.57.46-5.51-.03-.28-.06-.56-.11-.84-.41-2.38-.5-4.89-.41-7.43.02-.63.05-1.27.09-1.91.12-1.91.32-3.82.53-5.7,1.12-9.96,2.02-20,3.52-29.86.5-3.29,1.06-6.55,1.72-9.79.44-2.16.92-4.31,1.46-6.44s1.12-4.25,1.77-6.34c.4-1.3.79-2.61,1.18-3.93,2.7-9.19,5.1-18.59,8.37-27.4.87-2.35,1.79-4.64,2.77-6.88.49-1.12.99-2.22,1.5-3.31,1.02-2.18,2.1-4.3,3.23-6.36,1.69-3.09,3.5-6.03,5.42-8.81,5.23-7.56,11.43-14.13,18.61-19.26,1.36-.97,2.74-1.85,4.14-2.63,3.26-1.81,6.6-3.06,10.01-3.62,1.46-.24,2.94-.35,4.43-.33,1.49.02,2.99.18,4.51.49,1.16,1.63,2.55,2.89,3.83,4.29.21.23.42.47.63.71s.41.49.6.74c1.71,2.24,3.36,4.57,5.03,6.85s3.37,4.53,5.18,6.61Zm-60.67-775.89c-.23.73-.35,1.45-.5,2.5-.02.18-.05.36-.07.56s-.05.4-.08.62h0c-.42-.26-.82-.49-1.2-.7-.39-.22-.76-.42-1.13-.61-.73-.39-1.44-.77-2.17-1.22-.52,1.31-1.11,1.82-1.73,1.88-.37.04-.75-.09-1.13-.31-1.01-.58-2.04-1.82-2.9-2.35-.42-.26-.84-.57-1.24-.93-.2-.18-.4-.37-.6-.58-.98-1.01-1.89-2.26-2.63-3.54-.9-1.56-1.71-3.14-2.36-4.83-.22-.56-.41-1.13-.59-1.72-.72-2.34-1.11-4.88-1.05-7.77.02-1.06-.19-2.13-.48-3.19-.1-.36-.2-.71-.31-1.07-.42-1.43-.88-2.86-.96-4.31-.07-1.29.21-2.55.7-3.58.14-.29.29-.57.46-.82.59-.88,1.34-1.47,2.1-1.56.09-.01.18-.01.27,0,.64.06,1.35.57,2.07,1.27.2.2.41.42.61.64.4.45.8.95,1.16,1.43.09.12.18.24.27.36s.18.24.26.35c.42.57.48,1.57.56,2.55.05.59.1,1.17.25,1.65.17-.3.48-.65.69-.96.03-.04.06-.09.09-.13h0c1.44,1.46,3.54,2.18,4.65,4,1.29,2.13,2.11,4.76,3.08,7.22.39.98.8,1.94,1.28,2.82.24.44.49.86.77,1.26,2.02,2.91,2.8,5.62,2.34,8.79-.11.73-.26,1.48-.51,2.27Z"/>
    <path class="cls-2" d="m999.1,2300.26c-.02-.34-.15-.65-.27-.95-.11-.27-.22-.53-.23-.77-.54-9.78-3.29-16.31-8.9-21.18-.56-.49-1.11-1-1.65-1.51-1.53-1.43-3.12-2.92-5.08-3.87-1.15-.56-2.39-1.21-3.77-1.97-.2-.11-.41-.19-.62-.26-.23-.08-.45-.16-.63-.29-.91-.61-1.87-1.12-2.81-1.61l-.72-.38c-1.36-.73-2.72-1.4-4.03-2.04-1.42-.69-2.88-1.41-4.32-2.2-1.19-.65-2.62-1.22-4.13-1.64-.08-.02-.15-.02-.21,0-.74-.23-1.53-.31-2.3-.39-.71-.07-1.44-.14-2.11-.33-.4-.11-.79-.3-1.2-.49-.4-.19-.82-.38-1.26-.51-9.7-2.88-16.7-4.45-23.43-5.25-5.05-.6-13.02-1.39-22.33-1.79-4.85-.21-9.11-.2-13.02.02-.68.04-1.34.22-1.99.39-.65.17-1.27.34-1.89.37-.35.02-.7-.01-1.07-.04-.37-.03-.75-.06-1.13-.05-3.06.13-6.5.5-10.5,1.13-.95.15-1.92.25-2.87.35-1.72.18-3.5.37-5.16.85-.6.17-1.16.5-1.7.81-.56.33-1.1.64-1.67.79-.33.09-.78.15-1.21.17-.34.02-.74-.19-1.15-.42-.46-.25-.93-.5-1.43-.49-1.22.01-2.41.45-3.55.87-.68.25-1.32.48-1.95.63-1.19.27-2.38.53-3.57.78-2.41.51-4.89,1.04-7.25,1.72-.91.26-1.89.38-2.84.49-.93.11-1.89.23-2.81.48-1.13.31-2.19.87-3.22,1.41-1.01.53-2.06,1.09-3.15,1.37-2.06.55-4.18,1.17-6.23,1.77-1.35.4-2.71.8-4.06,1.18-.16.04-.36.02-.56,0-.33-.04-.75-.09-1.03.23-.13.15-.21.33-.28.49-.05.11-.13.29-.17.32-.72.25-1.45.52-2.17.78-1.44.52-2.93,1.05-4.38,1.53-1.09.36-2.18.85-3.22,1.32-.95.43-1.92.87-2.9,1.21-.15.05-.42-.02-.67-.09-.39-.1-.84-.22-1.16.05-.2.16-.32.38-.44.57-.1.17-.2.34-.29.36-2.49.5-5.1,1.12-7.29,2.31-.38.21-.75.44-1.12.67-.53.33-1.07.67-1.65.94-.29.13-.26.45-.24.64,0,.02,0,.05,0,.08-.55.25-1.09.51-1.64.78-1.46.7-2.96,1.43-4.52,1.95-.42.14-.99.06-1.6-.03-.6-.09-1.22-.17-1.82-.07-1.22.22-4.16.88-5.2,2.2-1.48,1.88-3.46,3.03-5.88,3.42-.49.08-.99.12-1.48.16-1.06.09-2.16.18-3.15.66-.34.16-.69.34-1.05.53-.92.47-1.87.95-2.76,1.3-.17.07-.34.15-.51.23-.18.08-.36.17-.54.23-.39.14-.8.26-1.19.38-1.29.39-2.52.75-3.01,1.71-.88-.5-1.96-.89-2.59-.71-.93.28-1.77.74-2.65,1.23-.56.31-1.14.63-1.76.91-.23.1-.46.13-.72.17-.26.04-.54.07-.85.19-.32-.07-.64.11-.93.27-.19.11-.39.22-.57.25-1.58.31-3.25.56-4.85.79-2.33.34-4.74.69-7.08,1.28-.55.14-1.04.44-1.52.72-.34.21-.67.4-1,.54-.48.19-.95.44-1.4.68-.85.45-1.65.87-2.4.86-4.79-.07-8.66.98-11.51,3.11-.21-.08-.46-.23-.7-.38-.29-.18-.56-.35-.82-.41-.81-.19-1.5-.16-2.16-.14-.21,0-.42.02-.63.02-.28,0-.6-.11-.94-.22-.46-.16-.94-.32-1.41-.23-.2.04-.4.09-.58.13-.43.1-.8.19-1.21.19-1.92,0-3.87.2-5.92.4-2.56.25-5.2.51-7.92.44-.06-.05-.16-.26-.23-.4-.16-.33-.32-.67-.61-.8-.38-.16-.78-.01-1.14.12-.21.08-.43.16-.6.16-.96-.01-1.96-.22-2.92-.42-1.09-.23-2.21-.46-3.31-.43-1.54.04-3.13.23-4.67.42-2.42.29-4.93.6-7.25.29-1.4-.19-2.83-.42-4.22-.64-1.98-.32-4.03-.65-6.02-.86-8.03-.84-14.97-1.96-21.23-3.43-12.65-2.97-23.98-7.87-33.6-12.23-2.58-1.17-4.91-2.76-7.16-4.29-.59-.4-1.18-.8-1.76-1.19-.35-.23-.69-.49-1.03-.74-.38-.29-.76-.57-1.16-.83-.71-.46-1.51-.79-2.29-1.11-.88-.36-1.71-.7-2.39-1.21-.55-.41-1.05-.91-1.57-1.43-.62-.62-1.25-1.26-2.01-1.76-.11-.08-.24-.08-.39,0l-.52-.34c-4.73-3.13-9.63-6.37-11.77-10.83v-.08s-.04-.08-.04-.08c-.12-.25-.18-.47-.24-.67-.11-.38-.24-.82-.77-.8-2.97.1-3.29-1.72-3.57-3.31l-.03-.16c-.24-1.36-.81-2.69-1.35-3.98-.26-.61-.52-1.23-.74-1.84-.2-.56-.42-1.12-.64-1.69-.93-2.37-1.88-4.81-1.69-7.33.18-2.52-1.32-4.91-2.92-7.42l-.08-.12c-.08-.13-.13-.3-.17-.49-.05-.22-.11-.44-.23-.64-.13-.21-.4-.29-.65-.37-.12-.04-.31-.09-.35-.13-.12-.25-.2-.6-.27-.96-.19-.86-.42-1.92-1.51-2.22-.92-.25-2.02.21-3.29.74-.3.12-.6.25-.92.38-.31.12-.44.27-.55.39-.09.1-.14.16-.32.23-.51.2-1.03.38-1.53.56-2.33.82-4.52,1.6-5.68,3.57-.72,1.22-1.04,2.51-1.18,3.38l-.03.21c-.09.56-.17,1.05-.32,1.49-.74,2.16-.69,4.19-.65,6.33.01.49.02.97.02,1.47-.05.03-.14.06-.2.08-.24.09-.59.22-.59.58,0,.29.01.58.02.87.04,1.41.08,2.75-.76,3.83-1.16,1.48-1.82,3.16-2.45,4.77-.13.34-.27.67-.4,1-.26.64-.47,1.3-.67,1.93-.43,1.37-.84,2.67-1.75,3.78-3.33,4.08-6.9,7.42-10.35,10.65-.9.85-1.79,1.68-2.67,2.52-1.73,1.66-4.25,3.2-7.92,4.84-1.21.54-2.37,1.09-3.49,1.62-3.18,1.5-6.18,2.91-9.44,3.78-2.33.62-4.98,1.17-7.65,1.59-.96.15-1.95.27-2.9.39-1.15.14-2.32.28-3.47.48-.12-.04-.24-.08-.37-.12l-.28-.07-.27.1c-.16.06-.28.09-.39.11-3.82.08-7.67.41-11.36-.49-5.93-1.45-11.26-3.42-17.39-4.26-5.26-.72-10.57-.92-15.87-.85-2.65.03-5.31.13-7.96.26-2.65.13-5.31.33-7.96.39-2.56.06-5.11.01-7.67.04-1.08.21-2.39.47-3.6.95-.26.1-.51.21-.81.34-.9.39-1.68.72-2.54.73h-.51c-.4-.02-.91-.04-1.43.05-.74.12-1.39.43-1.97.71-.34.16-.69.32-1.04.47-1.18.53-2.4,1.08-3.53,1.91-.53.39-1.05.8-1.51,1.18-.92.49-1.62.92-2.27,1.38-1.79,1.27-2.57,1.22-3.64.63-.51-.28-1.05-.65-1.59-1.02-.52-.36-1.16-.8-1.81-1.16-.2-.11-.4-.23-.66-.39-.67-.4-1.44-.86-2.28-1.12-.6-.19-1.2-.4-1.74-.6-1.73-.97-3.43-1.18-5.01-1.24-2.92-1.05-6.03-1.78-8.55-2.37l-3.04-.72c-.35,0-.71-.02-1.06-.03-4.21-.07-8.43-.03-12.64.39-.26.03-.51.07-.77.1-1.5.08-2.98.28-4.39.66-.37.07-.74.12-1.11.2-1.9.4-3.76,1.13-5.61,1.83-.51.1-1.03.17-1.56.2-3.05.16-6.11.19-9.11,1.02-2.88.8-5.63,2.26-8.48,3.23-1.26.43-2.65.51-3.78,1.28-1.11.76-1.96,1.92-3.18,2.48-2.04.95-4.1,1.78-6.17,2.6-1.82.72-3.3,1.63-4.65,2.87l-.31.28c-1.83,1.69-3.41,3.15-5.72,2.67-.04-.01-.08-.03-.19-.08-.5-.22-1.82-.8-2.68.66-.07.11-.13.23-.18.36-.52.4-1.03.8-1.53,1.2-4.16,3.29-7.74,6.11-12.44,5.97-.31,0-.61-.06-.96-.11-.9-.13-1.91-.28-2.98.17-.22.09-.5.13-.82.17-.3.04-.6.08-.89.16-1.04.26-2.08.64-3.09,1.01-1.03.38-2.09.77-3.11.99-.5.11-1.03.18-1.56.25-.58.07-1.23.16-1.88.31-.44.1-.77.38-1.01.7-.31-.19-.67-.33-1.11-.3-.63.06-1.3.06-1.95.06-.46,0-.93,0-1.43.02-.69.02-1.21.48-1.59.88-.55-.54-1.37-1.2-2.47-1.14-.32.02-.67-.03-1.11-.09-.47-.06-1-.14-1.56-.11l-.3.02c-5.47.31-10.63.6-16.09-.65l-1.29-.05c-1.39-.04-2.83-.09-4.26-.03-.72.03-1.37.09-1.99.18-1.25-.23-2.54-.33-3.79-.43-1.62-.12-3.29-.24-4.87-.66-.19-.05-.44-.43-.65-.77-.31-.49-.63-.99-1.08-1.09-.55-.12-1.11-.2-1.66-.28-1.45-.21-2.82-.42-3.8-1.27-2.71-2.34-5.83-3.46-8.85-4.54-.97-.35-1.93-.69-2.87-1.07-1.09-.44-2.14-1.22-3.16-1.98-.84-.62-1.71-1.26-2.6-1.73-.13-.07-.17-.12-.24-.2-.09-.1-.19-.22-.43-.35-4.93-2.57-9.58-5-15.03-5.88-1.47-.24-2.99-.36-4.46-.47-2.41-.19-4.91-.38-7.23-1.11-1.22-.38-2.46-1.06-3.65-1.72-1.43-.79-2.91-1.6-4.44-1.97-.77-.18-1.61.23-2.41.63-.48.24-.98.49-1.45.59-1.28.29-2.49.18-2.97-.26-2.4-2.23-4.84-1.89-7.2-1.57-.39.05-.79.11-1.18.15-1.51.16-2.85-.51-4.28-1.22-.4-.2-.8-.4-1.21-.58-1.85-.83-4.08-.2-6.23.42-.8.23-1.63.47-2.42.62-.61.12-1.28-.06-1.93-.23-.6-.16-1.22-.32-1.81-.27-.68.06-1.31.52-1.92.96-.58.42-1.13.82-1.68.86l-1.57.12c-2.53.19-5.16.39-7.72.75-5.32.75-9.7,1.7-14.22,3.09-5,1.54-9.45,3.45-13.62,5.84-.49.28-.72.5-.93.71-.2.19-.39.37-.81.62-.18.1-.36.2-.55.3-.69.37-1.4.74-1.99,1.42l-.14.16c-.75.86-1.46,1.67-2.27,1.88-3.65.93-5.9,3.28-8.14,6.51-.41.59-.8,1.26-1.18,1.9-.48.82-.97,1.64-1.53,2.37l-.59-1.82-.3-.68h.08s-.09-.26-.09-.26l-.87-2.68c-1.12.78-1.32,2.19-1.36,2.76l-.11,1.88,2.13,1.95.51-.43c-.3.32-.62.62-.97.86l.12.35-.14-.15c-.04.06-.12.15-.2.24-.25.28-.42.47-.41.75l.02.24.13.12c3.8,3.4,6.46,1.08,8.42-.64.26-.23.14-.64.06-.9.66-.6,1.27-1.27,1.86-1.93.45-.5.89-.99,1.36-1.45,2.22-2.19,4.56-4.08,6.76-5.48,15.06-9.51,32.19-10.22,48.45-9.56,1.53.06,3.11.51,4.63.94,1.23.35,2.49.71,3.74.87.66.08,1.32.17,1.99.26,2.77.38,5.62.76,8.41.76,8.32-.02,17.04,1.74,27.45,5.52.12.05.17.13.26.38.11.28.25.67.66.81,1.37.5,2.79.93,4.16,1.35,2.33.71,4.73,1.44,6.95,2.51,1.37.66,2.74,1.54,4.07,2.39,1.76,1.13,3.58,2.29,5.49,3.03,5.12,1.98,10.42,3.68,15.55,5.32.86.28,1.74.56,2.62.84l.06.09c1.37.39,2.73.86,4.08,1.36,2.57.97,5.08,2.17,7.68,2.98,4.97,1.55,10.05,2.33,15.15,2.53,2.46.1,4.92.07,7.38,0,2.64-.08,5.29-.3,7.93-.27,1.68.02,3.36.06,5.04.07,8.24-1.44,17.34-4.01,26.16-8.47,8.15-4.12,16.08-9.03,23.87-14.29,3.02-2.04,6.15-4.05,9.07-6.32,2.6-2.01,4.45-4.43,7.71-4.29.53.02,1.07.11,1.59-.02.1-.02.2-.06.29-.09.42-.17.82-.45,1.23-.7,4.13-2.62,8.77-3.32,13.35-3.45,2.46.5,4.92,1.1,7.32,1.88.93.3,1.85.63,2.78.95,2.67.93,5.42,1.89,8.27,2.35,1.98.32,3.92.25,6.28-.21.85.21,1.77.53,2.75.88.82.29,1.66.58,2.36.77.52.21,1.04.42,1.56.63.72.28,1.45.58,2.2.89-.08.09-.17.16-.24.23-.52.47-1.11.86-1.74,1.27-1.27.84-2.59,1.72-3.5,3.36-.38.68-.6,1.46-.81,2.15-.15.5-.33,1.11-.49,1.36-1.68,2.5-3.42,5.08-3.89,9.03-.05.41-.12.83-.19,1.29-.05.31-.1.63-.15.94-.11.75-.3,1.56-.49,2.36-.43,1.79-.91,3.83-.62,5.89.65,4.62,3.06,9.25,6.8,13.04l.09.09c2.93,2.97,6.59,6.67,11.3,7.16l1.57.17c2.68.29,5.71.61,8.72.61,1.69,0,3.21-.1,4.65-.3,6.77-.96,10.68-3.09,11.96-11.58.29-1.93.44-3.86.44-5.73,0-.9-.03-1.81-.1-2.71l-.06-.77c-.07-.87-.14-1.77-.17-2.65-.03-.79-.38-1.44-.97-1.84-.83-1.41-1.54-3.01-2.29-4.69-.65-1.46-1.39-2.93-2.27-4.5-2.83-5.08-5.37-8.75-8.52-12.25-.64-.71-1.29-1.38-1.97-2.06,1.61-.62,3.08-1.31,4.61-2.36.19-.13.4-.27.52-.31.07-.02.15-.03.25-.05l.15-.03c.82-.15,1.59-.43,2.35-.71.54-.2,1.1-.4,1.63-.53,1.62-.39,3.23-.76,4.86-1.12l1.96-.45c4.09-.94,8.51-1.35,12.78-1.75l1.14-.11c.34-.03.8.08,1.3.2,4.42,1.06,9.94,1.11,16.91.15l.21-.03c.35-.05.71-.1,1.07-.13,2.8.96,5.64,1.79,8.51,2.5,3.32.83,6.68,1.52,10.05,2.08,3.1.51,6.21.92,9.34,1.21,4.19-.22,8.34-.78,12.43-1.57.95-.18,1.89-.44,2.8-.7.92-.26,1.88-.52,2.82-.7,10.81-2.05,19.98-5.75,27.26-11,8.09-5.83,14.27-13.56,19.46-24.3.1-.2.32-.39.56-.59.24-.2.48-.4.65-.66.12-.19.26-.38.39-.57.53-.76,1.08-1.54,1.15-2.39v-.16c.05-.5.09-.71.37-.8.1-.03.38.11.76.32.28.15.63.33,1.09.55,1.3.62,2.18,1.54,3.09,2.73l.17.22c.27.34.48.61.61,1,.06.18.11.39.16.61.16.66.34,1.41.86,1.87.78.69,1.63,1.34,2.44,1.96.88.67,1.79,1.36,2.59,2.1,5.5,5.07,11.48,10.39,18.83,14.77,12.08,7.2,23.04,12.66,34.47,17.18,14.65,5.8,30.04,9.12,48.41,10.44,9.34.67,18.94.79,28.21.9,1.89.02,3.78.05,5.65.07,1.34.02,2.67.02,4.01.02,1.47,0,2.95,0,4.42.02,3.85.07,7.51-.28,10.58-1.02,3.17-.76,6.48-1.39,9.67-2.01l2.33-.45c1.28-.25,2.57-.49,3.87-.73,6.26-1.17,12.74-2.38,18.67-4.55,1.24-.45,2.48-.91,3.73-1.37,3.56-1.31,7.25-2.67,10.83-3.88,1.59-.54,3.2-1.07,4.81-1.61,4.09-1.36,8.31-2.76,12.36-4.28l1.16-.43c4.71-1.76,9.57-3.58,14.17-5.46,6.92-2.82,15.11-6.08,23.45-8.84,9.43-3.12,18.74-5.72,27.67-7.71,1.11-.25,2.19-.63,3.24-.99,1.01-.35,2.05-.71,3.1-.95,1.47-.34,3.11-.31,4.68-.29,1.26.02,2.57.04,3.82-.13,1.6-.21,3.22-.65,4.78-1.07.98-.26,1.98-.54,2.96-.75,2.02-.43,4.67-.93,7.23-.94,1.01,0,2.03.13,3.11.27,1.86.24,3.79.5,5.62-.02.09-.03.19-.06.29-.09.32-.11.62-.21,1.03-.14.31.06.6-.07.86-.19.17-.08.35-.15.46-.15.11,0,.18.12.3.36.15.28.35.66.82.69,1.07.06,2.16-.19,3.22-.44.93-.22,1.89-.44,2.81-.44.81,0,1.61-.05,2.39-.11l.6-.04c1.19-.08,2.38.08,3.52.23.34.05.68.09,1.02.13,3.29.37,6.55,1.01,9.71,1.63,1.27.25,2.53.5,3.78.73.93.17,1.89.21,2.82.25.86.04,1.76.07,2.61.21,4.63.77,9.53,1.92,14.58,3.4.78.23,1.51.64,2.23,1.04.57.32,1.16.65,1.78.89l.19.07.14-.14c.07-.07.12-.18.31-.65.04-.11.09-.22.12-.31,1.35.39,2.69.88,3.99,1.36,1.39.51,2.83,1.04,4.29,1.45,5.87,1.64,10.37,3.59,13.37,5.8.34.25.6.71.87,1.19.37.66.75,1.34,1.43,1.6.59.23,1.27.13,1.94.03.66-.09,1.28-.18,1.72.04.84.42,1.29,1.44,1.73,2.43.21.47.43.96.68,1.37.53.86,1.05,1.67,1.56,2.47,1.62,2.52,3.14,4.89,4.26,7.87.45,1.2,0,3.18-.2,3.44-.52.67-.52,1.3-.51,1.8v.22c0,.62.08,1.15.52,1.8,0,.03-.02.06-.03.09-.06.17-.15.4-.01.59.08.11-.02.57-.23,1.55-.07.34-.16.75-.27,1.24-.03.14,0,.28.01.39.03.16.03.16-.02.19-.14.09-.28.21-.41.33l-.07.07s-.06.02-.1.03c-.2.06-.46.13-.49.37l-.02.15.09.1c.12.13.29.14.6.14.02,0,.03,0,.05,0-.05.13-.12.35.03.6.09.16.3.29.58.18q.1-.04.21.05c.09.07.22.17.42.22-.03.04-.06.08-.08.12-.23.33-.46.67-.62,1.02-.15.32-.29.65-.43.98-.54,1.25-1.06,2.44-1.82,3.2-1.58,1.59-6.07,1.57-8.75,1.56-.36,0-.7,0-.99,0-.49,0-.98.01-1.47.02-1.2.02-2.45.04-3.68,0-.31-.01-.6-.2-.91-.4-.18-.11-.35-.23-.54-.31-.12-.06-.25-.11-.37-.16-.49-.19-.53-.25-.51-.42l.05-.37-.38.03c-.92.06-2.02-.17-3.09-.4-2.43-.52-5.18-1.12-6.07,1.98-.07.24.12.42.39.67.05.05.1.09.1.09.21.36.4.74.6,1.13.1.2.2.39.3.59.49.94,1.25,1.66,1.99,2.35.3.28.59.55.85.83,3.84,4.12,8.21,5.81,14.17,5.47l.57-.03c4.61-.25,9.83-.54,13.79-5.16,2.25-2.63,2.73-6.11,3.24-9.8l.1-.74c.09-.61.26-1.22.44-1.81.24-.81.48-1.64.49-2.5,0-.66.02-1.37.02-2.11,0-1.44-.03-3.01-.13-4.64Zm-914.08,14.89l-.45-1.53.52,1.44s-.05.06-.07.08Zm.07-.09l-.53-1.46-.32-1.1h0s.89,2.5.89,2.5c-.02.02-.03.04-.05.06Zm333.46,1.54c1.81,2.49,3.12,5.85,4.38,9.11l.41,1.06c.45,1.14.98,2.49,1.53,3.8.08.19.12.38.14.57,0,.01-.01.02-.02.03-.22.4-.58,1.08-.52,1.99.04.68.14,1.34.23,1.92.05.33.1.65.14.96,0,.04.01.08.02.12-.48.21-.96.45-1.43.69-.73.37-1.49.75-2.17.92l-.93.24c-2.04.52-4.35,1.12-6.53,1.18-.33.02-.86-.2-1.43-.43-.41-.16-.83-.33-1.24-.45-.27-.08-.55-.18-.86-.3-.97-.36-1.93-.66-2.88-.94-1.68-.51-3.26-1-4.85-1.85-1.67-.89-3.21-1.82-3.78-3.34-.1-.27-.17-.55-.25-.86-.09-.34-.18-.69-.29-1.02-.19-.57-.44-1.08-.66-1.54-.21-.45-.41-.87-.53-1.27-.37-1.25-.12-2.73.18-4.43.23-1.33.48-2.79.41-4.28l.92-.23-.18-1.58c-.05-.43.35-1.05.77-1.47.24-.24.49-.46.75-.69.54-.48,1.16-1.01,1.68-1.75.47-.68.8-1.42,1.08-2.09.14-.32.27-.64.43-.95.79-1.54,2.66-3.08,4.07-3.87.64-.36,1.31.15,2.58,1.32.21.2.42.39.63.57,3.15,2.77,5.98,5.83,8.19,8.86Z"/>
  </g>
</svg>