<?xml version="1.0" encoding="UTF-8"?>
<svg id="Layer_2" data-name="Layer 2" xmlns="http://www.w3.org/2000/svg" viewBox="0 0 1048.13 1426.52">
  <defs>
    <style>
      .cls-1 {
        stroke: #686346;
        stroke-miterlimit: 10;
        stroke-width: .25px;
      }

      .cls-1, .cls-2 {
        fill: #686346;
      }

      .cls-2 {
        stroke-width: 0px;
      }
    </style>
  </defs>
  <g id="Layer_1-2" data-name="Layer 1">
    <path class="cls-1" d="m1047.64,1416.82c-.44-.98-.78-1.75-1.33-2.29-7.14-7.04-13.47-15.09-18.8-23.91-.89-1.47-1.86-2.83-2.89-4.27-2.04-2.85-4.15-5.79-5.47-9.53-1.24-3.54-3.05-6.98-4.8-10.29-1.1-2.1-2.25-4.27-3.26-6.48-2.31-5.06-4.45-10.3-6.52-15.37-.49-1.2-.98-2.41-1.48-3.61-.12-.29-.25-.58-.37-.88-.41-.96-.84-1.96-1.12-3.05-.56-2.15-1.17-4.34-1.77-6.45-1.24-4.43-2.53-9.01-3.42-13.63-1.1-5.75-1.83-11.65-2.54-17.36-.36-2.87-.72-5.84-1.13-8.74-.21-1.48-.2-2.96-.19-4.39,0-.84.01-1.63-.02-2.42-.08-1.88-.29-3.83-.5-5.71-.35-3.23-.71-6.58-.47-9.89.2-2.74.33-5.55.46-8.25.32-6.91.66-14.06,2.19-21.07.46-2.13.61-4.47.75-6.73.2-3.29.41-6.69,1.59-9.73,1.91-4.94,3.06-10.25,4.18-15.38.21-.97.42-1.94.63-2.9l.18-.81c1.31-5.89,2.66-11.97,4.3-17.88.64-2.32,1.16-4.75,1.66-7.11.36-1.68.72-3.43,1.14-5.13,1.13-4.63,2.43-9.27,3.69-13.75l.36-1.29c.31-1.11.6-2.23.89-3.35.56-2.15,1.13-4.37,1.86-6.52.93-2.75,1.94-5.51,2.92-8.18,1.39-3.79,2.83-7.71,4.03-11.62,1.14-3.73,2.02-7.65,2.86-11.44.68-3.02,1.38-6.15,2.21-9.19.59-2.14,1.27-4.26,1.94-6.32.88-2.71,1.78-5.51,2.44-8.3,1.22-5.17,2.38-10.7,3.67-17.4l.34-1.79c1.18-6.17,2.41-12.55,3.47-18.85.93-5.47,1.7-11.07,2.44-16.49.2-1.43.39-2.85.59-4.28.11-.8.24-1.6.36-2.4.27-1.69.54-3.43.66-5.12.12-1.75.07-3.5.01-5.35-.07-2.18-.13-4.44.11-6.67.26-2.42.78-4.81,1.27-7.13.63-2.92,1.22-5.67,1.35-8.48.16-3.39-.03-6.9-.21-10.29-.11-2.1-.23-4.26-.26-6.41-.09-5.49-.27-11.07-.45-16.47-.14-4.34-.29-8.83-.39-13.24-.02-.9-.04-1.8-.05-2.7-.06-3.83-.13-7.79-.59-11.61-.63-5.26-1.38-9.86-2.3-14.08-.36-1.64-.88-3.22-1.44-4.9-.6-1.79-1.21-3.64-1.6-5.55-.27-1.36-.28-2.76-.29-4.1-.01-2.53-.03-4.71-1.62-6.42-.41-.45-.49-1-.55-1.4-.01-.09-.02-.19-.05-.28-.3-1.21-.58-2.44-.84-3.62-.51-2.27-1.03-4.62-1.75-6.81-.45-1.37-1.1-2.67-1.78-4.05-.67-1.35-1.36-2.74-1.87-4.23-.57-1.66-.88-3.4-1.18-5.08-.37-2.05-.71-3.99-1.47-5.68-1.52-3.38-3.46-6.66-5.33-9.84-.71-1.21-1.43-2.42-2.12-3.63-.52-.92-1.15-1.78-1.81-2.69-.92-1.26-1.87-2.57-2.55-4.07-1.46-3.21-3.06-6.2-6.38-7.61-.87-.37-1.03-1.28-1.12-1.83-.02-.09-.03-.19-.05-.27-.81-1.32-1.79-2.78-2.92-3.82-.78-.71-1.55-1.43-2.32-2.15-2.05-1.91-4.16-3.88-6.33-5.71-1.71-1.45-2.83-2.5-2.78-3.92.05-1.51,1.45-2.54,3.08-3.73,6.87-5.03,11.36-10.91,13.74-17.99,2.09-6.21,3.93-11.81,5.35-17.57,1.76-7.11,3.54-14.73,4.68-22.32.71-4.71.68-9.68.65-14.48-.04-7.01-.22-14.14-.39-21.04l-.1-4.03c0-.33.03-.65.06-.92.02-.21.06-.52.04-.63-.27-1.09-.56-2.18-.86-3.26-.6-2.22-1.23-4.51-1.61-6.85-1-6.11-1.98-12.33-2.93-18.34-.59-3.74-1.18-7.47-1.78-11.21-.53-3.32-1.4-6.67-2.24-9.9-.27-1.02-.53-2.04-.78-3.06-.35-1.39-.85-2.81-1.33-4.18-.83-2.34-1.68-4.76-1.9-7.29-.36-4.13-1.35-8.11-3.3-13.29-1.09-2.89-2.15-5.78-3.22-8.68-1.45-3.95-2.96-8.04-4.49-12.03-1.3-3.39-2.73-6.81-4.12-10.11-.88-2.1-1.76-4.2-2.62-6.31-.7-1.72-1.27-3.5-1.83-5.23-.6-1.86-1.22-3.79-1.99-5.58-.54-1.26-1.1-2.5-1.66-3.74-.98-2.17-2-4.42-2.86-6.72-.43-1.13-.58-2.32-.72-3.46-.12-.99-.24-1.93-.53-2.73-.57-1.62-1.43-3.13-2.34-4.73-.69-1.21-1.4-2.46-1.98-3.78l-.05-.13c-.34-1.01-.52-2.09-.7-3.14-.18-1.05-.35-2.05-.66-2.96-.78-2.28-1.61-4.59-2.41-6.82-.81-2.25-1.65-4.58-2.43-6.9-.98-2.88-1.85-5.86-2.69-8.73-.29-.99-.58-1.99-.88-2.98-.71-2.39-1.48-4.82-2.22-7.16-.73-2.31-1.49-4.7-2.19-7.07-.77-2.59-1.38-4.94-1.85-7.19l-.15-.72c-.96-4.56-1.95-9.28-2.65-13.99-.15-1.01-.52-2.01-.92-3.07-.84-2.27-1.8-4.83-.68-7.98.5-1.4.28-3.78-.24-4.32-1.27-1.32-1.59-2.61-1.87-3.75l-.02-.07c-.26-1.03-.31-2.08-.36-3.1-.02-.35-.04-.69-.06-1.03-.09-1.15-.12-2.31-.15-3.43-.02-.63-.03-1.26-.06-1.9-.02-.54.17-.98.31-1.31.01-.03.02-.05.04-.08-.25-.89-.56-1.79-.86-2.66-.65-1.91-1.32-3.89-1.54-5.99-.33-3.28-.53-6.62-.73-9.85-.09-1.45-.17-2.9-.27-4.35-.12-1.76-.39-3.57-.65-5.32-.33-2.21-.67-4.5-.73-6.79-.13-4.49.03-9.05.18-13.45.11-3.14.22-6.39.22-9.57,0-1.62-.13-3.31-.27-4.95-.21-2.62-.43-5.33-.12-8,.79-6.82,2.23-13.4,3.52-18.95,2.2-9.41,4.91-19.34,8.27-30.33,1.12-3.65,2.78-7.08,4.39-10.41.84-1.73,1.7-3.52,2.47-5.3,3.2-7.4,7.81-13.45,11.9-18.4,3.13-3.78,7.04-7.54,11.62-11.17,4.28-3.39,8.92-6.3,13.42-9.11,1.1-.69,2.2-1.38,3.3-2.07,1.13-.72,2.82-1.61,4.44-1.03,1.02.36,1.78,1.2,2.25,2.5,2.68,7.32,7.38,13.31,12.06,18.69,2.43,2.79,5.79,4.34,9.25,4.24,3.25-.09,6.18-1.62,8.26-4.31.73-.94,1.24-2.75,1.12-3.96-.54-5.38-2.06-9.26-5.07-12.97-3.69-4.54-8.24-6.81-13.06-9.21-1.56-.78-3.18-1.58-4.75-2.46-.44-.25-1.15-.36-1.85-.47-1.25-.2-2.67-.43-3.49-1.59l-.65-.91c-2.53-3.51-5.14-7.14-5.35-12.29-.03-.06-.07-.12-.11-.18-.14-.23-.32-.52-.43-.88-.21-.7-.42-1.4-.64-2.11-1.89-6.22-3.85-12.65-3.43-19.62.06-.92-.05-1.79-.31-2.58-1.75-5.27-1.66-10.71-1.58-15.98.05-3.33.1-6.78-.33-10.07-.41-3.08-.34-6.25-.27-9.31.03-1.34.06-2.73.05-4.07,0-.77-.02-1.54-.03-2.31-.06-4.11-.11-8.35.49-12.44.14-.93.29-1.85.45-2.78.37-2.2.75-4.47.89-6.87.19-3.34.99-6.62,1.77-9.79.45-1.86.92-3.78,1.25-5.65.24-1.37.42-2.8.59-4.18.26-2.07.53-4.21,1.02-6.3.44-1.88,1.11-3.67,1.76-5.4.59-1.55,1.14-3.02,1.54-4.55.48-1.83.81-3.77,1.13-5.65.38-2.24.78-4.56,1.43-6.79,1.55-5.31,3.37-10.6,5.13-15.72.47-1.36.94-2.72,1.4-4.08.84-2.48,1.82-4.94,2.75-7.31.86-2.17,1.75-4.42,2.52-6.65,1.2-3.46,2.25-7.07,3.26-10.55.69-2.37,1.4-4.83,2.16-7.23.02-.12-.07-.56-.12-.83-.15-.75-.33-1.68.14-2.5,2.59-4.6,3.3-9.69,4.06-15.07.23-1.62.46-3.3.75-4.94.7-3.95,1.13-7.81,1.29-11.47l.04-.96c.19-4.13.38-8.41-.09-12.44-.56-4.89-1.89-9.67-3.31-14.54-1.37-4.69-2.93-9.26-4.89-14.89-.24.27-.55.61-.68.8.08,1.73.43,3.46.81,5.28.24,1.17.48,2.37.65,3.59.17,1.18.36,2.37.55,3.56.62,3.79,1.25,7.72,1,11.56-.16,2.42,0,2.73.51,3.07l.96.63-.44,1.08c-.48,1.17-.84,2.31-1.19,3.41l.2.85c.55,2.31.46,3.9-.28,4.85-.23.3-.44.55-.62.76-.14.16-.29.34-.37.46.04.12.13.33.32.72l.07.14c.28.55.66,1.31.59,2.2-.31,4.08-.8,8.19-1.27,12.17l-.22,1.84c-.07.59-.2,1.12-.33,1.63-.33,1.31-.53,2.1.34,3.33.85,1.2-.03,2.76-1.25,4.91-.44.78-.89,1.58-1.17,2.22-.03.08-.02.32.02.41,1.64,2.67.12,4.46-.95,5.36h.14s-.06,1.44-.06,1.44c-.02.57-.04,1.16-.06,1.75-.02.6-.04,1.19-.06,1.77l-.06,1.58-1.5-.28c-.12-.02-.21-.03-.26-.03-.07.18-.13.54-.17.77-.13.73-.4,2.23-1.65,2.81-.7,4.28-2.98,11.09-4.54,14.03-.13.25-.08,1.01-.04,1.62.05.71.1,1.51.02,2.37l-.02.19-.06.17c-.27.74-.63,1.52-1.01,2.36-.55,1.21-1.12,2.46-1.53,3.76-.55,1.75-1,3.58-1.43,5.36-.48,1.96-.98,3.99-1.62,5.96-.58,1.78-1.29,3.52-1.98,5.2-.42,1.03-.86,2.09-1.25,3.14-.2.53-.49,1.1-.77,1.65-.26.5-.67,1.31-.76,1.69,1.24,2.52.28,4.47-.43,5.9-.27.55-.53,1.07-.66,1.57-.19.73-.4,1.45-.61,2.17-.41,1.4-.79,2.72-1.04,4.07-.49,2.7-.85,5.5-1.19,8.21-.36,2.85-.73,5.79-1.27,8.67-.42,2.26-1.06,4.5-1.67,6.67-1.02,3.59-1.97,6.98-2.05,10.42-.06,2.7-.44,5.36-.8,7.92-.59,4.11-1.14,8-.5,12.07.35,2.22.04,4.46-.25,6.63-.2,1.48-.39,2.88-.38,4.25.02,4.71.38,9.51.72,14.16l.15,2.1c.2,2.81.58,5.67.94,8.44.24,1.84.49,3.75.69,5.63.23,2.18.32,4.4.4,6.56.16,3.93.3,7.63,1.23,11.12.37,1.41.72,2.83,1.07,4.25,1.4,5.73,2.86,11.66,6.04,16.66l.73,1.15-1.11.76c-.56.38-1.11.77-1.65,1.14-2.6,1.81-5.06,3.52-7.68,4.76l-.54.25c-1.64.76-2.94,1.37-4,2.92l-.26.39c-1.63,2.42-3.66,5.43-6.15,5.59-2.13.13-3.26,1.46-4.57,3-.81.95-1.65,1.94-2.78,2.69-.84.57-1.58,1.66-2.29,2.72-.83,1.24-1.62,2.41-2.74,3.06-.74.43-.99.89-1.37,1.6-.18.33-.39.71-.66,1.1-.45.64-.97,1.17-1.47,1.68-.48.49-.93.95-1.27,1.46-.66.99-1.29,2.09-1.89,3.15-1.37,2.4-2.79,4.89-4.81,6.65-1.12.98-1.46,2.3-1.87,3.83-.52,1.98-1.1,4.22-3.43,6.03-2.54,1.97-3.88,6.84-5.07,11.13-.23.82-.45,1.63-.67,2.4-.25.85-.55,1.68-.85,2.47-.76,2.06-1.48,4.01-1.34,6.44.17,3.04-.85,6.04-1.83,8.94-.42,1.24-.86,2.52-1.18,3.75-.45,1.74-.95,3.49-1.43,5.19-.72,2.53-1.46,5.15-2.05,7.75-.5,2.17-.83,4.4-.95,6.47-.11,1.89-.08,3.84-.05,5.74.03,2.06.06,4.19-.08,6.3-.16,2.42-.46,4.86-.75,7.21-.36,2.99-.74,6.09-.83,9.12-.12,3.86.17,7.84.46,11.68.11,1.44.21,2.88.3,4.32.12,2.05.23,4.11.33,6.16.25,4.92.51,10,1.03,14.96.31,2.96.84,5.97,1.34,8.89.67,3.85,1.37,7.84,1.6,11.83.43,7.45,1.46,14.01,3.15,20.07.41,1.47.69,2.98.96,4.44.26,1.4.53,2.86.91,4.25.96,3.5,1.58,7.14,2.17,10.66.58,3.4,1.17,6.92,2.07,10.24,3,11.08,6.52,22.1,9.87,32.43,3.68,11.35,6.82,20.72,9.91,29.51,1.05,3,2.25,6.02,3.4,8.94.55,1.39,1.1,2.77,1.63,4.16.08.2.26.45.45.71.28.38.59.82.8,1.38.68,1.83,1.29,3.7,1.89,5.52.92,2.8,1.86,5.7,3.05,8.37,3.37,7.62,7.2,16.26,9.68,25.32,1.04,3.79,2.26,7.6,3.45,11.29.97,3.02,1.97,6.15,2.87,9.26l.18.61c1.03,3.54,2.09,7.2,2.83,10.89.71,3.58,1.3,7.24,1.86,10.78.32,1.99.64,3.98.98,5.97.31,1.83.67,3.69,1.01,5.49.52,2.73,1.05,5.55,1.47,8.36.42,2.81.63,5.67.84,8.43.17,2.31.35,4.71.65,7.03.11.86.48,1.9.84,2.9.71,1.99,1.38,3.86.55,5.41-.69,1.28-.29,2.68.17,4.3.56,1.95,1.24,4.34-.44,6.55h0c.05,1.48.17,3,.28,4.47.22,2.77.44,5.64.24,8.49-.12,1.64-.13,3.31-.15,4.93-.01,1.31-.02,2.66-.09,3.98-.1,1.97-.58,3.87-1.04,5.7-.7,2.76-1.36,5.37-.76,8.12l.19.9-.73.53c-1.61,1.16-1.94,2.98-2.32,5.08-.26,1.46-.54,2.97-1.27,4.39-1.29,2.52-2.16,5.27-3.08,8.17-.57,1.82-1.17,3.7-1.87,5.51-.13.33-.33.57-.52.75.25,3.12-1.78,4.38-3.29,5.31-.48.3-.93.58-1.29.89-.84.73-1.6,1.62-2.4,2.56-.74.87-1.51,1.78-2.38,2.58l-.23.22-.3.08c-.31.09-.63.17-.96.26-1.51.39-3.06.8-4.27,1.68-4.24,3.09-8.9,4.12-15.11,3.32-.58-.07-1.18-.16-1.78-.25-4.76-.7-9.26-1.37-12.44,3.37-.24.35-.59.89-1.27,1.16-3.39,1.35-5.29,3.3-5.98,6.11-.11.47-.39.76-.54.91-.68,1.43-1.23,2.91-1.82,4.47-.22.58-.43,1.16-.65,1.73-.34.87-.23,2.07.3,3.22.51,1.11,1.32,1.97,2.11,2.24,2.23.74,4.33.35,7.26-1.35,2.23-1.3,4.47-2.67,6.64-4,3.9-2.39,7.94-4.87,12.07-7,2.37-1.22,5.98-2,8.29-.81.79.41,1.6.76,2.38,1.1.97.43,1.97.87,2.96,1.42,6.37,3.51,11.25,7.79,14.93,13.1,1.31,1.88,2.42,3.9,3.49,5.86.47.85.94,1.7,1.43,2.55,1.89,3.29,4.37,7.63,6.79,12.21.37.37.77.86,1.25,1.52,1.85,2.61,2.66,5.7,3.43,8.68.91,3.5,1.77,6.81,4.21,9.19.26.25.41.56.45.91.32,1.26.66,2.5,1,3.75.43,1.59.88,3.24,1.28,4.88,2.22,9.34,4.34,18.6,6.31,27.53.15.69.31,1.38.46,2.07,1.03,4.58,2.1,9.31,2.31,14.1.46,10.09.61,20.35.76,30.28l.08,5c.03,2.07.08,4.14.14,6.21.08,3.38.17,6.88.17,10.33,0,1.14-.31,2.24-.6,3.3-.31,1.1-.6,2.15-.42,2.87,1.05,4.36.78,8.54.52,12.59-.05.73-.09,1.46-.13,2.2-.22,4.12-.91,8.23-1.58,12.2-.46,2.72-.93,5.53-1.24,8.29-.07.66.08,1.45.24,2.29.22,1.16.45,2.36.19,3.57-.25,1.14-.81,2.13-1.36,3.08-1.19,2.08-1.65,3.07-.08,4.75.28.3.67.97.04,1.97-.02.03-.04.06-.06.09-.29,1.01-.53,2.09-.77,3.13-.67,2.92-1.36,5.95-3.03,8.26-1.13,1.56-1.08,2.81-1.01,4.55.01.27.02.54.03.81.01.64.2,1.47.38,2.28.37,1.67.76,3.39-.1,4.63-1.57,2.29-1.88,4.98-2.2,7.83-.24,2.13-.49,4.34-1.29,6.46-.29.76-.45,1.62-.62,2.53-.35,1.86-.74,3.93-2.3,5.5.34.52.6,1.11.49,1.82-.22,1.43-.4,2.92-.57,4.35-.35,2.96-.72,6.03-1.49,8.97-.43,1.63-1.26,3.06-2.06,4.44-.75,1.28-1.45,2.5-1.78,3.76-.17.67-.42,1.24-.64,1.74-.4.92-.72,1.64-.6,2.93.21,2.24-.66,4.5-1.51,6.69-.31.8-.6,1.56-.83,2.3-.01.05-.03.09-.05.14.31.65.49,1.42.09,2.14-.51.91-1.47.95-2.22.89-.04.6-.07,1.2-.09,1.79-.12,2.68-.25,5.46-1.35,7.91-2.78,6.19-5.37,12.32-6.41,19.22-.18,1.16-.63,2.23-1.08,3.25-.69,1.61-1.29,3-.75,4.51.35.96.25,1.72-.29,2.28-1.61,1.66-1.93,4.02-2.27,6.51-.22,1.6-.45,3.25-1.02,4.82-.53,1.44-.65,3.11-.78,4.88-.1,1.46-.21,2.98-.57,4.45-.75,3.11-1.76,6.16-2.74,9.12-.82,2.48-1.67,5.04-2.35,7.58-1.39,5.24-2.39,9.57-3.16,13.62-.67,3.54-1,7.24-1.32,10.83-.12,1.31-.23,2.63-.37,3.94-.11,1.09-.36,2.13-.61,3.14-.57,2.36-1.07,4.4.25,6.56.64,1.04.17,2.15-.25,3.12-.35.82-.71,1.68-.59,2.51.32,2.11-.02,4.24-.36,6.29-.24,1.48-.47,2.88-.46,4.25.02,2.54.26,5.16.49,7.69.15,1.61.3,3.28.4,4.94l.1,1.77c.24,4.2.49,8.54,1.13,12.69.28,1.82.55,3.65.82,5.47,1,6.76,2.03,13.75,3.64,20.44,1.42,5.92,3.36,12.13,6.27,20.16,3.46,9.53,6.43,16.63,9.64,23.05,4.19,8.38,9.08,16.49,13.73,24.01,2.41,3.89,5.25,7.59,8,11.17.93,1.21,1.86,2.42,2.77,3.63,2.67,3.56,5.66,7.15,9.14,10.96,1.58,1.74,3.06,2.76,5.42,2.6-.1-.23-.2-.44-.3-.65Zm-25.57-1117.49c.8.21,1.53.3,2.17.38,1.09.14,2.13.26,3.01.95,2.55,1.98,4.85,4.32,7.07,6.59.76.77,1.52,1.55,2.29,2.31,1.64,1.62,2.33,3.19,2.06,4.66-.27,1.42-1.39,2.55-3.35,3.36l-.45.19-.46-.15c-6.94-2.34-9.96-8.43-13.46-15.49l-1.77-3.56,2.89.78Z"/>
    <path class="cls-2" d="m75.75,1116.04c.82.85,1.61,1.79,2.44,2.68,1.16,1.25,2.38,2.41,3.82,3.09.82.39,1.71.62,2.69.63,2.11.01,3.22-1.5,4.27-3.41.15-.27.3-.55.45-.84.42-.79.64-1.54.71-2.27.13-1.22-.12-2.37-.48-3.5-.41-1.29-1.06-2.59-1.86-3.68-.26-.37-.55-.71-.84-1.02-1.35-1.45-2.71-2.91-4.09-4.33-.92-.95-1.85-1.88-2.8-2.78-.47-.45-.95-.9-1.43-1.33-.96-.87-1.95-1.71-2.95-2.5-.26-.2-.52-.4-.78-.6s-.52-.39-.78-.58c-1.54-1.16-2.98-2.36-3.93-4.42-.02-.05-.12.02-.31.08-.06.02-.13.04-.22.05-.05.44,0,.78.08,1.07.01.06.03.11.04.17.04.16.08.3.1.44.01.09.01.18,0,.26-.04.21-.18.42-.52.65h0c-.16-.24-.32-.46-.47-.67-.89-1.25-1.56-1.97-2.06-2.86-.08-.15-.16-.3-.24-.46-.68-1.47-1.25-3.01-1.81-4.55-.42-1.16-.83-2.32-1.28-3.46-.15-.38-.3-.76-.46-1.14-.91-2.18-1.73-4.4-2.46-6.65-.73-2.25-1.36-4.54-1.91-6.87-.37-1.55-.69-3.11-.98-4.69-.24-1.32-.45-2.64-.64-3.97-.33-2.21-.63-4.42-1.01-6.62-.5-2.85-1.08-5.69-1.51-8.56-.15-.96-.28-1.91-.38-2.88-.14-1.25-.31-2.51-.47-3.77-.11-.84-.21-1.68-.29-2.53-.04-.42-.08-.84-.11-1.26-.06-.84-.09-1.69-.08-2.53.01-1.34.04-2.67.07-4.01.03-1.34.07-2.67.12-4.01.09-2.67.21-5.34.33-8.01.12-2.67.25-5.34.36-8.01.11-2.67.21-5.34.28-8.01.04-1.79.17-3.57.34-5.35.06-.59.12-1.19.18-1.78.22-2.01.5-4.04.76-6.06.27-2.01.52-4.02.7-5.98.16-1.75.31-3.5.47-5.25.4-4.37.83-8.73,1.48-13.07.13-.87.27-1.74.42-2.6.12-.68.22-1.36.31-2.04.55-4.1.74-8.27,1.15-12.4.07-.69.14-1.38.23-2.06.22-1.77.47-3.55.76-5.31.29-1.77.6-3.52.94-5.27.14-.72.33-1.42.56-2.11.67-2.09,1.59-4.11,1.95-6.26.28-1.67.52-3.35.75-5.04.46-3.37.85-6.75,1.29-10.13.11-.84.22-1.69.34-2.53.12-.84.24-1.68.37-2.52.21-1.35.66-2.66,1.03-3.97.22-.79.42-1.58.53-2.4.5-3.83.93-7.67,1.33-11.52.41-3.85.79-7.69,1.2-11.54.66-6.15,1.51-12.28,2.04-18.45.06-.7.1-1.4.13-2.1.06-1.4.08-2.8.14-4.21.03-.7.06-1.4.12-2.1.26-3.39.57-6.77.88-10.16.16-1.69.31-3.38.46-5.08.15-1.69.29-3.39.42-5.08.03-.4.05-.79.06-1.19.1-2.77-.13-5.58,0-8.35.16-3.31.64-6.6.76-9.91.2-5.24.18-10.48.3-15.72.08-3.85.21-7.7.24-11.55,0-1.28,0-2.57,0-3.85-.03-2.29-.08-4.57-.12-6.86-.02-1.14-.04-2.29-.05-3.43-.02-4.28-.31-8.57-.25-12.85,0-.39,0-.78-.02-1.17-.05-1.17-.17-2.34-.17-3.51,0-1.14.11-2.29.23-3.44.21-1.92.46-3.83.3-5.71-.38-4.35-1.32-8.64-1.75-12.99-.1-.98-.2-1.95-.31-2.93-.21-1.95-.42-3.91-.6-5.86-.09-.98-.17-1.96-.23-2.94-.25-3.84-.38-7.69-.71-11.52-.18-2.02-.5-4.03-.79-6.04-.1-.67-.19-1.34-.27-2.01-.15-1.24-.28-2.49-.41-3.73-.38-3.74-.71-7.49-1.31-11.18-.25-1.54-.5-3.08-.74-4.61-.49-3.08-.99-6.15-1.52-9.22-.27-1.53-.54-3.06-.83-4.59-.49-2.62-1.11-5.21-1.72-7.8-.62-2.59-1.23-5.18-1.74-7.79-.19-.96-.32-1.92-.52-2.87-.07-.32-.14-.63-.23-.94-.84-2.91-1.61-5.84-2.38-8.78-.65-2.48-1.29-4.96-1.92-7.45-.21-.83-.42-1.66-.63-2.49-.02-.09-.05-.18-.09-.27-.18-.44-.48-.83-.7-1.25-.04-.08-.08-.17-.12-.26-.03-.09-.06-.18-.08-.27-.17-.77-.28-1.55-.36-2.34-.14-1.32-.24-2.65-.52-3.93-.32-1.41-.92-2.74-1.45-4.07-.08-.19-.15-.38-.22-.57-.09-.23-.18-.46-.28-.69-.1-.23-.2-.45-.31-.68-.22-.45-.44-.89-.67-1.33-.34-.66-.67-1.33-.93-2.02-.09-.23-.17-.47-.24-.7-.26-.84-.48-1.69-.68-2.55-.1-.43-.2-.86-.3-1.29-.49-2.15-.97-4.32-1.74-6.32-.98-2.52-2.01-5-3.07-7.47s-2.15-4.92-3.23-7.39c-.07-.15-.14-.36-.2-.58-.04-.15-.07-.3-.09-.45-.03-.22-.02-.43.05-.58.93-2.01,1.74-4.23,2.82-6.11.36-.63.75-1.22,1.18-1.75.63-.77,1.22-1.57,1.77-2.39,1.94-2.88,3.46-6.03,4.8-9.3.19-.47.38-.93.56-1.4.37-.94.73-1.89,1.08-2.83.35-.95.7-1.9,1.04-2.85.34-.95.69-1.9,1.04-2.84.68-1.83,1.2-3.75,1.62-5.72.17-.79.32-1.58.46-2.38.07-.4.14-.8.2-1.21.52-3.23.89-6.52,1.37-9.74.2-1.35.39-2.71.56-4.07.52-4.08.92-8.19,1.27-12.31.57-6.63,1.31-13.26,1.72-19.91.25-4.13.22-8.3.24-12.45,0-.39-.01-.77-.02-1.16-.04-2.71-.24-5.42-.58-8.08-.37-2.87-.93-5.7-1.51-8.52-.19-.94-.39-1.88-.59-2.82-.67-3.23-1.25-6.5-1.97-9.71-.14-.64-.29-1.28-.44-1.92-.31-1.28-.64-2.54-1.01-3.79-1.39-4.66-3.4-9.05-4.79-13.69-.2-.66-.38-1.33-.55-2-.42-1.69-.9-3.25-1.52-4.73-.15-.37-.32-.73-.49-1.09-.52-1.08-1.13-2.12-1.86-3.13-.1-.14-.17-.33-.23-.55-.14-.58-.13-1.34-.16-1.85-.02-.32-.05-.54-.15-.55-.62-.07-.87-.61-1-1.29-.03-.14-.05-.28-.07-.42-.04-.29-.07-.59-.11-.88-.06-.43-.13-.84-.27-1.15-.09-.21-.22-.37-.4-.47-.09-.05-.19-.08-.3-.1-.23-.03-.51.02-.87.16h0c-.2-.62-.37-1.25-.53-1.89-.08-.32-.16-.64-.24-.95-.31-1.27-.63-2.53-1.1-3.7-.12-.29-.25-.58-.39-.86-.56-1.11-1.21-2.16-1.9-3.19-.46-.69-.94-1.38-1.42-2.07-.24-.35-.49-.7-.73-1.05-.49-.71-.98-1.42-1.46-2.17-.01-.07-.01-.18-.02-.3,0-.2,0-.45,0-.73-.01-.34-.05-.7-.16-1.04-.03-.11-.08-.22-.13-.32-.37-.74-.76-1.47-1.15-2.19-.79-1.44-1.61-2.87-2.4-4.31-.4-.72-.78-1.45-1.16-2.18-1.02-2.01-1.71-4.24-2.42-6.46-.36-1.11-.72-2.22-1.12-3.31-.68-1.8-1.5-3.52-2.65-5.02-.46-.6-.98-1.16-1.56-1.69-.04-.03-.08-.07-.12-.12-.63-.65-1.59-2.21-.79-3.98.04-.08.03-.23,0-.4-.1-.51-.46-1.27-.75-1.49-.33-.25-.61-.52-.86-.81-.86-1.03-1.25-2.34-1.57-3.7-.18-.78-.34-1.57-.54-2.33-.15-.57-.33-1.13-.57-1.66-.61-1.35-1.15-2.76-1.65-4.2-.83-2.39-1.56-4.86-2.38-7.27-.88-2.6-1.55-5.21-1.92-7.96-.06-.46-.12-.92-.16-1.39-.05-.47-.08-.94-.11-1.41-.06-.97-.16-1.93-.3-2.89-.07-.48-.15-.96-.23-1.44-.17-.96-.36-1.91-.55-2.87-.29-1.43-.58-2.86-.81-4.3-.29-1.84-.76-3.69-.78-5.52-.01-.99,0-1.98,0-2.97,0-.99.02-1.98.04-2.97.03-1.98.07-3.96.06-5.95-.03-5.29-.5-10.62-.37-15.89.02-.75.05-1.5.09-2.25.16-2.7.49-5.44.95-8.14.11-.68.24-1.35.37-2.02.4-2.01.87-3.99,1.4-5.92,1.25-4.5,2.13-9.2,3.75-13.59.29-.8.61-1.58.96-2.36.53-1.16,1.12-2.29,1.81-3.37.2-.32.38-.64.56-.99.17-.34.33-.69.48-1.05.9-2.17,1.44-4.67,2.22-6.95.32-.14.6-.2.92-.35h0s0,0,0,0c.11.36.24.7.37,1.05.13.34.26.69.37,1.05.3-1.11.27-2.26.34-3.26.04-.6.12-1.16.33-1.62.19-.43.39-.86.58-1.29,1.17-2.59,2.36-5.2,3.87-7.49.25-.38.51-.75.78-1.12,1.47-1.97,3.13-3.74,4.81-5.49,1.68-1.75,3.38-3.48,4.93-5.37,1.69-2.06,3.51-4.3,4.57-6.83,2.86-6.82,5.36-13.87,7.97-20.83.69-1.84,1.29-3.62,1.94-5.52h0s0,0,0,0c.47.49.45.6.49.64.31-1.5.58-3.01.87-4.51.48-2.5,1.02-4.96,1.9-7.21.18-.47.36-.92.52-1.37.49-1.34.87-2.6.96-4.05.02-.28.03-.56.04-.84.03-.56.06-1.12.12-1.68.03-.28.07-.56.11-.84.21-1.25.42-2.51.59-3.76.09-.63.16-1.26.22-1.88.06-.63.1-1.26.12-1.89.02-.61.09-1.26.22-1.93.19-1.01.5-2.08.9-3.17s.89-2.21,1.46-3.33c.2-.39.21-.92.17-1.49-.01-.14-.03-.28-.04-.43-.05-.43-.11-.86-.14-1.24-.13-1.93-1.22-4.36-.62-5.82,1.23-2.99.39-5.79.57-8.67.05-.72.08-1.45.1-2.17s.04-1.45.04-2.17c.01-2.18-.04-4.36-.13-6.54-.03-.73-.06-1.46-.09-2.18-.06-1.46-.12-2.91-.17-4.36-.03-1.04-.21-2.06-.39-3.09-.05-.26-.09-.51-.14-.77-.14-.77-.26-1.54-.32-2.32-.26-3.5-.27-7.03-.65-10.51-.32-2.84-.6-5.69-.9-8.53-.27-2.52-.54-5.04-.85-7.56-.5-4.03-1.07-8.05-1.67-12.06-.05-.35-.1-.71-.15-1.06-.11-.74-.25-1.48-.41-2.21-.47-2.2-1.11-4.35-1.79-6.48-.05-.14-.1-.28-.15-.43-.64-1.93-1.45-3.78-2.15-5.7-.5-1.38-.95-2.79-1.39-4.2-.44-1.41-.87-2.83-1.34-4.23-.31-.93-.64-1.85-1-2.76-.5-1.28-1.11-2.49-1.75-3.7-.78-1.48-1.6-2.95-2.32-4.47-.71-1.52-1.33-3.13-1.95-4.73-1.03-2.67-2.07-5.33-3.6-7.52-.89-1.28-1.84-2.5-2.81-3.7-2.93-3.58-6.16-6.87-9.2-10.32-1.35-1.54-2.87-3.08-4.55-3.98-.6-.32-1.21-.6-1.83-.86-.93-.39-1.88-.72-2.84-1.03-.96-.31-1.92-.59-2.87-.89-.18-.06-.38-.08-.58-.08,0,0-.02,0-.02,0-.4.01-.82.13-1.19.32-.19.1-.37.21-.52.34-.44.37-.89.76-1.34,1.15-1.06.93-2.12,1.92-3.11,2.93.22.64.48,1.23.8,1.75.16.26.32.5.5.73.9,1.12,2.09,1.8,3.61,1.89,1.29.08,2.55.67,3.79,1.25.07.03.14.06.21.1.46.21.91.44,1.35.67.88.47,1.74.99,2.56,1.55,4.39,3,7.91,7.21,10.94,12.03.65,1.03,1.28,2.09,1.88,3.17.1.18.19.36.29.54,1.77,3.31,3.05,7.06,4.62,10.8.02,0,.03,0,.04.01.06.03.1.15.16.3.02.05.03.09.06.14.27.63.58,1.23.91,1.83,1.05,1.91,2.31,3.71,3.06,5.64.1.25.19.51.27.77.15.47.25.94.32,1.43.05.32.08.65.09.98.01.56-.04,1.14-.16,1.74.17.17.34.32.51.46.34.28.66.53.91.8.02.03.04.06.06.09.1.11.19.23.26.36.23.43.41.91.57,1.4.09.3.18.61.26.92.05.19.1.39.15.58.29,1.11.57,2.22.85,3.33.55,2.23,1.07,4.46,1.57,6.7.25,1.12.5,2.24.74,3.37.3,1.4.12,3.02.28,4.44.03.24.06.47.11.7s.11.44.19.65c.43,1.17.78,2.37,1.06,3.57.19.8.34,1.61.47,2.43.73,4.48.79,9.09,1.37,13.59.44,3.48.53,7.02.67,10.56.02.51.04,1.01.07,1.51.17,3.61.23,7.23.35,10.85.05,1.45.11,2.89.19,4.33.04.72.09,1.44.14,2.16.03.42.04.83.04,1.24,0,.82-.07,1.63-.14,2.43-.02.2-.03.4-.05.6-.05.6-.09,1.21-.1,1.81,0,.2,0,.4,0,.61.02,1.01.13,2.04.46,3.1.18.6.36,1.25.49,1.91.09.44.16.89.2,1.34.07.67.07,1.32,0,1.92-.34,2.62-.86,5.2-1.32,7.8-.11.65-.22,1.3-.32,1.95-.3,1.96-.53,3.94-.57,5.96-.04,1.93-.9,3.84-1.2,5.8-.42,2.7-.77,5.43-1.14,8.15-.06.45-.75.69-.99,1.13-.1.19-.2.39-.29.59-.27.61-.47,1.26-.63,1.89-.15.61-.24,1.25-.32,1.89-.12,1.07-.21,2.15-.52,3.14-.91,2.92-1.96,5.81-3.08,8.94h0c-.17-.02-.86-.2-1.43-.29-.08-.01-.16-.02-.24-.03-.02.06-.05.13-.08.21-.03.08-.07.16-.11.25-.06.13-.11.25-.16.36-.01.04-.03.08-.04.1.31.23.66.4.94.52.28.12.48.19.49.19-.75,2.49-1.53,4.85-2.3,7.18-.26.78-.52,1.55-.78,2.32-.03.09-.06.18-.09.28-.12.38-.24.81-.36,1.23-.34,1.16-.73,2.27-1.27,2.37-.42.07-.72.15-.94.27-.11.06-.19.12-.26.19-.03.04-.06.08-.09.12-.22.37-.09.97.04,1.99.15,1.12-.87,3.11-1.45,3.24-3.36.75-4.3,3.93-5.05,7.32-.02.1-.15.05-.37.13-.04.02-.09.04-.14.07-.1.06-.21.15-.34.28h0s0,0,0,0c-.21-.55-.59-1.04-.94-1.95-.24.45-.46.89-.66,1.34-.2.44-.4.88-.58,1.31-.12.29-.23.57-.35.85-.45,1.12-.87,2.18-1.4,3.15h0c-.05-.01-.11-.03-.18-.05-.07-.02-.14-.05-.21-.08-.46-.18-1.08-.47-1.49-.57-.02.31-.03.63-.03.95,0,.31,0,.62,0,.89,0,.27-.01.51-.05.71-.04.19-.1.33-.2.4-.48.33-.9.72-1.27,1.16-.25.29-.48.6-.69.93-.11.16-.21.33-.31.5-.4.67-.75,1.4-1.09,2.12s-.67,1.46-1.02,2.15c-.18.35-.36.69-.56,1.01-.5.82-.97,1.68-1.41,2.55s-.86,1.76-1.28,2.66c-.83,1.8-1.63,3.62-2.53,5.36-.15.29-.34.55-.55.79-.43.5-.93.94-1.32,1.45-.19.25-.35.52-.46.82-.22.63-.4,1.29-.55,1.95-.08.33-.15.67-.22,1-.14.67-.26,1.35-.4,2.03-.2,1.01-.43,2.01-.75,2.97-.3.89-.65,1.76-1,2.62-.48,1.15-.96,2.29-1.34,3.48-.09.3-.18.6-.26.9-.15.59-.29,1.19-.44,1.78-1.03,4.15-1.92,8.35-2.65,12.59-.85,4.92-1.51,9.87-1.88,14.87-.16,2.22-.39,4.46-.43,6.71,0,.45,0,.9,0,1.36.02.91.08,1.82.2,2.73.3,2.28.48,4.59.62,6.91.05.77.09,1.54.12,2.32.07,1.55.14,3.1.21,4.65.07,1.55.15,3.1.25,4.64.31,4.78.76,9.58,1.48,14.31.42,2.73,1.62,5.29,2.14,8.01.11.57.21,1.15.3,1.73.09.58.17,1.16.25,1.75.15,1.17.29,2.35.43,3.51.07.58.15,1.17.23,1.75.25,1.74.56,3.46,1.05,5.1,1.02,3.46,2.37,6.78,3.77,10.08.28.66.56,1.32.84,1.98.56,1.32,1.13,2.63,1.67,3.95.59,1.44,1.18,2.87,1.78,4.3,1.2,2.86,2.42,5.71,3.68,8.54.63,1.41,1.27,2.82,1.92,4.22,3.76,8.1,7.95,15.92,11.73,24,1.22,2.62,2.27,5.4,3.34,8.13.15.39.31.78.46,1.17,0,.11,0,.23.01.35.04.35.18.72.34,1.11.93,2.21,1.91,4.4,2.85,6.61.47,1.1.93,2.21,1.37,3.33s.86,2.25,1.25,3.39c1.62,4.75,3.15,9.56,4.56,14.41.47,1.62.93,3.24,1.37,4.87.13.49.26.98.39,1.46.26.98.51,1.95.75,2.93.24.98.47,1.96.69,2.95.22.98.42,1.97.62,2.96.38,1.98.7,3.98.94,6.01.24,2.02.39,4.07.45,6.15.01.52.02,1.04.02,1.56,0,3.61.82,7.22,1.08,10.83.04.52.06,1.03.08,1.55.04,1.96-.17,3.92-.35,5.88-.11,1.18-.21,2.36-.24,3.54-.02.74.12,1.48.26,2.22.05.25.09.5.14.75-.07.17-.15.34-.22.52-.08.18-.15.37-.23.55-.45,1.13-.83,2.36-.55,3.28.48,1.62-.44,3.2-.65,4.74-.02.15-.04.31-.04.46-.02.46.05.92.25,1.37.14.3.33.6.61.9-1.41,2.11-.72,4.85-.84,6.92,0,.16-.02.31-.04.46-.04.3-.1.58-.2.84-.09.25-.18.49-.26.74-.63,1.99-.79,4.04-.99,6.06-.17,1.77-.36,3.51-.9,5.16-.12.36-.26.71-.41,1.05-.15.34-.3.67-.43,1-.04.11-.09.22-.12.33-.31.88-.43,1.77.09,2.8.06.13.14.26.22.39.05.08-.19.32-.36.55-.03.04-.05.08-.08.11-.02.04-.04.07-.05.11-.21.56-.41,1.13-.61,1.7-.98,2.85-1.83,5.77-2.85,8.59-.2.56-.41,1.13-.63,1.68-.22.56-.45,1.11-.69,1.65-.19.44-.4.88-.61,1.31-1.5,3.01-3.44,5.74-5.19,8.55-.07.11-.16.23-.26.34-.62.67-1.7,1.23-2.07,1.26-.03,0-.06,0-.08,0-.02,0-.04-.01-.04-.03-.74-1.16-1.8-1.89-2.78-2.77-.59-.53-1.16-1.12-1.63-1.88-.72-1.17-1.43-2.34-2.16-3.5-.24-.39-.49-.77-.73-1.16-1.47-2.31-3.01-4.56-4.71-6.65-.28-.35-.57-.69-.86-1.03-.58-.68-1.19-1.34-1.81-1.97-.31-.32-.63-.63-.96-.94-.65-.61-1.32-1.2-2.03-1.76-.34-.27-.67-.51-1-.73-1.32-.88-2.6-1.4-3.94-1.66-.67-.13-1.35-.2-2.06-.21-.35,0-.72,0-1.08.02h0c-.34.02-.77-.26-1.24-.56-.09-.06-.19-.12-.29-.18-.19-.12-.39-.22-.59-.31-.99,1.75-2.03,3.58-3.06,5.4-.77,1.36-1.54,2.72-2.28,4.02-.25.43-.49.86-.73,1.28.03.14.07.28.12.43.19.58.51,1.18.71,1.67.15.37.22.67.12.85-.62,1.14-.99,2.27-1.18,3.4-.14.84-.19,1.68-.16,2.52.07,2.51.76,4.99,1.22,7.47.13.7.32,1.38.56,2.05.47,1.34,1.11,2.64,1.72,3.93.31.65.61,1.3.88,1.95.26.62.54,1.23.84,1.82.15.3.31.59.47.88.32.58.67,1.14,1.03,1.68.73,1.08,1.54,2.09,2.41,3.01.65.69,1.34,1.33,2.06,1.91.48.39.97.75,1.48,1.08,1.76,1.17,3.67,1.99,5.65,2.38.28.06.57.1.85.14.57.07,1.15.11,1.72.11,1.16,0,2.33-.16,3.5-.49,1.17-.33,2.34-.84,3.49-1.53.13-.08.27-.15.4-.22.13-.06.26-.12.39-.16.26-.09.51-.15.75-.18.12-.01.24-.02.36-.01.12,0,.23.01.35.03.34.06.67.18.97.37.2.13.4.28.58.46.46.45.86,1.07,1.2,1.83.63,1.46,1.28,2.91,1.92,4.36,1.94,4.35,3.91,8.7,5.81,13.07,1.66,3.83,2.16,8.18,3.25,12.28.36,1.37.79,2.71,1.35,3.99.3.7.59,1.4.87,2.1.14.35.27.71.4,1.07.52,1.43.99,2.88,1.39,4.36.1.37.19.74.28,1.11.27,1.12.5,2.25.68,3.4.3,1.91.47,3.86.49,5.86,0,.71.2,1.5.61,1.92,1.03,1.05,1.7,2.28,2.17,3.61.28.8.49,1.63.65,2.48.11.57.2,1.14.29,1.72.04.29.08.58.12.87.08.58.15,1.16.23,1.73s.17,1.14.27,1.7c.05.28.11.56.17.83.19.87.37,1.75.56,2.62.93,4.37,1.79,8.76,2.57,13.18.31,1.77.61,3.53.9,5.3.31,1.91.62,3.82.92,5.73.91,5.74,1.77,11.48,2.63,17.23.52,3.46.77,6.98,1.29,10.44.05.36.13.73.21,1.1.52,2.23,1.48,4.57,1.41,6.59-.01.34-.05.66-.13.98-.24.99-.43,1.97-.57,2.93-.05.32-.08.64-.12.95-.13,1.25-.14,2.45,0,3.54.89,6.76,1.75,13.4,1.39,20.28-.03.59.04,1.19.14,1.79.13.8.32,1.6.4,2.4.02.2.03.4.04.6.02.84.02,1.67.02,2.51,0,2.51-.06,5.03-.03,7.54.05,4.1.1,8.2.1,12.3,0,1.37,0,2.73-.02,4.1,0,.63-.03,1.26-.06,1.89s-.07,1.26-.11,1.89c-.08,1.26-.14,2.52-.12,3.77.04,2.03.61,4.17.76,6.17.01.18.02.36.03.54.03.72-.01,1.41-.17,2.07-.12.52-.22,1.03-.31,1.55-.17,1.03-.28,2.04-.35,3.05-.07,1.01-.1,2.02-.1,3.02-.01,1.51.03,3.02.04,4.54,0,.26.01.52.03.78.03.52.08,1.04.14,1.56s.11,1.04.16,1.55c.07.78.1,1.55.03,2.31-.12,1.5-.3,3-.49,4.49-.18,1.5-.37,2.99-.5,4.49-.17,1.95-.22,3.92-.23,5.9,0,.36.03.74.06,1.12.01.13.02.25.03.38.03.5.04,1-.07,1.45-.03.14-.07.27-.11.41s-.08.28-.13.41c-.62,1.93-1.65,3.9-1.28,5.48.08.35.15.71.21,1.06.45,2.82.05,5.57-.39,8.31-.39,2.4-.82,4.78-.75,7.18.07,2.54-.06,5.1-.25,7.65-.06.85-.13,1.7-.19,2.55-.16,2.02-.29,4.03-.42,6.08-.05.68-.09,1.37-.14,2.07.1.06.18.1.31.17.08.05.19.11.33.19.21.12.51.29.96.54-.18.02-.34.05-.49.09-.46.1-.81.25-1.08.42-1.09.72-.87,2-.78,3.41.02.26.05.53.09.79.27,1.72.89,3.48.05,5.41-.07.15-.14.3-.22.45-.3.55-.61,1.19-.9,1.88-.21.52-.41,1.06-.57,1.6-.5,1.62-.73,3.26-.29,4.3.06.15.12.29.17.42.1.26.18.49.23.7.24.9.05,1.21-.18,1.39-.1.08-.21.13-.29.19-.65,3.59-1.21,7.14-1.78,10.64-.23,1.4-.45,2.79-.68,4.18-.23,1.38-.47,2.76-.71,4.13-.25,1.37-.5,2.73-.77,4.08-.68,3.38-1.46,6.72-2.41,10-.02.24.08.5.2.77.08.18.18.36.26.55.12.27.21.54.18.79-.23,1.85-.58,3.66-.92,5.47-.06.3-.11.61-.17.91-.49,2.73-.88,5.48-.71,8.41.01.25-.01.51-.06.79-.08.46-.22.96-.34,1.49-.07.32-.13.64-.16.97-.05.55-.03,1.12.16,1.7.05.16-.63.48-.91.8-.04.05-.07.09-.09.14-.19.47-.38.99-.5,1.51-.04.17-.07.35-.09.52-.04.33-.06.66-.06,1,0,1.01.14,2.04-.02,3.02-.02.13-.05.26-.09.38-.19.63-.55,1.23-.78,1.84-.09.25-.16.5-.18.75-.37,3.8-.31,7.66-.69,11.46-.46,4.54-1.41,9.02-1.89,13.56-.16,1.49-.21,2.99-.25,4.49-.04,1.5-.06,3.01-.17,4.5-.17,2.35-.35,4.7-.52,7.05-.18,2.35-.36,4.7-.54,7.04,0,.12-.05.25-.1.37-.05.12-.13.25-.21.36-.04.06-.08.11-.13.16-.09.1-.18.18-.27.25-.04.03-.09.06-.13.08-.49.23-.78.38-.93.54-.09.11-.12.23-.09.39.02.08.05.17.09.27.09.2.23.45.41.79.08.14.14.29.2.44.18.46.27.98.28,1.46,0,.59,0,1.18-.02,1.77-.03.89-.08,1.77-.13,2.65-.05.88-.11,1.77-.16,2.65-.1,1.9-.12,3.82,0,5.69.03.39.07.78.12,1.17.1.78.24,1.56.38,2.35.14.78.28,1.56.38,2.33.16,1.16.23,2.3.11,3.41-.21,1.83-.18,3.61-.04,5.37.02.29.05.59.08.88.06.58.13,1.16.2,1.74.26,2.03.58,4.05.76,6.09.19,2.05.55,4.08.94,6.09.24,1.21.49,2.42.73,3.63.26,1.34.52,2.69.77,4.04.51,2.7,1.03,5.39,1.63,8.05.3,1.33.63,2.65.99,3.96,1.6,5.86,3.43,11.62,5.31,17.37.03.08.05.16.08.24.08.23.15.44.21.61.03.12.06.23.07.32.03.24-.03.42-.25.54-.22.12-.6.19-1.22.22-.93.04-1.86.48-2.77,1.03-.23.14-.46.28-.68.43-.68.44-1.36.89-2.04,1.24-.44.23-.9.51-1.36.82-.46.31-.93.63-1.39.93-.91.6-1.76,1.1-2.43,1.15-1.05.09-1.99.35-2.85.72-1.55.67-2.88,1.7-4.25,2.73-.31.23-.61.46-.93.69-.19.13-.36.27-.53.42-.34.29-.65.61-.93.95-.14.17-.28.35-.42.53-.54.73-1.01,1.56-1.52,2.48-.16.3-.34.58-.54.84-.59.8-1.31,1.5-2.06,2.18-1,.91-2.04,1.79-2.86,2.87-1.05,1.38-2.04,2.87-3.02,4.34-.25.37-.49.73-.74,1.1-.74,1.09-1.49,2.15-2.26,3.14-.86,1.1-1.63,2.25-2.33,3.43-.23.4-.46.79-.68,1.2-2.66,4.83-4.42,10.17-6.99,15.04-.21.41-.36.87-.48,1.37-.07.33-.13.68-.18,1.03-.05.35-.08.72-.12,1.08-.03.36-.07.72-.1,1.08-.13,1.25-.33,2.41-.91,3.19-.7.94-1.19,1.94-1.58,2.96-.46,1.23-.76,2.51-1.09,3.78-.27,1.06-.56,2.11-.96,3.12-.13.33-.62.49-.99.69-.07.04-.14.08-.21.12-.12.09-.21.18-.24.31-.55,2.47-1.18,4.93-1.71,7.41-.41,1.93-.76,3.86-.96,5.82-.21,2.12.03,4.23-.42,6.34-.07.3-.14.6-.24.9-.1.3-.18.61-.26.92-.3,1.25-.46,2.57-.6,3.9-.11,1-.21,2.01-.36,2.99-.2,1.32-.43,2.64-.66,3.93-.24,1.29-.49,2.55-.75,3.74-.03-.03-.14-.14-.27-.26-.13-.12-.27-.26-.35-.34-.15.34-.2.84-.14,1.12.07.34.21.69.35,1.03.19.46.4.93.45,1.36.01.11.02.22,0,.32-.07.9-.15,1.81-.23,2.71-.53,6.32-1.01,12.63-.53,18.98.02.2.02.4.01.6-.03,1.42-.51,2.88-.82,4.26.2.68.53,1.43.77,2.17s.39,1.44.24,2.05c-.26,1.02-.42,2.04-.5,3.06-.12,1.36-.1,2.71-.03,4.06.18,3.04.69,6.06.84,9.08.02.33.1.64.21.96.28.79.77,1.56.99,2.37.04.16.08.32.09.49.03.27.05.54.05.82.01.55-.02,1.11-.06,1.67-.1,1.4-.27,2.81-.03,4.12.21,1.14.45,2.27.72,3.4.79,3.38,1.76,6.71,2.5,10.1,1.13,5.19,1.76,10.53,3,15.68.86,3.59,2.11,7.05,3.08,10.6.15.55.29,1.1.43,1.65.14.55.28,1.1.41,1.66.81,3.33,1.58,6.68,2.7,9.84,1.39,3.89,1.94,7.93,4.54,11.5.98,1.34,1.64,3,2.24,4.73.12.35.24.69.35,1.04.23.7.46,1.4.71,2.09.16.31.33.6.52.89.56.86,1.21,1.67,1.69,2.58.21.39.23.89.44,1.28,0,0,0,0,0,0,0,0,0,0,0,0-.08-.14-.32-.18-.4-.32-.14-.25-.32-.49-.51-.73-.09-.12-.18-.24-.27-.37-.09-.12-.17-.25-.23-.37.25.64.68,1.22,1.08,1.8.16.23.31.47.44.71.07.12.13.24.18.37.52,1.19,1.01,2.41,1.49,3.63,1.43,3.66,2.75,7.39,4.62,10.76.12.22.24.43.35.65,1.25,2.42,2.16,5.06,3.54,7.44.25.43.52.86.81,1.27.29.41.6.81.93,1.2,2.07,2.4,3.36,5.63,4.74,8.67.15.34.32.67.49.99.17.32.35.64.53.96.36.63.72,1.26,1.06,1.9.17.32.33.65.49.98.46,1,.82,2.07.97,3.29.01.09.03.19.05.28.02.09.05.18.09.27.27.72.86,1.37,1.4,2.05.07.08.13.17.2.26.32.43.61.87.77,1.35.75,2.19,1.22,4.51,1.73,6.79.28,1.24.12,2.57.32,3.83.09.56.41,1.11.61,1.67.04.11.08.22.1.33.06.22.08.44.06.65-.07.61-.18,1.22-.3,1.82-.37,1.82-.89,3.63-1.18,5.44-.13.81-.2,1.61-.19,2.42,0,.15,0,.3,0,.44.01.57.02,1.07,0,1.53,0,.12,0,.23-.02.34-.03.44-.1.85-.25,1.25-.04.1-.08.2-.12.3-.09.2-.2.4-.33.6-.2.3-.45.61-.78.94-.21.22-.42.44-.62.68-1.21,1.39-2.22,3.02-3.18,4.51-.16.25-.32.5-.48.74h0c-.41-.24-.77-.34-1.1-.34-.08,0-.16,0-.24.02-.08.01-.16.03-.23.05-.3.09-.58.25-.85.45-.14.1-.27.2-.4.31-.13.11-.27.22-.41.33-.14.11-.28.21-.42.31-.38.25-.85.29-1.34.28-.12,0-.25-.01-.37-.02-.25-.02-.5-.04-.75-.04-.12,0-.25,0-.37,0h0c-.09,0-.19-.01-.3-.04-.05-.01-.11-.03-.17-.05-.22-.07-.45-.16-.58-.14-.03,0-.06.01-.09.03-1.31,1-2.58,1.33-3.98,1.26-.47-.02-.95-.09-1.45-.19-2.28-.46-4.59-.78-6.51-2.03-.53-.34-1.02-.75-1.48-1.24-.31-.33-.6-.7-.87-1.12-1.25-1.94-2.26-4.14-2.8-6.39-.06-.27-.12-.54-.16-.81-.32-1.89-.24-3.85-.24-5.65-.64-.09-1.18-.08-1.63,0-1.05.22-1.63.89-1.99,1.78-.16.38-.27.8-.37,1.24-.1.44-.17.9-.25,1.36-.12.71-.24,1.41-.33,2.11-.03.23-.06.46-.08.7-.28,2.78-.07,5.47,1.76,8.04.55.77.97,1.68,1.41,2.56.44.88.9,1.74,1.53,2.43.72.79,1.52,1.58,2.36,2.25.21.17.42.33.64.48.43.3.87.56,1.32.77.22.11.45.2.68.28,3.54,1.21,7.17,2.39,10.84,2.97.52.08,1.05.15,1.58.21.44.05.88.07,1.33.07,1.77,0,3.55-.33,5.23-1.02,1.26-.51,2.46-1.22,3.57-2.12,1.71-1.39,3.19-3.12,4.74-4.75.52-.54,1.04-1.08,1.58-1.59.91-.85,1.74-1.75,2.47-2.68.73-.93,1.36-1.91,1.9-2.93.18-.34.35-.68.51-1.03,1.42-3.14,1.97-6.65,1.58-10.59-.24-2.38,1.32-4.56.1-7.32-.36-.81.33-2.64-.47-3.97-.42-.69-.61-1.71-.6-2.64,0-.67.19-1.38.33-2.06.11-.52.19-1.02.14-1.49-.01-.16-.04-.31-.09-.45-.12-.38-.38-.62-.53-.9-.06-.11-.09-.22-.11-.35-.03-.22.01-.47.2-.83.09-.17-.01-.48-.21-.85-.13-.25-.3-.52-.48-.79-.27-.41-.55-.84-.76-1.2.05,0,.09-.02.12-.02.03,0,.06-.02.08-.02.05-.02.1-.03.21-.05-.06-.85,0-1.59-.05-2.45-.1.01-.19.02-.28.02-.78-.01-.99-.58-1.12-1.21-.01-.07-.03-.14-.04-.21-.07-.36-.13-.72-.27-1-.26-.53-.49-1.09-.72-1.65-.07-.19-.15-.37-.23-.56-.3-.75-.62-1.48-1.04-2.14-.13-.2-.26-.4-.4-.6-.98-1.36-2.22-2.51-3.17-3.91-.13-.1-.28-.22-.41-.33-.41-.33-.84-.68-1.23-1.01-.14-.52-.24-1.07-.33-1.63-.05-.28-.1-.56-.15-.84-.08-.42-.18-.84-.32-1.24-.05-.13-.1-.27-.15-.39-.34-.78-.86-1.47-1.75-1.97-.22-.12-.43-.28-.63-.47-.51-.47-.97-1.12-1.38-1.87-.74-1.35-1.33-3.02-1.76-4.49-.15-.53-.23-1.1-.32-1.63-.09-.53-.19-1.04-.4-1.46-.25-.5-.64-.87-1.34-1.01,0,0,0-.04.02-.1.01-.06.03-.14.04-.23.02-.18.03-.4-.03-.54-.88-1.91-1.73-3.84-2.66-5.72-.63-1.4-1.33-2.87-1.96-4.38-.44-1.05-1.1-1.95-1.54-3.01-.18-.45-.36-.9-.53-1.35-.34-.91-.66-1.84-1-2.75-.17-.46-.35-.91-.53-1.35-1.5-3.58-3.27-7.03-4.76-10.62-.21-.51-.42-1.03-.62-1.55-.55-1.42-.97-2.91-1.36-4.41-.39-1.5-.74-3.02-1.14-4.52-.13-.5-.27-1-.42-1.49-.15-.49-.3-.98-.47-1.47-.95-2.76-2.7-5.2-3.48-8.02-1.24-4.44-1.95-9.07-3.06-13.56-.07-.3-.19-.58-.32-.86-.41-.84-.99-1.61-1.19-2.51-.76-3.55-1.19-7.19-1.89-10.76-.1-.51-.2-1.02-.32-1.52-.07-.32-.25-.6-.46-.86-.28-.36-.62-.7-.83-1.09-.05-.1-.1-.2-.13-.31-.12-.39-.25-.77-.39-1.16-.07-.19-.14-.39-.22-.58-.36-.96-.74-1.93-.99-2.92-.05-.2-.09-.4-.13-.6-.27-1.4-.22-2.86.55-4.43.03-.05.04-.14.03-.24,0-.1-.02-.21-.04-.31-.08-.31-.17-.62-.27-.94-.2-.62-.44-1.24-.67-1.86-.12-.31-.23-.62-.34-.93-.44-1.24-.81-2.48-.81-3.73,0-.51,0-1.01,0-1.52,0-.5,0-1.01,0-1.51,0-2.5-.06-4.97-.46-7.45-.08-.5-.17-.99-.28-1.49-.14-.61-.25-1.24-.36-1.87-.31-1.9-.46-3.88-.42-5.8.03-1.33.3-2.69.56-4.03.18-.96.36-1.92.43-2.85.06-.75.05-1.48-.07-2.19-.27-1.55.03-2.96.32-4.38.25-1.24.5-2.48.35-3.83-.02-.19-.05-.39-.09-.58-.31-1.66-.38-3.4-.32-5.17.02-.44.04-.88.07-1.33.09-1.33.25-2.66.41-3.96.86-6.92,1.56-13.9,2.71-20.76.38-2.29.82-4.56,1.33-6.81.34-1.5.71-2.99,1.12-4.47s.86-2.95,1.36-4.41c.31-.91.61-1.82.91-2.73,2.08-6.39,3.93-12.93,6.45-19.05.67-1.63,1.38-3.23,2.13-4.78.37-.78.76-1.55,1.15-2.3.79-1.52,1.62-2.99,2.49-4.42,1.3-2.15,2.69-4.19,4.18-6.12,4.03-5.26,8.8-9.82,14.33-13.39,1.05-.68,2.11-1.29,3.19-1.83,2.51-1.26,5.08-2.13,7.71-2.52,1.13-.17,2.27-.25,3.41-.23,1.15.02,2.31.13,3.47.34.89,1.13,1.96,2.01,2.95,2.98.16.16.33.32.48.49s.31.34.46.52c1.32,1.56,2.59,3.17,3.88,4.76s2.6,3.15,3.99,4.6ZM29.02,576.59c-.17.51-.27,1.01-.38,1.74-.02.12-.04.25-.06.39s-.04.28-.06.43h0c-.32-.18-.63-.34-.92-.49-.3-.15-.58-.29-.87-.43-.56-.27-1.11-.54-1.67-.85-.4.91-.86,1.27-1.33,1.31-.28.03-.58-.06-.87-.22-.78-.41-1.57-1.27-2.23-1.63-.32-.18-.64-.4-.96-.65-.16-.13-.31-.26-.46-.4-.76-.7-1.45-1.57-2.02-2.46-.69-1.08-1.31-2.19-1.81-3.36-.17-.39-.32-.79-.46-1.19-.55-1.62-.86-3.39-.81-5.4.02-.74-.15-1.48-.37-2.22-.07-.25-.15-.5-.24-.74-.33-.99-.67-1.99-.74-2.99-.06-.9.16-1.77.54-2.49.11-.2.23-.39.36-.57.45-.61,1.03-1.02,1.62-1.09.07,0,.14,0,.21,0,.49.04,1.04.39,1.59.88.16.14.31.29.47.45.31.32.61.66.9.99.07.08.14.17.21.25s.14.16.2.24c.32.4.37,1.09.43,1.77.04.41.08.82.19,1.15.13-.21.37-.45.53-.67.02-.03.05-.06.07-.09h0c1.11,1.02,2.73,1.51,3.58,2.78,1,1.48,1.63,3.31,2.37,5.02.3.68.62,1.35.99,1.96.18.31.38.6.59.88,1.56,2.02,2.16,3.9,1.8,6.11-.08.51-.2,1.03-.39,1.58Z"/>
  </g>
</svg>