<?xml version="1.0" encoding="UTF-8"?>
<svg id="Layer_2" data-name="Layer 2" xmlns="http://www.w3.org/2000/svg" viewBox="0 0 1021.79 1189.23">
  <defs>
    <style>
      .cls-1 {
        stroke: #686346;
        stroke-miterlimit: 10;
        stroke-width: .25px;
      }

      .cls-1, .cls-2 {
        fill: #686346;
      }

      .cls-2 {
        stroke-width: 0px;
      }
    </style>
  </defs>
  <g id="Layer_1-2" data-name="Layer 1">
    <path class="cls-1" d="m1021.33,1173.15c-.39-.82-.7-1.46-1.18-1.91-6.36-5.87-11.99-12.57-16.73-19.92-.79-1.22-1.66-2.36-2.58-3.56-1.82-2.37-3.69-4.82-4.86-7.94-1.11-2.95-2.72-5.81-4.27-8.58-.98-1.75-2-3.56-2.9-5.4-2.06-4.21-3.96-8.58-5.8-12.81-.44-1-.87-2.01-1.31-3.01-.11-.24-.22-.49-.33-.73-.37-.8-.75-1.63-1-2.54-.5-1.79-1.04-3.61-1.57-5.37-1.11-3.69-2.25-7.51-3.04-11.36-.98-4.79-1.63-9.71-2.26-14.47-.32-2.39-.64-4.86-1.01-7.28-.19-1.23-.18-2.47-.17-3.66,0-.7.01-1.36-.02-2.02-.07-1.57-.26-3.19-.44-4.76-.31-2.69-.63-5.48-.42-8.24.18-2.29.3-4.62.41-6.88.29-5.76.59-11.71,1.95-17.56.41-1.78.54-3.72.66-5.61.18-2.74.37-5.57,1.42-8.11,1.7-4.11,2.73-8.54,3.72-12.81.19-.81.37-1.61.56-2.42l.16-.67c1.16-4.9,2.37-9.97,3.82-14.89.57-1.93,1.03-3.96,1.47-5.92.32-1.4.64-2.85,1.02-4.28,1-3.85,2.16-7.72,3.28-11.46l.32-1.08c.28-.93.54-1.86.79-2.79.5-1.79,1.01-3.64,1.65-5.43.82-2.29,1.73-4.59,2.6-6.82,1.24-3.16,2.52-6.42,3.58-9.68,1.01-3.11,1.79-6.37,2.55-9.53.6-2.52,1.22-5.12,1.97-7.66.52-1.78,1.13-3.55,1.72-5.26.78-2.26,1.59-4.59,2.17-6.91,1.08-4.31,2.12-8.92,3.26-14.5l.3-1.49c1.05-5.14,2.14-10.46,3.09-15.7.82-4.55,1.51-9.22,2.18-13.74.18-1.19.35-2.38.53-3.56.1-.66.21-1.33.32-2,.24-1.4.48-2.86.59-4.27.11-1.46.06-2.92.01-4.46-.06-1.82-.12-3.7.1-5.56.23-2.01.69-4.01,1.13-5.94.56-2.43,1.08-4.72,1.21-7.07.15-2.82-.02-5.75-.19-8.57-.1-1.75-.2-3.55-.24-5.34-.08-4.57-.24-9.22-.4-13.72-.13-3.62-.26-7.35-.35-11.03-.02-.75-.03-1.5-.04-2.25-.06-3.19-.12-6.49-.52-9.67-.56-4.38-1.23-8.22-2.04-11.73-.32-1.36-.79-2.68-1.28-4.08-.53-1.49-1.08-3.03-1.42-4.63-.24-1.14-.25-2.3-.26-3.42-.01-2.1-.02-3.92-1.44-5.35-.37-.37-.44-.83-.49-1.17-.01-.08-.02-.16-.04-.23-.27-1.01-.51-2.03-.75-3.02-.45-1.89-.92-3.85-1.56-5.68-.4-1.14-.98-2.23-1.59-3.38-.6-1.12-1.21-2.28-1.67-3.52-.5-1.38-.78-2.83-1.05-4.23-.33-1.71-.64-3.32-1.31-4.73-1.35-2.82-3.08-5.55-4.75-8.2-.64-1.01-1.27-2.01-1.89-3.03-.46-.76-1.02-1.48-1.61-2.24-.82-1.05-1.66-2.14-2.27-3.39-1.3-2.67-2.72-5.17-5.68-6.34-.78-.31-.91-1.07-.99-1.52-.01-.08-.02-.16-.04-.23-.72-1.1-1.59-2.32-2.6-3.19-.69-.6-1.38-1.19-2.06-1.79-1.82-1.59-3.7-3.23-5.63-4.76-1.52-1.21-2.52-2.08-2.48-3.27.04-1.26,1.29-2.12,2.74-3.11,6.11-4.19,10.11-9.09,12.23-14.99,1.86-5.17,3.5-9.84,4.76-14.64,1.56-5.92,3.15-12.27,4.16-18.6.63-3.93.6-8.06.58-12.06-.04-5.84-.2-11.78-.35-17.53l-.09-3.36c0-.28.03-.54.05-.77.02-.17.05-.44.03-.52-.24-.91-.5-1.81-.76-2.72-.54-1.85-1.09-3.76-1.43-5.71-.89-5.09-1.76-10.27-2.6-15.28-.52-3.11-1.05-6.23-1.58-9.34-.47-2.77-1.24-5.55-1.99-8.25-.24-.85-.47-1.7-.7-2.55-.31-1.15-.75-2.34-1.19-3.49-.73-1.95-1.49-3.97-1.69-6.07-.32-3.44-1.2-6.76-2.94-11.07-.97-2.4-1.91-4.82-2.86-7.23-1.29-3.29-2.63-6.7-4-10.02-1.16-2.83-2.43-5.67-3.66-8.42-.78-1.75-1.57-3.5-2.33-5.26-.62-1.43-1.13-2.92-1.63-4.35-.53-1.55-1.09-3.16-1.77-4.65-.48-1.05-.98-2.08-1.48-3.12-.87-1.81-1.78-3.68-2.55-5.6-.38-.94-.51-1.93-.64-2.88-.11-.83-.21-1.61-.47-2.28-.51-1.35-1.27-2.6-2.08-3.94-.61-1.01-1.24-2.05-1.77-3.15l-.04-.11c-.3-.84-.46-1.74-.62-2.62-.16-.88-.31-1.71-.58-2.46-.69-1.9-1.43-3.82-2.14-5.68-.72-1.88-1.47-3.82-2.17-5.75-.87-2.4-1.65-4.88-2.4-7.28-.26-.83-.52-1.66-.78-2.48-.63-1.99-1.32-4.01-1.98-5.97-.65-1.92-1.32-3.91-1.95-5.89-.69-2.16-1.23-4.12-1.65-5.99l-.13-.6c-.85-3.8-1.73-7.74-2.36-11.66-.13-.84-.47-1.67-.82-2.56-.75-1.89-1.6-4.03-.6-6.65.44-1.17.25-3.15-.22-3.6-1.13-1.1-1.41-2.18-1.67-3.12l-.02-.06c-.23-.86-.28-1.73-.32-2.58-.02-.29-.03-.58-.06-.86-.08-.96-.11-1.92-.13-2.86-.02-.53-.03-1.05-.05-1.58-.02-.45.15-.82.28-1.09.01-.02.02-.04.03-.07-.22-.74-.5-1.49-.76-2.22-.58-1.59-1.18-3.24-1.37-4.99-.29-2.73-.47-5.51-.65-8.2-.08-1.21-.16-2.42-.24-3.62-.11-1.47-.34-2.97-.58-4.43-.29-1.84-.59-3.75-.65-5.66-.12-3.74.02-7.54.16-11.21.1-2.62.2-5.33.2-7.98,0-1.35-.12-2.76-.24-4.12-.19-2.18-.38-4.44-.11-6.66.71-5.68,1.98-11.17,3.13-15.79,1.96-7.84,4.37-16.11,7.36-25.27.99-3.04,2.47-5.9,3.9-8.67.74-1.44,1.51-2.93,2.2-4.41,2.84-6.17,6.95-11.21,10.59-15.33,2.79-3.15,6.27-6.28,10.34-9.3,3.81-2.82,7.94-5.25,11.94-7.59.98-.57,1.96-1.15,2.93-1.73,1-.6,2.51-1.34,3.95-.86.91.3,1.58,1,2,2.08,2.38,6.1,6.57,11.09,10.73,15.57,2.16,2.33,5.15,3.61,8.23,3.53,2.89-.08,5.5-1.35,7.35-3.59.65-.78,1.1-2.29.99-3.3-.48-4.48-1.83-7.71-4.51-10.81-3.28-3.79-7.33-5.67-11.62-7.67-1.39-.65-2.83-1.32-4.23-2.05-.39-.21-1.03-.3-1.64-.4-1.11-.17-2.37-.36-3.11-1.32l-.58-.76c-2.25-2.93-4.57-5.95-4.76-10.24-.03-.05-.06-.1-.1-.15-.13-.19-.28-.43-.38-.73-.19-.58-.38-1.17-.57-1.76-1.68-5.18-3.42-10.54-3.05-16.34.05-.77-.04-1.49-.28-2.15-1.55-4.39-1.48-8.93-1.41-13.31.04-2.78.09-5.65-.3-8.39-.36-2.57-.3-5.21-.24-7.76.03-1.12.06-2.27.05-3.39,0-.64-.01-1.28-.02-1.93-.05-3.42-.1-6.96.44-10.36.12-.78.26-1.54.4-2.31.33-1.83.67-3.73.79-5.72.17-2.78.88-5.51,1.57-8.15.4-1.55.82-3.15,1.11-4.71.21-1.14.37-2.33.53-3.48.23-1.73.47-3.51.9-5.25.39-1.56.99-3.05,1.57-4.5.52-1.3,1.01-2.52,1.37-3.79.42-1.52.72-3.14,1.01-4.7.34-1.87.69-3.8,1.27-5.66,1.38-4.43,3-8.84,4.57-13.1.42-1.13.83-2.27,1.25-3.4.75-2.07,1.62-4.11,2.45-6.09.76-1.81,1.55-3.68,2.25-5.54,1.07-2.88,2-5.89,2.9-8.79.61-1.98,1.24-4.02,1.92-6.03.02-.1-.06-.47-.11-.69-.13-.62-.29-1.4.12-2.08,2.3-3.84,2.94-8.07,3.61-12.55.2-1.35.41-2.75.67-4.12.62-3.29,1.01-6.51,1.15-9.56l.04-.8c.17-3.44.34-7-.08-10.36-.5-4.08-1.68-8.06-2.95-12.12-1.22-3.91-2.6-7.71-4.35-12.4-.22.22-.49.51-.6.66.08,1.44.39,2.88.72,4.4.21.97.43,1.98.58,2.99.15.99.32,1.98.49,2.97.55,3.16,1.11,6.43.89,9.63-.14,2.02,0,2.28.46,2.56l.85.52-.39.9c-.43.98-.75,1.92-1.06,2.84l.18.71c.49,1.93.41,3.25-.25,4.04-.21.25-.39.46-.55.63-.12.14-.25.29-.33.39.04.1.11.27.29.6l.06.12c.25.46.58,1.09.52,1.84-.27,3.4-.71,6.83-1.13,10.14l-.19,1.53c-.06.49-.18.93-.3,1.36-.29,1.09-.47,1.75.3,2.78.76,1-.03,2.3-1.11,4.09-.39.65-.79,1.32-1.04,1.85-.02.07-.02.27.02.34,1.46,2.22.1,3.72-.85,4.47h.13s-.05,1.2-.05,1.2c-.02.47-.04.96-.06,1.46-.02.5-.04.99-.06,1.47l-.06,1.32-1.34-.23c-.11-.02-.18-.02-.23-.02-.06.15-.12.45-.15.64-.12.61-.35,1.86-1.47,2.34-.62,3.56-2.66,9.24-4.04,11.69-.12.21-.07.84-.03,1.35.04.59.09,1.25.02,1.98l-.02.15-.06.14c-.24.62-.56,1.27-.9,1.96-.49,1.01-.99,2.05-1.36,3.13-.49,1.45-.89,2.99-1.28,4.47-.43,1.64-.87,3.33-1.44,4.97-.52,1.48-1.15,2.93-1.76,4.33-.37.86-.76,1.74-1.11,2.61-.18.44-.44.92-.68,1.37-.23.42-.6,1.09-.67,1.41,1.1,2.1.25,3.72-.38,4.92-.24.46-.47.89-.59,1.31-.17.6-.35,1.21-.54,1.81-.36,1.16-.7,2.27-.92,3.39-.44,2.25-.75,4.58-1.06,6.84-.32,2.37-.65,4.83-1.13,7.22-.38,1.88-.94,3.75-1.49,5.55-.9,2.99-1.76,5.82-1.83,8.68-.06,2.25-.39,4.46-.72,6.6-.52,3.43-1.01,6.66-.44,10.06.31,1.85.04,3.72-.22,5.53-.18,1.23-.35,2.4-.34,3.54.02,3.92.34,7.93.64,11.8l.14,1.75c.18,2.34.51,4.72.84,7.03.21,1.53.44,3.12.61,4.69.2,1.81.28,3.67.36,5.46.14,3.27.27,6.36,1.09,9.26.33,1.17.64,2.36.95,3.54,1.25,4.78,2.54,9.72,5.38,13.88l.65.96-.99.63c-.5.32-.99.64-1.47.95-2.32,1.51-4.5,2.94-6.83,3.97l-.48.21c-1.46.64-2.62,1.14-3.56,2.44l-.23.32c-1.45,2.02-3.26,4.53-5.47,4.66-1.89.11-2.9,1.22-4.06,2.5-.72.79-1.47,1.62-2.47,2.24-.75.47-1.41,1.38-2.04,2.26-.74,1.03-1.45,2.01-2.43,2.55-.66.36-.88.75-1.22,1.33-.16.28-.35.59-.59.92-.4.53-.86.97-1.31,1.4-.43.41-.83.79-1.13,1.21-.58.82-1.14,1.74-1.68,2.63-1.22,2-2.48,4.07-4.28,5.54-1,.81-1.3,1.92-1.66,3.19-.46,1.65-.98,3.52-3.05,5.02-2.26,1.64-3.46,5.7-4.51,9.27-.2.68-.4,1.36-.6,2-.22.71-.49,1.4-.75,2.06-.68,1.72-1.31,3.34-1.19,5.37.15,2.53-.75,5.03-1.63,7.45-.37,1.03-.76,2.1-1.05,3.13-.4,1.45-.84,2.91-1.27,4.32-.64,2.11-1.3,4.29-1.83,6.45-.45,1.8-.74,3.67-.85,5.39-.1,1.57-.07,3.2-.05,4.78.03,1.71.06,3.49-.07,5.25-.15,2.02-.41,4.05-.66,6.01-.32,2.5-.66,5.08-.74,7.6-.11,3.22.16,6.53.41,9.73.1,1.2.19,2.4.27,3.6.11,1.71.2,3.42.3,5.14.22,4.1.46,8.33.92,12.46.28,2.47.74,4.98,1.2,7.41.6,3.21,1.21,6.53,1.42,9.86.38,6.21,1.3,11.68,2.8,16.72.37,1.22.62,2.48.86,3.7.23,1.17.47,2.38.81,3.54.85,2.92,1.4,5.95,1.93,8.88.51,2.84,1.04,5.77,1.84,8.53,2.67,9.23,5.81,18.41,8.78,27.02,3.27,9.45,6.07,17.27,8.81,24.59.94,2.5,2,5.02,3.03,7.45.49,1.15.98,2.31,1.45,3.47.07.17.23.37.4.59.25.32.53.68.71,1.15.61,1.52,1.15,3.09,1.68,4.6.81,2.33,1.66,4.75,2.71,6.98,3,6.35,6.41,13.55,8.62,21.09.92,3.16,2.01,6.33,3.07,9.41.86,2.52,1.76,5.12,2.56,7.71l.16.51c.91,2.95,1.86,6,2.51,9.08.63,2.98,1.15,6.03,1.66,8.98.28,1.66.57,3.32.87,4.97.28,1.53.59,3.08.9,4.57.46,2.27.93,4.62,1.31,6.96.37,2.34.56,4.72.74,7.02.15,1.93.31,3.92.57,5.85.1.72.43,1.58.75,2.42.63,1.65,1.23,3.22.49,4.51-.62,1.07-.26,2.23.15,3.58.5,1.62,1.11,3.62-.39,5.46h0c.04,1.23.15,2.5.25,3.72.19,2.31.39,4.7.21,7.07-.1,1.37-.12,2.76-.13,4.11-.01,1.09-.02,2.21-.08,3.32-.09,1.64-.51,3.22-.93,4.75-.62,2.3-1.21,4.47-.68,6.77l.17.75-.65.44c-1.43.97-1.72,2.48-2.06,4.23-.24,1.22-.48,2.48-1.13,3.66-1.15,2.1-1.92,4.39-2.74,6.81-.51,1.51-1.04,3.08-1.67,4.59-.11.27-.3.48-.46.63.22,2.6-1.58,3.65-2.93,4.42-.43.25-.83.48-1.15.74-.75.61-1.43,1.35-2.14,2.14-.66.73-1.34,1.48-2.12,2.15l-.21.18-.27.07c-.27.07-.56.14-.85.21-1.34.33-2.73.67-3.8,1.4-3.77,2.58-7.92,3.43-13.44,2.77-.52-.06-1.05-.14-1.59-.21-4.24-.59-8.24-1.14-11.07,2.81-.21.29-.53.74-1.13.96-3.02,1.13-4.71,2.75-5.32,5.09-.1.39-.34.63-.48.76-.61,1.19-1.1,2.42-1.62,3.72-.19.48-.38.96-.58,1.44-.3.72-.2,1.73.26,2.68.45.93,1.17,1.64,1.88,1.86,1.99.62,3.86.29,6.46-1.13,1.98-1.08,3.98-2.23,5.91-3.34,3.47-1.99,7.06-4.06,10.74-5.83,2.11-1.02,5.32-1.67,7.38-.68.7.34,1.42.63,2.11.92.86.36,1.75.72,2.64,1.18,5.67,2.92,10.01,6.49,13.28,10.91,1.16,1.57,2.15,3.25,3.11,4.88.42.71.84,1.42,1.27,2.12,1.69,2.74,3.89,6.36,6.04,10.18.33.3.69.71,1.11,1.27,1.65,2.17,2.36,4.75,3.06,7.23.81,2.92,1.58,5.68,3.75,7.66.23.21.36.46.4.76.28,1.05.58,2.09.89,3.13.39,1.33.79,2.7,1.13,4.07,1.97,7.78,3.86,15.5,5.62,22.94.14.57.27,1.15.41,1.72.92,3.82,1.86,7.76,2.06,11.75.41,8.41.55,16.96.68,25.23l.07,4.16c.03,1.72.08,3.45.12,5.17.08,2.82.15,5.73.15,8.61,0,.95-.27,1.86-.53,2.75-.27.92-.53,1.79-.38,2.39.93,3.63.69,7.12.47,10.49-.04.61-.08,1.22-.12,1.83-.19,3.43-.81,6.85-1.41,10.17-.41,2.27-.83,4.61-1.11,6.91-.07.55.07,1.21.21,1.91.2.96.4,1.96.17,2.98-.22.95-.72,1.77-1.21,2.56-1.06,1.73-1.47,2.56-.07,3.96.25.25.59.8.04,1.64-.02.02-.04.05-.05.08-.25.84-.48,1.74-.69,2.61-.6,2.44-1.21,4.95-2.7,6.88-1,1.3-.96,2.34-.9,3.79,0,.22.02.45.02.68.01.53.18,1.23.34,1.9.33,1.39.67,2.83-.08,3.86-1.4,1.91-1.67,4.15-1.96,6.53-.21,1.78-.44,3.61-1.15,5.38-.25.63-.4,1.35-.55,2.11-.31,1.55-.66,3.28-2.05,4.59.3.43.53.93.44,1.51-.2,1.19-.35,2.43-.5,3.63-.31,2.47-.64,5.02-1.33,7.48-.38,1.36-1.12,2.55-1.84,3.7-.67,1.07-1.29,2.08-1.58,3.14-.15.56-.38,1.03-.57,1.45-.36.76-.64,1.37-.53,2.44.19,1.87-.59,3.75-1.34,5.57-.28.67-.54,1.3-.74,1.91-.01.04-.03.08-.04.11.28.54.44,1.18.08,1.78-.45.76-1.31.79-1.98.74-.03.5-.06,1-.08,1.49-.11,2.24-.22,4.55-1.2,6.59-2.48,5.16-4.78,10.26-5.7,16.01-.16.97-.56,1.85-.96,2.71-.62,1.34-1.15,2.5-.67,3.76.31.8.22,1.44-.26,1.9-1.43,1.38-1.72,3.35-2.02,5.43-.2,1.33-.4,2.71-.91,4.01-.47,1.2-.58,2.59-.69,4.07-.09,1.22-.19,2.48-.51,3.71-.67,2.59-1.57,5.14-2.44,7.6-.73,2.06-1.49,4.2-2.09,6.32-1.24,4.37-2.13,7.97-2.81,11.35-.6,2.95-.89,6.04-1.17,9.02-.1,1.1-.21,2.19-.33,3.28-.1.9-.32,1.78-.54,2.62-.51,1.97-.95,3.67.22,5.46.57.87.15,1.79-.22,2.6-.31.69-.63,1.4-.52,2.09.29,1.76-.02,3.53-.32,5.24-.21,1.24-.42,2.4-.41,3.54.02,2.12.23,4.3.44,6.41.13,1.35.27,2.74.36,4.11l.09,1.48c.21,3.5.44,7.11,1.01,10.57.25,1.52.49,3.04.73,4.56.89,5.63,1.81,11.46,3.24,17.03,1.27,4.93,2.99,10.11,5.58,16.8,3.08,7.94,5.72,13.86,8.58,19.2,3.73,6.98,8.08,13.74,12.22,20,2.14,3.24,4.67,6.32,7.12,9.3.83,1.01,1.65,2.01,2.46,3.03,2.38,2.97,5.04,5.96,8.14,9.13,1.41,1.45,2.73,2.3,4.82,2.17-.09-.19-.18-.37-.26-.54Zm-22.75-931.05c.71.18,1.36.25,1.93.32.97.11,1.89.22,2.68.79,2.27,1.65,4.32,3.6,6.29,5.49.68.64,1.35,1.29,2.04,1.92,1.46,1.35,2.08,2.66,1.83,3.88-.24,1.19-1.24,2.13-2.98,2.8l-.4.15-.41-.13c-6.18-1.95-8.87-7.03-11.98-12.91l-1.57-2.96,2.57.65Z"/>
    <path class="cls-2" d="m67.41,930.55c.73.71,1.44,1.49,2.17,2.24,1.03,1.04,2.12,2,3.4,2.57.73.32,1.52.52,2.39.52,1.88.01,2.86-1.25,3.8-2.84.13-.23.27-.46.4-.7.37-.66.57-1.28.64-1.89.12-1.02-.11-1.98-.43-2.92-.36-1.08-.95-2.15-1.65-3.07-.24-.3-.49-.59-.75-.85-1.2-1.21-2.41-2.42-3.64-3.61-.82-.79-1.65-1.57-2.49-2.32-.42-.38-.85-.75-1.28-1.11-.86-.73-1.73-1.42-2.62-2.08-.23-.17-.46-.34-.69-.5s-.46-.32-.69-.48c-1.37-.97-2.65-1.96-3.5-3.69-.02-.04-.11.02-.28.07-.06.02-.12.03-.19.04-.04.37,0,.65.07.89.01.05.03.09.04.14.04.13.07.25.09.36.01.07.01.15,0,.22-.03.18-.16.35-.46.54h0c-.14-.2-.28-.39-.41-.56-.8-1.04-1.39-1.64-1.83-2.38-.07-.12-.14-.25-.21-.38-.61-1.23-1.12-2.51-1.61-3.79-.37-.96-.74-1.93-1.14-2.89-.13-.32-.27-.63-.41-.95-.81-1.82-1.54-3.66-2.19-5.54-.65-1.88-1.21-3.78-1.7-5.72-.33-1.29-.62-2.59-.88-3.91-.22-1.1-.4-2.2-.57-3.3-.29-1.84-.56-3.69-.9-5.52-.45-2.38-.96-4.74-1.35-7.13-.13-.8-.25-1.59-.34-2.4-.12-1.04-.28-2.09-.42-3.14-.1-.7-.19-1.4-.26-2.11-.04-.35-.07-.7-.1-1.05-.05-.7-.08-1.41-.08-2.11.01-1.11.03-2.23.06-3.34.03-1.11.06-2.23.1-3.34.08-2.23.18-4.45.29-6.68.11-2.22.22-4.45.32-6.67.1-2.22.19-4.45.25-6.68.04-1.49.15-2.97.3-4.46.05-.5.11-.99.16-1.49.2-1.68.44-3.37.68-5.05.24-1.68.46-3.35.62-4.98.14-1.46.28-2.92.42-4.38.35-3.64.74-7.27,1.32-10.89.12-.72.24-1.45.37-2.17.1-.56.19-1.13.28-1.7.49-3.41.66-6.89,1.02-10.33.06-.57.13-1.15.2-1.72.19-1.48.42-2.95.67-4.42.25-1.47.53-2.94.83-4.39.12-.6.3-1.18.5-1.76.6-1.74,1.42-3.42,1.74-5.22.25-1.39.47-2.79.67-4.2.41-2.81.75-5.63,1.15-8.44.1-.7.2-1.4.31-2.11.11-.7.22-1.4.33-2.1.19-1.13.59-2.21.92-3.31.2-.66.38-1.32.47-2,.44-3.19.83-6.39,1.19-9.6.36-3.2.7-6.41,1.07-9.61.59-5.12,1.35-10.23,1.82-15.37.05-.58.09-1.16.12-1.75.05-1.17.07-2.34.12-3.5.02-.58.06-1.17.1-1.75.23-2.82.51-5.64.78-8.46.14-1.41.28-2.82.41-4.23.13-1.41.26-2.82.37-4.23.03-.33.04-.66.06-.99.09-2.31-.11-4.65,0-6.96.15-2.76.57-5.5.68-8.26.18-4.36.16-8.73.26-13.1.07-3.21.19-6.42.21-9.62,0-1.07,0-2.14,0-3.21-.03-1.91-.07-3.81-.1-5.72-.02-.95-.04-1.9-.04-2.86-.01-3.57-.28-7.14-.22-10.71,0-.32,0-.65-.02-.97-.04-.97-.15-1.95-.15-2.92,0-.95.09-1.91.21-2.86.19-1.6.41-3.19.27-4.75-.34-3.63-1.17-7.2-1.56-10.82-.09-.81-.18-1.63-.27-2.44-.19-1.63-.38-3.25-.53-4.89-.08-.82-.15-1.63-.2-2.45-.22-3.2-.34-6.4-.64-9.59-.16-1.69-.44-3.36-.7-5.03-.09-.56-.17-1.12-.24-1.68-.13-1.04-.25-2.07-.36-3.11-.34-3.12-.63-6.24-1.17-9.31-.22-1.28-.44-2.56-.66-3.84-.44-2.56-.88-5.13-1.35-7.68-.24-1.28-.48-2.55-.74-3.83-.44-2.18-.98-4.34-1.53-6.5-.55-2.16-1.1-4.31-1.55-6.49-.17-.8-.28-1.6-.47-2.39-.06-.26-.13-.52-.21-.78-.75-2.43-1.43-4.87-2.12-7.32-.58-2.06-1.15-4.14-1.71-6.21-.19-.69-.38-1.38-.56-2.07-.02-.08-.05-.15-.08-.22-.16-.36-.43-.69-.62-1.04-.04-.07-.07-.14-.1-.21-.03-.07-.05-.15-.07-.22-.15-.64-.24-1.29-.32-1.95-.13-1.1-.21-2.21-.47-3.27-.28-1.17-.82-2.28-1.29-3.39-.07-.16-.13-.32-.2-.48-.08-.19-.16-.39-.25-.58-.09-.19-.18-.38-.28-.56-.19-.37-.39-.74-.6-1.11-.3-.55-.59-1.11-.83-1.69-.08-.19-.15-.39-.22-.59-.23-.7-.42-1.41-.61-2.12-.09-.36-.18-.72-.27-1.08-.44-1.8-.86-3.6-1.55-5.27-.87-2.1-1.79-4.17-2.73-6.22s-1.91-4.1-2.87-6.15c-.06-.13-.13-.3-.18-.48-.04-.12-.06-.25-.08-.37-.02-.18-.02-.36.04-.48.82-1.67,1.55-3.52,2.51-5.09.32-.52.67-1.01,1.05-1.45.56-.64,1.08-1.31,1.58-1.99,1.73-2.4,3.08-5.03,4.27-7.74.17-.39.34-.78.5-1.17.33-.78.65-1.57.96-2.36.31-.79.62-1.58.93-2.37.31-.79.61-1.58.92-2.37.61-1.53,1.07-3.13,1.44-4.77.15-.66.28-1.32.41-1.99.06-.33.12-.67.18-1,.46-2.69.79-5.44,1.22-8.12.18-1.13.34-2.26.5-3.39.46-3.4.82-6.83,1.13-10.25.5-5.53,1.17-11.05,1.53-16.59.23-3.44.19-6.92.21-10.37,0-.32,0-.64-.01-.97-.03-2.26-.21-4.52-.52-6.73-.33-2.39-.82-4.75-1.34-7.1-.17-.78-.35-1.57-.52-2.35-.59-2.69-1.12-5.41-1.75-8.09-.13-.54-.26-1.07-.39-1.6-.27-1.06-.57-2.12-.9-3.16-1.24-3.88-3.03-7.54-4.26-11.41-.18-.55-.34-1.11-.49-1.67-.38-1.41-.81-2.71-1.36-3.94-.14-.31-.28-.61-.44-.91-.46-.9-1-1.76-1.65-2.6-.09-.12-.16-.28-.2-.46-.12-.48-.11-1.12-.14-1.54-.02-.26-.05-.45-.13-.45-.55-.05-.77-.51-.89-1.07-.02-.11-.04-.23-.06-.35-.04-.24-.06-.49-.09-.73-.05-.36-.11-.7-.24-.96-.08-.17-.2-.31-.35-.39-.08-.04-.17-.07-.27-.08-.2-.02-.45.02-.77.14h0c-.18-.52-.33-1.04-.47-1.57-.07-.26-.14-.53-.21-.79-.28-1.06-.56-2.11-.98-3.08-.11-.24-.22-.48-.35-.71-.5-.92-1.08-1.8-1.69-2.66-.41-.58-.83-1.15-1.26-1.73-.22-.29-.43-.58-.65-.87-.44-.59-.87-1.19-1.3-1.81-.01-.06-.01-.15-.01-.25,0-.17,0-.38,0-.61-.01-.28-.05-.58-.14-.86-.03-.09-.07-.18-.11-.27-.33-.62-.67-1.22-1.02-1.82-.7-1.2-1.43-2.39-2.13-3.59-.35-.6-.7-1.21-1.03-1.82-.91-1.67-1.52-3.53-2.15-5.38-.32-.93-.64-1.85-1-2.75-.61-1.5-1.33-2.93-2.36-4.18-.41-.5-.87-.97-1.39-1.4-.03-.03-.07-.06-.11-.1-.56-.54-1.41-1.84-.7-3.32.03-.07.03-.19,0-.33-.09-.43-.41-1.06-.67-1.24-.29-.2-.54-.43-.76-.68-.76-.86-1.11-1.95-1.39-3.08-.16-.65-.3-1.3-.48-1.94-.14-.48-.3-.94-.51-1.38-.55-1.13-1.02-2.3-1.47-3.5-.74-1.99-1.39-4.05-2.12-6.05-.78-2.16-1.38-4.34-1.71-6.63-.06-.38-.1-.77-.14-1.16-.04-.39-.07-.78-.1-1.18-.05-.81-.15-1.61-.27-2.41-.06-.4-.13-.8-.21-1.2-.15-.8-.32-1.59-.49-2.39-.26-1.19-.52-2.39-.72-3.59-.26-1.53-.67-3.08-.69-4.6,0-.83,0-1.65,0-2.48,0-.83.02-1.65.04-2.48.03-1.65.06-3.3.05-4.95-.03-4.41-.44-8.85-.33-13.24.02-.63.04-1.25.08-1.88.15-2.25.43-4.53.84-6.78.1-.56.21-1.12.33-1.68.35-1.68.77-3.33,1.25-4.93,1.12-3.75,1.9-7.67,3.34-11.32.26-.66.55-1.32.86-1.96.47-.97,1-1.9,1.61-2.81.18-.26.34-.54.5-.82.15-.28.3-.58.43-.88.8-1.81,1.28-3.89,1.97-5.79.29-.12.53-.17.82-.29h0s0,0,0,0c.1.3.22.59.33.87.12.29.23.57.33.87.27-.92.24-1.88.3-2.72.04-.5.11-.97.3-1.35.17-.36.35-.72.52-1.08,1.04-2.16,2.1-4.34,3.44-6.24.22-.32.45-.63.69-.93,1.3-1.64,2.78-3.12,4.28-4.57,1.5-1.46,3.01-2.9,4.39-4.47,1.5-1.72,3.12-3.58,4.07-5.69,2.54-5.68,4.77-11.55,7.1-17.36.61-1.53,1.15-3.02,1.72-4.6h0s0,0,0,0c.42.41.4.5.44.54.28-1.25.52-2.51.77-3.76.43-2.08.91-4.13,1.69-6.01.16-.39.32-.77.47-1.14.44-1.11.78-2.17.85-3.38.01-.23.03-.47.04-.7.03-.47.05-.93.1-1.4.03-.23.06-.46.1-.7.19-1.05.38-2.09.53-3.14.08-.52.14-1.05.19-1.57.05-.52.09-1.05.1-1.57.02-.51.08-1.05.2-1.61.17-.84.44-1.73.8-2.64s.8-1.84,1.3-2.77c.18-.33.19-.77.15-1.24,0-.12-.02-.24-.04-.36-.04-.36-.1-.72-.12-1.04-.12-1.61-1.08-3.64-.55-4.85,1.09-2.49.34-4.82.51-7.22.04-.6.07-1.21.09-1.81s.03-1.21.04-1.81c.01-1.81-.04-3.63-.11-5.45-.02-.61-.05-1.21-.08-1.82-.05-1.21-.11-2.42-.15-3.64-.03-.86-.18-1.72-.35-2.57-.04-.21-.08-.43-.12-.64-.12-.64-.23-1.29-.28-1.94-.23-2.92-.24-5.86-.58-8.75-.28-2.37-.54-4.74-.81-7.11-.24-2.1-.48-4.2-.76-6.3-.45-3.36-.95-6.71-1.49-10.05-.05-.29-.09-.59-.14-.88-.1-.62-.22-1.23-.36-1.85-.42-1.83-.99-3.62-1.59-5.4-.04-.12-.09-.24-.13-.36-.57-1.61-1.29-3.15-1.91-4.75-.45-1.15-.85-2.32-1.24-3.5-.39-1.18-.78-2.36-1.19-3.52-.28-.78-.57-1.54-.89-2.3-.45-1.06-.99-2.08-1.56-3.08-.7-1.24-1.43-2.45-2.06-3.72-.64-1.27-1.18-2.61-1.73-3.94-.92-2.23-1.84-4.44-3.2-6.26-.79-1.06-1.63-2.08-2.5-3.08-2.61-2.98-5.48-5.72-8.19-8.6-1.2-1.28-2.56-2.57-4.05-3.32-.53-.27-1.07-.5-1.62-.72-.83-.32-1.67-.6-2.52-.85-.85-.26-1.71-.49-2.56-.74-.16-.05-.34-.07-.52-.06,0,0-.01,0-.02,0-.36.01-.73.11-1.06.27-.17.08-.33.18-.46.28-.39.31-.79.63-1.19.96-.94.78-1.88,1.6-2.77,2.44.2.54.43,1.02.71,1.46.14.22.29.42.45.61.8.94,1.86,1.5,3.21,1.58,1.15.07,2.27.56,3.37,1.04.06.03.12.05.18.08.41.18.81.36,1.2.56.79.39,1.54.82,2.28,1.29,3.91,2.5,7.04,6.01,9.73,10.02.58.86,1.14,1.74,1.68,2.64.09.15.17.3.25.45,1.58,2.76,2.72,5.88,4.12,8.99.01,0,.03,0,.04.01.05.02.09.12.14.25.02.04.03.08.05.12.24.52.52,1.03.81,1.53.94,1.59,2.05,3.09,2.73,4.7.09.21.17.42.24.64.13.39.23.79.29,1.19.04.27.07.54.08.82.01.47-.03.95-.14,1.45.15.14.3.27.45.38.3.24.58.44.81.67.02.02.03.05.06.07.09.1.17.19.23.3.21.36.37.76.51,1.17.08.25.16.51.23.77.05.16.09.32.14.48.26.92.51,1.85.76,2.78.49,1.85.95,3.72,1.4,5.58.22.93.44,1.87.66,2.81.27,1.17.11,2.51.25,3.7.02.2.05.39.1.58s.1.37.17.54c.39.98.69,1.97.94,2.98.16.67.3,1.34.42,2.02.65,3.73.7,7.57,1.22,11.33.39,2.9.47,5.85.59,8.8.02.42.04.84.06,1.26.15,3.01.2,6.02.31,9.04.04,1.2.1,2.41.17,3.61.04.6.08,1.2.12,1.8.03.35.04.69.03,1.03,0,.68-.07,1.35-.13,2.02-.01.17-.03.33-.04.5-.04.5-.08,1-.09,1.51,0,.17,0,.34,0,.51.01.85.12,1.7.41,2.59.16.5.32,1.04.43,1.59.08.37.14.74.18,1.11.06.55.07,1.1,0,1.6-.3,2.19-.77,4.34-1.17,6.5-.1.54-.2,1.08-.29,1.63-.27,1.63-.47,3.28-.51,4.97-.04,1.61-.8,3.2-1.07,4.83-.38,2.25-.68,4.52-1.01,6.79-.06.38-.67.57-.88.94-.09.16-.18.32-.25.49-.24.51-.42,1.05-.56,1.58-.14.51-.21,1.04-.28,1.57-.11.89-.19,1.79-.47,2.61-.81,2.43-1.74,4.84-2.74,7.45h0c-.15-.02-.76-.16-1.27-.24-.07-.01-.14-.02-.21-.03-.02.05-.04.11-.07.17-.03.07-.07.14-.1.21-.05.11-.1.21-.14.3-.01.03-.03.06-.04.09.28.19.59.34.84.44.25.1.43.16.43.16-.66,2.07-1.36,4.04-2.05,5.98-.23.65-.46,1.29-.69,1.94-.03.07-.05.15-.08.23-.11.32-.21.67-.32,1.03-.31.96-.65,1.9-1.13,1.97-.37.06-.64.13-.84.22-.1.05-.17.1-.23.16-.03.03-.05.06-.08.1-.19.31-.08.81.04,1.65.13.93-.77,2.59-1.29,2.7-2.99.63-3.83,3.27-4.49,6.1-.02.08-.14.04-.33.11-.04.01-.08.03-.13.06-.09.05-.19.12-.3.24h0s0,0,0,0c-.19-.46-.53-.87-.84-1.63-.22.37-.41.75-.59,1.11-.18.37-.35.73-.51,1.09-.11.24-.21.48-.31.71-.4.93-.78,1.82-1.24,2.62h0s-.1-.03-.16-.05c-.06-.02-.12-.04-.19-.07-.41-.15-.96-.39-1.33-.48-.02.26-.03.53-.02.79,0,.26,0,.51,0,.74,0,.23-.01.43-.05.59-.03.16-.09.28-.18.33-.43.28-.8.6-1.13.97-.22.24-.42.5-.61.77-.1.14-.19.27-.28.41-.36.56-.67,1.16-.97,1.77s-.59,1.21-.91,1.79c-.16.29-.32.57-.5.84-.45.68-.86,1.4-1.25,2.12s-.77,1.47-1.14,2.22c-.74,1.5-1.45,3.01-2.25,4.47-.13.24-.3.45-.49.66-.38.41-.83.78-1.17,1.21-.17.21-.31.44-.41.69-.2.53-.35,1.07-.49,1.63-.07.28-.13.56-.19.84-.12.56-.23,1.13-.36,1.69-.18.84-.38,1.68-.66,2.48-.26.74-.58,1.47-.89,2.18-.42.96-.86,1.91-1.19,2.9-.08.25-.16.5-.23.75-.14.49-.26.99-.39,1.48-.92,3.46-1.71,6.96-2.36,10.49-.76,4.1-1.35,8.23-1.67,12.39-.15,1.85-.35,3.71-.38,5.59,0,.38,0,.75,0,1.13.02.76.08,1.51.18,2.27.26,1.9.43,3.82.55,5.75.04.64.08,1.29.11,1.93.07,1.29.12,2.58.18,3.87.06,1.29.13,2.58.22,3.87.28,3.99.68,7.98,1.32,11.92.37,2.28,1.44,4.41,1.91,6.67.1.48.18.96.26,1.44.08.48.15.97.22,1.46.14.97.25,1.95.38,2.93.06.49.13.97.21,1.46.22,1.45.5,2.88.93,4.25.91,2.88,2.11,5.65,3.36,8.4.25.55.5,1.1.75,1.65.5,1.1,1,2.19,1.49,3.29.53,1.2,1.05,2.39,1.59,3.58,1.07,2.38,2.15,4.76,3.27,7.11.56,1.18,1.13,2.35,1.71,3.51,3.34,6.74,7.08,13.26,10.44,20,1.09,2.18,2.02,4.5,2.98,6.77.14.32.27.65.41.97,0,.09,0,.19.01.29.04.29.16.6.3.93.83,1.84,1.7,3.67,2.53,5.51.42.92.83,1.84,1.22,2.77s.77,1.87,1.12,2.83c1.44,3.96,2.8,7.96,4.05,12.01.42,1.35.82,2.7,1.22,4.06.12.41.23.81.35,1.22.23.81.45,1.63.67,2.44.21.82.42,1.63.62,2.45.19.82.38,1.64.55,2.47.34,1.65.62,3.32.84,5,.21,1.69.35,3.39.4,5.12.01.43.02.87.02,1.3,0,3.01.73,6.01.96,9.02.03.43.06.86.07,1.29.04,1.63-.15,3.27-.31,4.9-.1.98-.19,1.96-.22,2.95-.02.62.11,1.23.24,1.85.04.21.08.41.12.62-.06.14-.13.29-.2.44-.07.15-.14.3-.2.46-.4.94-.74,1.97-.49,2.74.43,1.35-.39,2.66-.58,3.95-.02.13-.03.26-.04.38-.01.38.04.76.22,1.14.12.25.3.5.54.75-1.26,1.75-.64,4.04-.74,5.76,0,.13-.02.26-.04.39-.03.25-.09.49-.18.7-.08.21-.16.41-.23.62-.56,1.66-.71,3.37-.88,5.05-.15,1.47-.32,2.92-.8,4.3-.11.3-.23.59-.37.87-.13.28-.27.56-.39.83-.04.09-.08.18-.11.28-.28.73-.38,1.48.08,2.33.06.11.12.22.2.33.05.07-.17.27-.32.46-.03.03-.05.06-.07.09-.02.03-.04.06-.05.09-.19.47-.37.94-.54,1.42-.87,2.37-1.63,4.81-2.53,7.16-.18.47-.37.94-.56,1.4-.19.46-.4.92-.61,1.37-.17.37-.36.73-.55,1.09-1.34,2.5-3.06,4.78-4.62,7.12-.06.1-.14.19-.23.28-.55.55-1.51,1.03-1.84,1.05-.03,0-.05,0-.07,0-.02,0-.03-.01-.04-.02-.66-.96-1.6-1.57-2.48-2.31-.53-.44-1.04-.93-1.45-1.57-.64-.97-1.27-1.95-1.92-2.92-.22-.32-.43-.64-.65-.96-1.31-1.92-2.68-3.8-4.19-5.54-.25-.29-.51-.58-.77-.86-.52-.57-1.06-1.11-1.61-1.64-.28-.26-.56-.53-.85-.78-.58-.51-1.18-1-1.8-1.46-.3-.22-.59-.42-.89-.61-1.17-.73-2.32-1.16-3.51-1.38-.6-.11-1.21-.16-1.84-.18-.32,0-.64,0-.96.01h0c-.31.01-.69-.22-1.11-.47-.08-.05-.17-.1-.26-.15-.17-.1-.35-.19-.53-.26-.88,1.46-1.81,2.99-2.72,4.5-.69,1.14-1.37,2.26-2.03,3.35-.22.36-.44.72-.65,1.07.03.12.06.23.11.35.17.48.46.98.63,1.39.13.31.2.56.11.71-.55.95-.88,1.89-1.05,2.83-.13.7-.17,1.4-.15,2.1.06,2.09.68,4.16,1.09,6.22.12.58.29,1.15.5,1.71.42,1.12.99,2.2,1.53,3.27.27.54.54,1.08.78,1.63.23.52.48,1.02.75,1.51.13.25.27.49.42.73.29.48.6.95.92,1.4.65.9,1.37,1.74,2.14,2.51.58.58,1.19,1.11,1.83,1.59.43.32.86.62,1.31.9,1.57.97,3.27,1.66,5.03,1.98.25.05.5.08.76.12.51.06,1.02.09,1.53.09,1.03,0,2.07-.13,3.11-.41,1.04-.28,2.08-.7,3.11-1.28.12-.07.24-.13.35-.18.12-.05.23-.1.35-.14.23-.08.45-.12.67-.15.11-.01.21-.01.32-.01.1,0,.21.01.31.03.3.05.59.15.86.31.18.1.35.23.52.38.41.38.77.89,1.06,1.53.56,1.21,1.14,2.42,1.71,3.63,1.73,3.63,3.48,7.25,5.17,10.89,1.48,3.2,1.92,6.81,2.89,10.23.32,1.14.7,2.26,1.2,3.33.27.58.53,1.16.77,1.75.12.29.24.59.36.89.47,1.19.88,2.4,1.23,3.63.09.31.17.62.25.93.24.93.44,1.88.61,2.83.27,1.59.42,3.22.43,4.88,0,.59.18,1.25.54,1.6.92.87,1.51,1.9,1.93,3,.25.66.43,1.36.58,2.07.1.47.18.95.25,1.43.04.24.07.48.11.72.07.48.13.97.21,1.44s.15.95.24,1.42c.05.23.09.46.15.69.17.73.33,1.46.5,2.18.83,3.64,1.59,7.3,2.28,10.98.28,1.47.55,2.94.81,4.42.28,1.59.55,3.18.82,4.77.81,4.78,1.57,9.57,2.34,14.35.46,2.89.68,5.82,1.15,8.7.05.3.11.61.19.92.46,1.86,1.32,3.81,1.25,5.49-.01.28-.05.55-.11.82-.21.83-.39,1.64-.51,2.44-.04.27-.08.53-.1.79-.11,1.04-.12,2.04,0,2.95.8,5.63,1.56,11.16,1.23,16.9-.03.49.03.99.12,1.49.12.67.29,1.34.36,2,.02.17.03.33.03.5.02.7.02,1.4.02,2.09,0,2.09-.05,4.19-.02,6.28.04,3.42.09,6.83.09,10.25,0,1.14,0,2.28-.02,3.41,0,.53-.03,1.05-.06,1.58s-.06,1.05-.1,1.58c-.07,1.05-.13,2.1-.11,3.15.04,1.69.54,3.48.68,5.14.01.15.02.3.03.45.02.6-.01,1.18-.15,1.72-.11.43-.2.86-.27,1.29-.15.85-.25,1.7-.31,2.54-.06.84-.09,1.68-.09,2.52,0,1.26.02,2.51.04,3.78,0,.22.01.43.03.65.03.43.07.86.12,1.3s.1.86.14,1.29c.06.65.09,1.29.03,1.93-.11,1.25-.27,2.5-.43,3.74-.16,1.25-.33,2.49-.45,3.74-.15,1.62-.2,3.27-.2,4.91,0,.3.03.62.06.93,0,.1.02.21.02.31.03.42.03.83-.07,1.21-.03.11-.06.23-.1.34s-.07.23-.11.34c-.55,1.61-1.47,3.25-1.14,4.56.08.3.14.59.19.88.4,2.35.05,4.64-.35,6.92-.35,2-.73,3.98-.67,5.98.06,2.11-.06,4.25-.22,6.37-.05.71-.11,1.42-.17,2.13-.14,1.68-.26,3.35-.38,5.06-.04.57-.08,1.14-.12,1.72.09.05.16.09.27.15.07.04.17.09.29.16.19.1.45.24.85.45-.16.02-.3.04-.44.07-.41.08-.72.2-.96.35-.97.6-.77,1.67-.69,2.84.02.22.04.44.08.66.24,1.44.79,2.9.04,4.51-.06.12-.12.25-.2.37-.27.46-.55.99-.8,1.57-.19.43-.36.88-.51,1.33-.44,1.35-.65,2.72-.26,3.58.06.13.11.24.15.35.09.22.16.41.2.58.21.75.04,1.01-.16,1.16-.09.06-.19.11-.26.16-.58,2.99-1.08,5.95-1.58,8.86-.2,1.17-.4,2.33-.61,3.48-.21,1.15-.42,2.3-.63,3.44-.22,1.14-.45,2.27-.69,3.4-.61,2.82-1.3,5.6-2.15,8.33-.02.2.07.42.18.64.07.15.16.3.23.45.11.23.19.45.16.66-.21,1.54-.52,3.05-.82,4.56-.05.25-.1.5-.15.76-.44,2.27-.79,4.57-.64,7.01.01.21-.01.43-.05.66-.07.39-.2.8-.3,1.24-.06.26-.11.53-.14.81-.05.46-.03.93.14,1.41.05.14-.56.4-.81.67-.04.04-.06.08-.08.12-.17.39-.34.83-.44,1.26-.04.14-.06.29-.08.43-.04.27-.05.55-.05.83,0,.84.12,1.7-.02,2.52-.02.11-.05.21-.08.32-.17.52-.49,1.02-.69,1.54-.08.21-.14.41-.16.63-.33,3.17-.27,6.38-.62,9.55-.41,3.78-1.25,7.52-1.69,11.3-.14,1.24-.19,2.49-.22,3.74-.03,1.25-.06,2.5-.16,3.75-.16,1.96-.31,3.91-.47,5.87-.16,1.96-.32,3.91-.48,5.87,0,.1-.04.21-.09.31-.05.1-.11.21-.19.3-.04.05-.07.09-.11.13-.08.08-.16.15-.24.21-.04.03-.08.05-.11.06-.43.19-.7.31-.82.45-.08.09-.11.19-.08.32.01.07.04.14.08.22.08.17.2.38.37.66.07.12.13.24.18.37.16.39.24.82.25,1.22,0,.49,0,.98-.02,1.48-.02.74-.07,1.47-.12,2.21-.05.74-.1,1.47-.14,2.21-.09,1.59-.11,3.19,0,4.74.02.32.06.65.11.97.09.65.21,1.3.34,1.95.12.65.25,1.3.34,1.94.14.97.21,1.92.1,2.84-.19,1.53-.16,3.01-.03,4.47.02.24.04.49.07.73.05.49.11.97.18,1.45.23,1.69.52,3.37.68,5.07.17,1.71.49,3.4.84,5.08.21,1.01.44,2.02.65,3.03.24,1.12.46,2.24.69,3.37.46,2.25.91,4.49,1.45,6.71.27,1.11.56,2.21.88,3.3,1.43,4.88,3.05,9.68,4.73,14.47.02.07.05.14.07.2.07.19.14.36.18.51.03.1.05.19.06.27.02.2-.03.35-.23.45-.2.1-.54.16-1.08.18-.83.03-1.65.4-2.47.86-.2.11-.41.23-.61.35-.61.36-1.21.74-1.82,1.03-.39.19-.8.43-1.21.68-.41.25-.83.52-1.23.77-.81.5-1.57.91-2.16.96-.94.07-1.77.29-2.54.6-1.38.56-2.56,1.41-3.79,2.27-.27.19-.55.38-.83.57-.17.11-.32.23-.47.35-.3.24-.58.51-.83.79-.13.14-.25.29-.37.44-.48.61-.9,1.3-1.35,2.06-.14.25-.3.48-.48.7-.52.67-1.17,1.25-1.83,1.81-.89.76-1.82,1.49-2.55,2.39-.93,1.15-1.81,2.39-2.69,3.61-.22.31-.44.61-.66.91-.66.91-1.32,1.8-2.01,2.61-.76.91-1.45,1.87-2.08,2.86-.21.33-.41.66-.61,1-2.36,4.03-3.94,8.48-6.22,12.53-.19.34-.32.73-.42,1.14-.07.28-.12.56-.16.86-.04.29-.07.6-.1.9-.03.3-.06.6-.09.9-.12,1.04-.29,2.01-.81,2.66-.62.78-1.06,1.61-1.4,2.47-.41,1.03-.68,2.09-.97,3.15-.24.88-.5,1.75-.85,2.6-.12.28-.55.41-.88.57-.07.03-.13.07-.18.1-.11.07-.19.15-.21.26-.49,2.06-1.05,4.11-1.52,6.17-.37,1.61-.68,3.22-.85,4.85-.19,1.76.03,3.52-.38,5.28-.06.25-.13.5-.21.75-.09.25-.16.51-.23.77-.27,1.04-.41,2.14-.53,3.25-.09.83-.18,1.67-.32,2.49-.18,1.1-.38,2.2-.59,3.28-.21,1.07-.43,2.12-.67,3.12-.02-.02-.13-.11-.24-.21-.11-.1-.24-.21-.31-.28-.13.29-.17.7-.12.93.06.28.19.57.31.86.17.39.35.77.4,1.13.01.09.01.18,0,.27-.07.75-.13,1.51-.2,2.26-.47,5.27-.9,10.52-.47,15.81.01.17.02.34.01.5-.03,1.18-.46,2.4-.73,3.55.18.57.47,1.19.69,1.8s.35,1.2.21,1.71c-.23.85-.37,1.7-.45,2.55-.1,1.13-.09,2.26-.02,3.39.16,2.53.61,5.05.75,7.56.01.27.09.54.19.8.25.66.68,1.3.88,1.97.04.13.07.27.08.41.03.23.04.45.05.68.01.46-.02.92-.05,1.39-.09,1.17-.24,2.34-.02,3.44.19.95.4,1.89.64,2.83.7,2.81,1.56,5.59,2.22,8.42,1.01,4.32,1.57,8.77,2.67,13.06.77,2.99,1.88,5.87,2.74,8.83.13.46.26.91.39,1.37.13.46.25.92.37,1.38.72,2.77,1.4,5.57,2.4,8.2,1.23,3.24,1.72,6.61,4.04,9.59.87,1.12,1.46,2.5,1.99,3.94.11.29.21.58.31.87.21.58.41,1.17.63,1.74.14.26.3.5.46.74.5.72,1.08,1.39,1.51,2.15.18.32.2.75.39,1.07,0,0,0,0,0,0,0,0,0,0,0,0-.07-.12-.28-.15-.36-.27-.12-.21-.29-.41-.45-.61-.08-.1-.16-.2-.24-.31-.08-.1-.15-.2-.21-.31.22.54.61,1.01.96,1.5.14.19.28.39.39.59.06.1.11.2.16.3.47.99.9,2,1.32,3.02,1.27,3.05,2.44,6.16,4.11,8.96.11.18.21.36.31.54,1.11,2.01,1.92,4.22,3.15,6.2.22.36.46.71.72,1.06.26.34.53.68.83,1,1.85,2,2.99,4.69,4.22,7.22.14.28.28.55.43.82.15.27.31.53.47.8.32.53.64,1.05.95,1.58.15.27.3.54.43.82.41.83.73,1.72.86,2.74.01.08.03.16.05.23.02.08.05.15.08.23.24.6.76,1.14,1.24,1.71.06.07.12.14.18.21.29.36.55.73.69,1.12.67,1.82,1.08,3.76,1.54,5.66.25,1.03.1,2.14.28,3.19.08.46.36.93.54,1.39.04.09.07.18.09.27.05.18.07.36.05.54-.06.51-.16,1.01-.27,1.52-.33,1.52-.8,3.03-1.05,4.53-.11.67-.18,1.34-.17,2.01,0,.13,0,.25,0,.37,0,.47.02.89,0,1.27,0,.1,0,.19-.02.28-.03.37-.09.71-.22,1.04-.03.08-.07.17-.11.25-.08.17-.18.33-.3.5-.18.25-.4.51-.69.78-.19.18-.38.37-.56.56-1.08,1.16-1.98,2.51-2.83,3.76-.14.21-.28.41-.42.61h0c-.36-.2-.69-.28-.98-.28-.07,0-.15,0-.22.02-.07,0-.14.02-.21.04-.27.07-.52.21-.76.37-.12.08-.24.17-.36.26-.12.09-.24.18-.36.27-.12.09-.24.18-.37.26-.34.21-.75.24-1.19.23-.11,0-.22,0-.33-.02-.22-.01-.45-.03-.67-.03-.11,0-.22,0-.32,0h0c-.08,0-.17,0-.27-.03-.05-.01-.1-.03-.15-.04-.2-.06-.4-.13-.52-.12-.03,0-.06.01-.08.03-1.17.83-2.29,1.11-3.54,1.05-.42-.02-.85-.08-1.29-.16-2.03-.38-4.08-.65-5.8-1.69-.47-.28-.91-.62-1.32-1.04-.27-.28-.53-.59-.77-.93-1.12-1.61-2.01-3.45-2.49-5.32-.06-.22-.11-.45-.15-.67-.29-1.58-.21-3.21-.21-4.71-.57-.08-1.05-.07-1.45,0-.93.18-1.45.74-1.77,1.48-.14.32-.24.67-.33,1.03-.09.37-.16.75-.23,1.13-.11.59-.21,1.18-.29,1.76-.03.19-.05.39-.07.58-.25,2.31-.06,4.55,1.56,6.7.49.65.86,1.4,1.26,2.13.39.73.8,1.45,1.36,2.02.64.66,1.35,1.32,2.1,1.88.19.14.38.27.57.4.38.25.78.47,1.18.65.2.09.4.16.6.23,3.15,1.01,6.38,1.99,9.65,2.47.47.07.94.13,1.4.17.39.04.79.06,1.18.06,1.58,0,3.16-.28,4.65-.85,1.12-.43,2.19-1.02,3.18-1.77,1.52-1.16,2.84-2.6,4.22-3.96.46-.45.93-.9,1.41-1.32.81-.71,1.55-1.46,2.19-2.24.65-.78,1.21-1.59,1.69-2.44.16-.28.31-.57.45-.86,1.27-2.61,1.76-5.54,1.41-8.82-.21-1.98,1.17-3.8.08-6.1-.32-.68.29-2.2-.42-3.31-.37-.58-.54-1.42-.54-2.2,0-.56.17-1.15.3-1.72.09-.43.16-.85.13-1.24-.01-.13-.04-.26-.08-.38-.1-.32-.33-.51-.47-.75-.05-.09-.08-.19-.1-.3-.02-.18.01-.39.18-.69.08-.14-.01-.4-.19-.71-.12-.2-.27-.43-.42-.66-.24-.35-.49-.7-.67-1,.05,0,.08-.01.11-.02.03,0,.05-.01.07-.02.04-.01.09-.03.18-.04-.05-.71,0-1.33-.05-2.04-.09.01-.17.02-.25.01-.69,0-.88-.48-1-1.01-.01-.06-.03-.12-.04-.18-.06-.3-.12-.6-.24-.83-.23-.44-.44-.91-.64-1.38-.07-.16-.13-.31-.2-.47-.27-.62-.55-1.23-.92-1.78-.11-.17-.24-.34-.36-.5-.88-1.14-1.97-2.09-2.82-3.25-.12-.09-.24-.18-.37-.28-.37-.28-.74-.57-1.1-.84-.13-.43-.21-.89-.3-1.36-.04-.23-.09-.47-.14-.7-.07-.35-.16-.7-.29-1.03-.04-.11-.09-.22-.14-.33-.3-.65-.77-1.22-1.56-1.64-.19-.1-.38-.23-.56-.39-.45-.39-.86-.93-1.23-1.56-.66-1.13-1.19-2.52-1.56-3.74-.14-.44-.21-.91-.29-1.36-.08-.45-.17-.87-.36-1.21-.22-.42-.57-.73-1.19-.84,0,0,0-.03.02-.08.01-.05.03-.12.04-.19.02-.15.03-.33-.03-.45-.79-1.59-1.54-3.2-2.37-4.77-.56-1.17-1.19-2.39-1.74-3.65-.39-.88-.98-1.63-1.37-2.5-.16-.37-.32-.75-.47-1.13-.3-.76-.58-1.53-.89-2.29-.15-.38-.31-.76-.47-1.13-1.34-2.99-2.91-5.85-4.24-8.85-.19-.43-.37-.86-.55-1.29-.49-1.19-.87-2.42-1.21-3.67-.35-1.25-.66-2.52-1.02-3.77-.12-.42-.24-.83-.37-1.24-.13-.41-.27-.82-.42-1.22-.85-2.3-2.4-4.33-3.1-6.68-1.1-3.7-1.74-7.56-2.73-11.3-.07-.25-.17-.49-.29-.72-.36-.7-.88-1.34-1.06-2.09-.68-2.96-1.06-5.99-1.68-8.96-.09-.42-.18-.85-.28-1.27-.06-.26-.22-.5-.41-.72-.25-.3-.56-.58-.74-.91-.05-.08-.08-.17-.11-.26-.1-.32-.22-.64-.35-.96-.06-.16-.13-.32-.19-.48-.32-.8-.66-1.61-.88-2.44-.04-.17-.08-.33-.12-.5-.24-1.17-.19-2.39.49-3.69.02-.04.03-.12.03-.2,0-.08-.02-.18-.04-.26-.07-.26-.15-.52-.24-.78-.18-.52-.39-1.04-.6-1.55-.1-.26-.21-.52-.31-.78-.4-1.03-.72-2.07-.72-3.11,0-.42,0-.84,0-1.26,0-.42,0-.84,0-1.25,0-2.09-.05-4.14-.41-6.21-.07-.41-.15-.83-.25-1.24-.12-.51-.23-1.03-.32-1.56-.27-1.59-.41-3.24-.37-4.83.02-1.11.26-2.24.49-3.36.16-.8.32-1.6.39-2.37.05-.62.05-1.23-.06-1.82-.24-1.29.03-2.47.28-3.65.22-1.03.44-2.07.32-3.19-.02-.16-.04-.32-.08-.49-.28-1.38-.34-2.84-.28-4.31.01-.37.04-.74.06-1.11.08-1.11.22-2.21.36-3.3.77-5.77,1.39-11.58,2.41-17.29.34-1.9.73-3.8,1.18-5.67.3-1.25.63-2.49,1-3.73s.77-2.46,1.21-3.67c.28-.75.54-1.51.81-2.27,1.85-5.33,3.49-10.77,5.74-15.87.6-1.36,1.23-2.69,1.9-3.98.33-.65.68-1.29,1.03-1.92.7-1.26,1.44-2.49,2.21-3.68,1.16-1.79,2.4-3.49,3.72-5.1,3.59-4.38,7.83-8.19,12.76-11.16.94-.56,1.88-1.07,2.84-1.52,2.23-1.05,4.52-1.77,6.86-2.1,1-.14,2.02-.2,3.04-.19,1.02.01,2.05.11,3.09.28.79.95,1.75,1.68,2.63,2.48.15.13.29.27.43.41s.28.28.41.43c1.17,1.3,2.3,2.65,3.45,3.97s2.31,2.63,3.55,3.83ZM25.83,481.1c-.16.43-.24.84-.34,1.45-.02.1-.03.21-.05.32s-.04.23-.06.36h0c-.29-.15-.56-.28-.82-.41-.26-.12-.52-.24-.77-.36-.5-.23-.99-.45-1.49-.71-.36.76-.76,1.06-1.18,1.09-.25.02-.51-.05-.77-.18-.7-.34-1.4-1.06-1.99-1.36-.29-.15-.57-.33-.85-.54-.14-.1-.28-.22-.41-.33-.67-.59-1.29-1.31-1.8-2.05-.62-.9-1.17-1.82-1.61-2.8-.15-.32-.28-.66-.41-.99-.49-1.35-.76-2.82-.72-4.5.02-.61-.13-1.23-.33-1.85-.07-.21-.14-.41-.21-.62-.29-.83-.6-1.66-.66-2.49-.05-.75.14-1.48.48-2.07.1-.17.2-.33.32-.47.4-.51.92-.85,1.44-.9.06,0,.12,0,.18,0,.44.03.93.33,1.42.74.14.12.28.24.42.37.28.26.55.55.8.83.06.07.13.14.19.21s.12.14.18.2c.29.33.33.91.38,1.48.03.34.07.68.17.96.12-.17.33-.38.47-.56.02-.03.04-.05.06-.08h0c.99.85,2.43,1.26,3.19,2.32.89,1.23,1.45,2.76,2.11,4.18.27.57.55,1.12.88,1.63.16.26.34.5.53.73,1.38,1.69,1.92,3.25,1.6,5.09-.07.42-.18.86-.35,1.32Z"/>
  </g>
</svg>