<?xml version="1.0" encoding="UTF-8"?>
<svg id="Layer_2" data-name="Layer 2" xmlns="http://www.w3.org/2000/svg" viewBox="0 0 1062.79 1623.03">
  <defs>
    <style>
      .cls-1 {
        stroke: #686346;
        stroke-miterlimit: 10;
        stroke-width: .25px;
      }

      .cls-1, .cls-2 {
        fill: #686346;
      }

      .cls-2 {
        stroke-width: 0px;
      }
    </style>
  </defs>
  <g id="Layer_1-2" data-name="Layer 1">
    <path class="cls-1" d="m1062.26,1612c-.5-1.11-.89-1.99-1.51-2.61-8.13-8.01-15.33-17.16-21.39-27.2-1.01-1.67-2.12-3.22-3.29-4.86-2.32-3.24-4.72-6.59-6.22-10.85-1.42-4.03-3.47-7.94-5.46-11.71-1.26-2.39-2.56-4.86-3.71-7.37-2.63-5.75-5.07-11.72-7.42-17.49-.56-1.37-1.12-2.74-1.68-4.11-.14-.33-.28-.66-.42-1-.47-1.1-.96-2.23-1.28-3.47-.64-2.45-1.34-4.93-2.01-7.34-1.42-5.04-2.88-10.25-3.89-15.51-1.25-6.54-2.09-13.26-2.89-19.76-.4-3.27-.82-6.64-1.29-9.94-.24-1.69-.22-3.37-.21-5,0-.95.01-1.85-.02-2.75-.09-2.14-.33-4.36-.56-6.5-.4-3.68-.81-7.48-.53-11.25.23-3.12.38-6.31.52-9.39.37-7.86.75-15.99,2.49-23.98.53-2.43.69-5.09.85-7.66.23-3.74.47-7.61,1.81-11.08,2.18-5.62,3.49-11.66,4.75-17.5.24-1.1.48-2.2.72-3.3l.2-.92c1.49-6.7,3.02-13.62,4.89-20.34.73-2.64,1.32-5.41,1.88-8.09.41-1.92.82-3.9,1.3-5.84,1.28-5.26,2.76-10.54,4.19-15.65l.41-1.47c.35-1.26.68-2.54,1.01-3.81.63-2.44,1.29-4.97,2.11-7.42,1.05-3.13,2.21-6.27,3.32-9.31,1.58-4.31,3.22-8.77,4.58-13.22,1.3-4.24,2.29-8.7,3.26-13.01.77-3.44,1.56-7,2.51-10.46.67-2.43,1.45-4.85,2.21-7.19,1-3.08,2.03-6.26,2.77-9.44,1.38-5.89,2.71-12.18,4.17-19.8l.39-2.03c1.35-7.02,2.74-14.28,3.95-21.45,1.05-6.22,1.93-12.6,2.78-18.76.22-1.62.45-3.25.67-4.87.13-.91.27-1.82.41-2.73.3-1.92.62-3.9.75-5.83.14-1.99.08-3.98.01-6.09-.07-2.48-.15-5.05.12-7.59.3-2.75.88-5.48,1.45-8.11.71-3.32,1.39-6.45,1.54-9.65.19-3.86-.03-7.85-.24-11.71-.13-2.39-.26-4.85-.3-7.29-.1-6.24-.31-12.6-.51-18.74-.16-4.94-.33-10.04-.44-15.07-.02-1.02-.04-2.05-.06-3.07-.07-4.36-.15-8.87-.67-13.21-.71-5.98-1.57-11.22-2.61-16.02-.41-1.86-1.01-3.67-1.64-5.57-.68-2.03-1.38-4.14-1.82-6.32-.31-1.55-.32-3.14-.33-4.67-.02-2.87-.03-5.35-1.84-7.31-.47-.51-.56-1.13-.63-1.59-.01-.1-.03-.21-.05-.31-.34-1.37-.66-2.77-.96-4.12-.58-2.58-1.17-5.25-1.99-7.75-.51-1.56-1.25-3.04-2.03-4.61-.76-1.53-1.55-3.12-2.13-4.81-.64-1.88-1-3.87-1.34-5.78-.42-2.33-.81-4.54-1.68-6.46-1.73-3.85-3.94-7.58-6.07-11.19-.81-1.38-1.62-2.75-2.41-4.14-.59-1.04-1.31-2.02-2.06-3.06-1.04-1.44-2.12-2.92-2.91-4.63-1.67-3.65-3.48-7.06-7.26-8.66-1-.42-1.17-1.46-1.27-2.08-.02-.11-.03-.21-.05-.31-.92-1.5-2.04-3.17-3.32-4.35-.88-.81-1.76-1.63-2.64-2.45-2.33-2.17-4.74-4.42-7.2-6.5-1.95-1.65-3.22-2.85-3.17-4.46.06-1.72,1.66-2.89,3.51-4.24,7.81-5.72,12.92-12.42,15.63-20.47,2.37-7.06,4.47-13.44,6.09-19.99,2-8.09,4.02-16.76,5.32-25.4.81-5.36.77-11.01.74-16.47-.05-7.98-.25-16.09-.44-23.94l-.11-4.59c0-.38.03-.74.07-1.05.03-.24.07-.6.04-.71-.31-1.24-.64-2.48-.98-3.71-.69-2.52-1.4-5.13-1.83-7.8-1.13-6.95-2.25-14.02-3.33-20.86-.67-4.25-1.34-8.5-2.02-12.75-.6-3.78-1.59-7.58-2.55-11.26-.3-1.16-.6-2.32-.89-3.48-.39-1.58-.96-3.2-1.52-4.76-.94-2.66-1.91-5.42-2.16-8.29-.41-4.7-1.54-9.23-3.75-15.12-1.24-3.28-2.45-6.58-3.66-9.87-1.65-4.5-3.37-9.15-5.11-13.69-1.48-3.86-3.11-7.74-4.68-11.5-1-2.39-2-4.78-2.98-7.18-.79-1.96-1.45-3.99-2.08-5.95-.68-2.12-1.39-4.31-2.26-6.35-.61-1.43-1.25-2.84-1.89-4.26-1.12-2.47-2.27-5.03-3.26-7.64-.49-1.29-.65-2.64-.82-3.94-.14-1.13-.27-2.19-.6-3.11-.65-1.84-1.63-3.56-2.66-5.38-.78-1.38-1.59-2.8-2.26-4.3l-.06-.14c-.38-1.15-.59-2.38-.79-3.57-.2-1.2-.39-2.33-.75-3.37-.88-2.6-1.83-5.22-2.74-7.76-.92-2.56-1.87-5.21-2.77-7.85-1.12-3.28-2.11-6.66-3.06-9.94-.33-1.13-.66-2.26-1-3.39-.81-2.72-1.68-5.48-2.53-8.15-.83-2.63-1.69-5.35-2.5-8.04-.88-2.94-1.57-5.62-2.11-8.18l-.17-.82c-1.09-5.19-2.22-10.56-3.02-15.92-.17-1.15-.59-2.29-1.04-3.49-.96-2.58-2.04-5.5-.77-9.08.57-1.6.32-4.3-.28-4.92-1.44-1.51-1.81-2.97-2.13-4.27l-.02-.08c-.29-1.17-.36-2.37-.41-3.52-.02-.4-.04-.79-.07-1.18-.1-1.31-.14-2.63-.17-3.9-.02-.72-.04-1.44-.07-2.16-.03-.61.19-1.12.36-1.49.01-.03.03-.06.04-.09-.29-1.01-.63-2.03-.97-3.03-.74-2.17-1.51-4.42-1.75-6.81-.38-3.73-.6-7.53-.83-11.2-.1-1.65-.2-3.3-.31-4.95-.14-2-.44-4.06-.74-6.05-.37-2.51-.76-5.11-.83-7.73-.15-5.11.03-10.29.2-15.31.12-3.58.25-7.27.26-10.89,0-1.84-.15-3.77-.3-5.63-.24-2.98-.49-6.06-.14-9.1.9-7.76,2.53-15.25,4.01-21.56,2.51-10.71,5.58-22,9.41-34.51,1.27-4.15,3.16-8.06,4.99-11.84.95-1.97,1.94-4,2.81-6.03,3.64-8.42,8.89-15.31,13.54-20.93,3.56-4.31,8.01-8.58,13.22-12.71,4.87-3.85,10.15-7.16,15.27-10.37,1.25-.78,2.51-1.57,3.75-2.36,1.28-.82,3.2-1.83,5.05-1.17,1.16.41,2.02,1.37,2.56,2.85,3.05,8.33,8.39,15.14,13.72,21.27,2.76,3.18,6.59,4.94,10.52,4.82,3.69-.11,7.03-1.85,9.4-4.9.83-1.07,1.41-3.13,1.27-4.51-.61-6.12-2.34-10.53-5.77-14.76-4.2-5.17-9.38-7.75-14.86-10.48-1.78-.88-3.62-1.8-5.4-2.8-.5-.28-1.31-.41-2.1-.54-1.42-.23-3.03-.49-3.97-1.81l-.74-1.04c-2.88-4-5.85-8.13-6.09-13.98-.04-.07-.08-.14-.13-.2-.16-.26-.36-.59-.49-1-.24-.8-.48-1.6-.72-2.4-2.15-7.08-4.38-14.4-3.9-22.32.06-1.05-.06-2.03-.35-2.93-1.99-6-1.89-12.19-1.8-18.18.06-3.79.12-7.72-.38-11.45-.46-3.51-.38-7.11-.3-10.6.03-1.52.07-3.1.06-4.63,0-.88-.02-1.75-.03-2.63-.06-4.67-.13-9.5.56-14.15.16-1.06.33-2.11.51-3.16.42-2.5.85-5.09,1.01-7.81.21-3.8,1.13-7.53,2.01-11.14.52-2.11,1.05-4.3,1.43-6.43.27-1.56.48-3.18.67-4.76.3-2.36.6-4.79,1.16-7.16.5-2.13,1.27-4.17,2.01-6.14.67-1.77,1.3-3.44,1.75-5.17.54-2.08.92-4.29,1.29-6.42.44-2.55.89-5.18,1.63-7.73,1.76-6.04,3.84-12.07,5.84-17.89.53-1.55,1.07-3.1,1.59-4.64.96-2.82,2.07-5.62,3.13-8.32.98-2.47,1.99-5.03,2.87-7.57,1.37-3.94,2.56-8.04,3.71-12.01.78-2.7,1.59-5.5,2.45-8.23.02-.14-.08-.64-.14-.94-.17-.85-.37-1.91.15-2.84,2.95-5.24,3.76-11.02,4.62-17.14.26-1.84.53-3.75.86-5.62.79-4.49,1.29-8.89,1.47-13.05l.05-1.09c.21-4.7.43-9.56-.1-14.15-.64-5.56-2.15-11-3.77-16.55-1.56-5.34-3.33-10.54-5.57-16.94-.28.3-.63.69-.77.91.1,1.97.49,3.94.92,6.01.27,1.33.55,2.7.74,4.08.19,1.35.41,2.7.63,4.05.7,4.32,1.42,8.78,1.14,13.16-.18,2.75,0,3.11.58,3.49l1.09.71-.5,1.23c-.55,1.33-.96,2.63-1.35,3.88l.23.96c.62,2.63.52,4.44-.32,5.52-.27.34-.5.62-.7.86-.15.19-.32.39-.42.53.05.13.15.38.37.82l.08.16c.32.63.75,1.49.67,2.51-.35,4.64-.9,9.32-1.44,13.84l-.25,2.1c-.08.67-.23,1.27-.38,1.86-.38,1.49-.6,2.39.39,3.79.97,1.37-.04,3.14-1.42,5.58-.5.88-1.02,1.8-1.33,2.52-.03.09-.02.36.02.47,1.87,3.03.13,5.07-1.08,6.1h.16s-.07,1.64-.07,1.64c-.03.65-.05,1.32-.07,1.99-.02.68-.04,1.36-.07,2.01l-.07,1.8-1.71-.32c-.14-.03-.24-.03-.3-.03-.08.21-.15.62-.2.88-.15.83-.45,2.54-1.88,3.2-.79,4.87-3.4,12.62-5.16,15.96-.15.28-.09,1.15-.04,1.85.05.8.12,1.71.02,2.7l-.02.21-.07.2c-.31.84-.72,1.73-1.15,2.68-.62,1.37-1.27,2.8-1.74,4.28-.62,1.99-1.14,4.08-1.63,6.1-.55,2.23-1.11,4.55-1.84,6.79-.66,2.03-1.47,4-2.25,5.91-.48,1.17-.98,2.38-1.42,3.57-.23.61-.56,1.25-.88,1.88-.29.57-.76,1.5-.86,1.93,1.41,2.86.31,5.08-.49,6.71-.31.62-.6,1.21-.75,1.79-.22.83-.45,1.65-.69,2.47-.46,1.59-.9,3.09-1.18,4.63-.56,3.07-.96,6.26-1.35,9.34-.41,3.24-.83,6.59-1.44,9.87-.48,2.57-1.2,5.12-1.9,7.58-1.16,4.08-2.25,7.94-2.34,11.86-.07,3.08-.5,6.09-.92,9.01-.67,4.68-1.29,9.1-.56,13.74.4,2.52.05,5.08-.29,7.55-.23,1.69-.45,3.28-.44,4.84.03,5.36.43,10.82.82,16.11l.18,2.38c.23,3.19.66,6.45,1.07,9.6.27,2.1.56,4.26.79,6.41.26,2.48.36,5.01.46,7.46.18,4.47.35,8.68,1.4,12.65.42,1.6.82,3.22,1.22,4.84,1.6,6.52,3.25,13.27,6.88,18.96l.83,1.31-1.26.87c-.64.44-1.26.87-1.88,1.3-2.96,2.06-5.76,4.01-8.73,5.42l-.62.29c-1.87.87-3.35,1.56-4.55,3.33l-.3.44c-1.86,2.75-4.17,6.18-6.99,6.36-2.42.15-3.71,1.66-5.19,3.41-.92,1.08-1.88,2.21-3.16,3.06-.96.64-1.8,1.89-2.61,3.09-.95,1.41-1.85,2.75-3.11,3.48-.84.49-1.13,1.02-1.56,1.82-.21.38-.44.81-.76,1.25-.52.73-1.1,1.33-1.67,1.91-.55.56-1.06,1.08-1.44,1.66-.75,1.13-1.46,2.38-2.15,3.59-1.56,2.74-3.18,5.56-5.47,7.57-1.27,1.11-1.67,2.62-2.12,4.36-.59,2.25-1.26,4.8-3.9,6.86-2.89,2.25-4.42,7.78-5.76,12.66-.26.93-.51,1.85-.77,2.73-.28.97-.63,1.91-.96,2.82-.86,2.35-1.68,4.57-1.52,7.33.2,3.45-.96,6.87-2.08,10.17-.48,1.41-.97,2.87-1.34,4.27-.51,1.98-1.08,3.98-1.62,5.91-.81,2.88-1.66,5.86-2.34,8.81-.57,2.46-.94,5.01-1.08,7.36-.13,2.15-.09,4.37-.06,6.53.03,2.34.07,4.76-.09,7.16-.19,2.75-.52,5.52-.85,8.2-.41,3.41-.84,6.93-.95,10.37-.14,4.39.2,8.92.52,13.29.12,1.64.24,3.28.34,4.91.14,2.34.26,4.67.38,7.01.29,5.6.58,11.38,1.18,17.02.35,3.37.95,6.8,1.53,10.11.76,4.38,1.55,8.92,1.82,13.46.49,8.47,1.66,15.94,3.58,22.84.47,1.67.79,3.39,1.1,5.05.3,1.6.61,3.25,1.04,4.84,1.09,3.98,1.79,8.12,2.47,12.13.66,3.87,1.33,7.88,2.36,11.65,3.42,12.61,7.42,25.14,11.23,36.9,4.18,12.91,7.76,23.58,11.27,33.58,1.2,3.42,2.56,6.85,3.87,10.17.62,1.58,1.25,3.15,1.86,4.73.09.23.29.51.51.81.32.44.67.93.91,1.57.77,2.08,1.47,4.21,2.15,6.28,1.04,3.19,2.12,6.48,3.47,9.53,3.84,8.67,8.19,18.5,11.02,28.81,1.18,4.31,2.58,8.65,3.92,12.85,1.1,3.44,2.24,6.99,3.27,10.53l.2.7c1.17,4.03,2.38,8.19,3.21,12.4.81,4.07,1.48,8.24,2.12,12.27.36,2.27.72,4.53,1.11,6.79.36,2.08.76,4.2,1.14,6.25.59,3.1,1.19,6.31,1.67,9.51.48,3.19.72,6.45.95,9.59.19,2.63.4,5.36.73,7.99.13.98.55,2.16.96,3.3.81,2.26,1.57,4.39.62,6.15-.79,1.46-.33,3.05.19,4.89.64,2.22,1.41,4.94-.5,7.46h0c.06,1.69.19,3.41.32,5.08.25,3.16.5,6.42.27,9.66-.13,1.86-.15,3.77-.17,5.61-.01,1.49-.03,3.02-.1,4.53-.11,2.24-.66,4.4-1.18,6.49-.79,3.14-1.54,6.11-.87,9.24l.22,1.03-.84.6c-1.83,1.32-2.21,3.39-2.64,5.78-.3,1.66-.61,3.38-1.44,5-1.47,2.87-2.46,5.99-3.5,9.3-.65,2.07-1.33,4.21-2.13,6.27-.15.37-.38.65-.59.86.28,3.55-2.03,4.98-3.74,6.04-.54.34-1.06.66-1.47,1.01-.96.83-1.82,1.84-2.74,2.92-.85.99-1.72,2.02-2.71,2.93l-.27.24-.34.1c-.35.1-.72.19-1.09.29-1.71.45-3.49.91-4.85,1.91-4.83,3.52-10.13,4.68-17.19,3.78-.66-.08-1.34-.18-2.03-.29-5.42-.8-10.54-1.56-14.15,3.84-.27.4-.68,1.01-1.44,1.32-3.86,1.54-6.02,3.75-6.8,6.95-.13.54-.44.86-.61,1.04-.78,1.62-1.41,3.31-2.07,5.08-.25.66-.49,1.31-.74,1.97-.38.99-.26,2.36.34,3.67.57,1.27,1.5,2.24,2.41,2.54,2.54.84,4.93.4,8.26-1.54,2.53-1.47,5.09-3.04,7.56-4.56,4.44-2.72,9.03-5.54,13.73-7.97,2.7-1.39,6.8-2.27,9.44-.92.9.46,1.82.87,2.7,1.26,1.1.49,2.24.99,3.37,1.61,7.24,3.99,12.8,8.87,16.98,14.9,1.49,2.14,2.75,4.44,3.98,6.66.53.97,1.07,1.94,1.62,2.9,2.16,3.74,4.97,8.68,7.72,13.9.42.42.88.98,1.42,1.73,2.11,2.97,3.02,6.48,3.91,9.88,1.04,3.99,2.02,7.75,4.79,10.46.29.29.46.63.51,1.03.36,1.43.75,2.85,1.14,4.27.49,1.81,1.01,3.68,1.45,5.55,2.52,10.63,4.94,21.16,7.18,31.32.17.78.35,1.57.53,2.35,1.17,5.21,2.38,10.6,2.63,16.04.52,11.48.7,23.16.87,34.45l.09,5.68c.04,2.35.1,4.71.16,7.06.1,3.85.2,7.83.19,11.75,0,1.29-.35,2.54-.68,3.75-.35,1.26-.68,2.44-.48,3.26,1.19,4.96.89,9.72.59,14.32-.05.83-.11,1.67-.15,2.5-.25,4.68-1.04,9.36-1.8,13.88-.52,3.09-1.06,6.3-1.42,9.43-.08.75.09,1.65.27,2.61.25,1.32.51,2.68.21,4.07-.28,1.3-.93,2.42-1.55,3.5-1.36,2.36-1.88,3.49-.09,5.41.32.35.76,1.1.05,2.24-.02.03-.04.07-.07.11-.33,1.15-.61,2.38-.88,3.57-.76,3.33-1.55,6.77-3.45,9.4-1.28,1.78-1.23,3.2-1.15,5.17.01.3.02.61.03.92.02.73.23,1.68.43,2.59.42,1.9.86,3.86-.11,5.27-1.79,2.61-2.14,5.67-2.5,8.91-.27,2.43-.56,4.93-1.47,7.35-.33.86-.51,1.84-.71,2.88-.4,2.12-.85,4.47-2.62,6.26.38.59.68,1.26.56,2.07-.25,1.63-.45,3.32-.64,4.95-.4,3.37-.81,6.86-1.7,10.21-.49,1.85-1.43,3.48-2.35,5.05-.85,1.46-1.65,2.84-2.03,4.28-.2.77-.48,1.41-.73,1.98-.46,1.04-.82,1.87-.68,3.33.24,2.55-.75,5.12-1.71,7.61-.35.91-.69,1.77-.95,2.61-.02.05-.04.1-.06.15.35.74.56,1.62.1,2.43-.58,1.03-1.68,1.09-2.53,1.01-.04.68-.08,1.37-.11,2.04-.14,3.05-.28,6.21-1.54,9-3.17,7.04-6.11,14.01-7.29,21.86-.2,1.32-.72,2.53-1.22,3.7-.79,1.83-1.47,3.42-.85,5.13.39,1.09.28,1.96-.33,2.6-1.83,1.89-2.2,4.57-2.59,7.41-.25,1.82-.51,3.7-1.16,5.48-.6,1.64-.74,3.54-.89,5.56-.12,1.67-.24,3.39-.65,5.06-.85,3.54-2.01,7.01-3.12,10.38-.94,2.82-1.9,5.74-2.67,8.63-1.58,5.96-2.72,10.89-3.6,15.5-.76,4.03-1.14,8.24-1.5,12.32-.13,1.5-.26,2.99-.42,4.48-.13,1.24-.41,2.43-.69,3.58-.65,2.69-1.22,5.01.28,7.46.72,1.18.19,2.44-.28,3.55-.4.94-.81,1.91-.67,2.86.37,2.4-.03,4.82-.41,7.16-.27,1.69-.53,3.28-.52,4.83.02,2.89.3,5.87.56,8.75.17,1.84.34,3.74.46,5.62l.12,2.02c.27,4.78.56,9.72,1.29,14.43.32,2.07.63,4.15.93,6.22,1.14,7.69,2.31,15.65,4.14,23.25,1.62,6.73,3.82,13.81,7.14,22.94,3.93,10.84,7.32,18.93,10.97,26.22,4.77,9.53,10.33,18.76,15.63,27.31,2.74,4.42,5.97,8.63,9.1,12.7,1.06,1.38,2.11,2.75,3.15,4.13,3.04,4.05,6.45,8.13,10.4,12.47,1.8,1.97,3.49,3.15,6.16,2.96-.12-.26-.23-.5-.34-.74Zm-29.09-1271.43c.91.24,1.74.35,2.47.44,1.25.15,2.42.3,3.42,1.08,2.9,2.26,5.52,4.92,8.05,7.49.87.88,1.73,1.76,2.61,2.63,1.87,1.84,2.66,3.63,2.34,5.3-.3,1.62-1.58,2.91-3.81,3.82l-.51.21-.52-.18c-7.9-2.66-11.34-9.6-15.32-17.63l-2.01-4.05,3.28.88Z"/>
    <path class="cls-2" d="m86.19,1269.78c.93.97,1.84,2.04,2.78,3.05,1.32,1.42,2.71,2.74,4.34,3.51.93.44,1.94.71,3.06.71,2.41.01,3.66-1.7,4.86-3.87.17-.31.34-.63.52-.96.48-.9.72-1.75.81-2.59.15-1.39-.14-2.7-.55-3.98-.47-1.47-1.21-2.94-2.12-4.19-.3-.42-.62-.81-.95-1.16-1.54-1.65-3.08-3.31-4.66-4.93-1.05-1.08-2.11-2.14-3.19-3.17-.54-.51-1.08-1.02-1.63-1.52-1.1-.99-2.21-1.94-3.35-2.84-.3-.23-.59-.46-.89-.68s-.59-.44-.88-.66c-1.75-1.32-3.39-2.68-4.47-5.03-.03-.06-.14.02-.35.09-.07.02-.15.04-.25.06-.06.5,0,.89.09,1.22.02.07.03.13.05.19.05.18.09.34.11.5.01.1.01.2,0,.3-.04.24-.2.47-.59.74h0c-.18-.27-.36-.53-.53-.76-1.02-1.42-1.77-2.24-2.34-3.25-.09-.17-.18-.34-.27-.52-.78-1.67-1.43-3.42-2.06-5.18-.48-1.32-.95-2.64-1.45-3.94-.17-.43-.34-.87-.52-1.29-1.04-2.48-1.97-5-2.8-7.57-.83-2.56-1.55-5.17-2.17-7.81-.42-1.76-.79-3.54-1.12-5.34-.28-1.5-.51-3-.73-4.51-.37-2.51-.71-5.03-1.15-7.53-.57-3.25-1.23-6.48-1.72-9.74-.17-1.09-.31-2.18-.44-3.27-.16-1.43-.36-2.86-.54-4.29-.12-.96-.24-1.92-.33-2.88-.05-.48-.09-.96-.12-1.44-.07-.96-.1-1.92-.1-2.88.01-1.52.04-3.04.08-4.56.04-1.52.08-3.04.13-4.56.1-3.04.23-6.08.37-9.12.14-3.04.28-6.08.41-9.11.13-3.04.24-6.08.32-9.12.05-2.03.19-4.06.38-6.09.06-.68.13-1.35.21-2.03.25-2.29.57-4.6.87-6.89.3-2.29.59-4.57.79-6.8.18-1.99.35-3.99.53-5.97.45-4.97.95-9.93,1.69-14.87.15-.99.3-1.98.47-2.96.13-.77.25-1.54.35-2.32.63-4.66.84-9.41,1.31-14.11.08-.78.16-1.57.26-2.35.25-2.02.54-4.03.86-6.04.32-2.01.68-4.01,1.07-5.99.16-.81.38-1.61.63-2.4.76-2.37,1.81-4.67,2.22-7.13.32-1.9.6-3.82.86-5.73.52-3.83.96-7.68,1.47-11.52.13-.96.26-1.92.39-2.88.14-.96.28-1.91.43-2.87.24-1.54.75-3.02,1.18-4.52.26-.9.48-1.8.6-2.73.57-4.36,1.06-8.73,1.52-13.1.46-4.37.9-8.75,1.37-13.13.75-7,1.72-13.98,2.32-20.99.07-.79.11-1.59.15-2.38.07-1.59.09-3.19.16-4.79.03-.8.07-1.59.13-2.39.29-3.86.65-7.71,1-11.56.18-1.93.35-3.85.52-5.78.17-1.93.33-3.85.47-5.78.03-.45.06-.9.07-1.35.11-3.16-.15-6.34,0-9.5.19-3.76.72-7.51.87-11.27.23-5.96.21-11.92.34-17.89.09-4.38.24-8.76.27-13.14.01-1.46.01-2.92,0-4.38-.04-2.6-.09-5.2-.13-7.81-.02-1.3-.05-2.6-.05-3.9-.02-4.87-.35-9.75-.29-14.62,0-.44,0-.89-.02-1.33-.06-1.33-.19-2.66-.2-3.99,0-1.3.12-2.6.26-3.91.24-2.18.53-4.36.34-6.49-.44-4.95-1.5-9.83-1.99-14.78-.11-1.11-.23-2.22-.35-3.33-.24-2.22-.48-4.44-.68-6.67-.1-1.11-.19-2.23-.26-3.35-.28-4.37-.43-8.74-.81-13.1-.2-2.3-.57-4.58-.9-6.87-.11-.76-.21-1.52-.31-2.29-.17-1.41-.32-2.83-.47-4.25-.43-4.25-.81-8.52-1.49-12.72-.28-1.75-.56-3.5-.84-5.25-.56-3.5-1.12-7-1.73-10.49-.3-1.74-.62-3.49-.94-5.23-.56-2.98-1.26-5.93-1.96-8.87-.7-2.95-1.4-5.89-1.98-8.87-.21-1.09-.36-2.19-.6-3.27-.08-.36-.16-.71-.27-1.07-.96-3.32-1.83-6.65-2.71-9.99-.74-2.82-1.47-5.65-2.19-8.48-.24-.94-.48-1.89-.72-2.83-.03-.1-.06-.21-.1-.31-.2-.5-.55-.94-.8-1.42-.05-.1-.09-.19-.13-.29-.04-.1-.07-.2-.09-.31-.2-.87-.31-1.77-.41-2.67-.16-1.5-.27-3.02-.6-4.47-.36-1.6-1.05-3.12-1.65-4.63-.09-.22-.17-.43-.25-.65-.1-.27-.21-.53-.32-.79-.11-.26-.23-.51-.35-.77-.25-.51-.5-1.01-.76-1.51-.38-.76-.76-1.51-1.06-2.3-.1-.26-.19-.53-.28-.8-.29-.95-.54-1.92-.78-2.9-.12-.49-.23-.98-.34-1.47-.56-2.45-1.1-4.91-1.98-7.19-1.11-2.87-2.29-5.69-3.5-8.5s-2.44-5.6-3.67-8.4c-.08-.17-.16-.41-.23-.66-.05-.17-.08-.34-.1-.51-.03-.25-.02-.49.06-.66,1.05-2.29,1.98-4.81,3.21-6.95.41-.71.85-1.38,1.34-1.99.72-.88,1.39-1.79,2.02-2.72,2.21-3.27,3.94-6.86,5.46-10.58.22-.53.43-1.06.64-1.6.42-1.07.83-2.15,1.23-3.22.4-1.08.79-2.16,1.19-3.24.39-1.08.78-2.16,1.18-3.23.77-2.08,1.36-4.27,1.84-6.51.19-.9.36-1.8.52-2.71.08-.46.16-.91.23-1.37.59-3.67,1.01-7.42,1.56-11.09.23-1.54.44-3.09.64-4.64.59-4.65,1.04-9.32,1.44-14,.65-7.55,1.5-15.09,1.96-22.65.29-4.7.25-9.45.27-14.17,0-.44-.01-.88-.02-1.32-.04-3.08-.27-6.17-.66-9.19-.42-3.26-1.05-6.48-1.72-9.7-.22-1.07-.45-2.14-.67-3.21-.76-3.68-1.43-7.39-2.24-11.05-.16-.73-.33-1.46-.5-2.19-.35-1.45-.73-2.89-1.15-4.31-1.58-5.3-3.87-10.3-5.45-15.57-.23-.75-.44-1.51-.63-2.28-.48-1.92-1.03-3.7-1.73-5.38-.18-.42-.36-.84-.56-1.24-.59-1.23-1.28-2.41-2.11-3.56-.12-.16-.2-.38-.26-.63-.16-.66-.15-1.53-.18-2.11-.02-.36-.06-.61-.17-.62-.71-.07-.99-.69-1.14-1.46-.03-.15-.06-.32-.08-.48-.05-.33-.08-.67-.12-1-.06-.49-.14-.96-.3-1.31-.11-.24-.25-.42-.45-.54-.1-.06-.21-.09-.34-.11-.26-.03-.58.02-.99.19h0c-.23-.71-.42-1.43-.6-2.15-.09-.36-.18-.72-.27-1.08-.35-1.44-.71-2.88-1.25-4.2-.14-.33-.28-.66-.44-.97-.64-1.26-1.37-2.45-2.16-3.63-.52-.79-1.06-1.57-1.62-2.36-.28-.39-.55-.79-.83-1.19-.56-.8-1.12-1.62-1.67-2.47-.01-.08-.02-.2-.02-.34,0-.23,0-.52-.01-.84-.02-.38-.06-.8-.18-1.18-.04-.13-.09-.25-.15-.36-.42-.84-.86-1.67-1.31-2.49-.9-1.64-1.83-3.26-2.73-4.9-.45-.82-.89-1.65-1.32-2.48-1.16-2.28-1.94-4.82-2.75-7.35-.4-1.27-.81-2.53-1.28-3.76-.78-2.05-1.71-4.01-3.02-5.71-.53-.68-1.11-1.33-1.78-1.92-.04-.04-.09-.08-.14-.13-.72-.73-1.8-2.51-.9-4.53.04-.1.04-.26,0-.45-.11-.58-.53-1.45-.85-1.69-.37-.28-.7-.59-.97-.93-.97-1.18-1.42-2.67-1.78-4.21-.21-.88-.39-1.78-.62-2.65-.17-.65-.38-1.29-.65-1.88-.7-1.54-1.31-3.14-1.88-4.78-.95-2.72-1.78-5.53-2.71-8.27-1-2.95-1.76-5.93-2.19-9.06-.07-.52-.13-1.05-.18-1.58-.05-.53-.09-1.07-.12-1.61-.06-1.1-.19-2.2-.35-3.29-.08-.55-.17-1.09-.26-1.64-.19-1.09-.41-2.17-.63-3.26-.33-1.63-.66-3.26-.92-4.9-.33-2.09-.86-4.2-.89-6.28-.01-1.13-.01-2.25,0-3.38,0-1.13.03-2.25.05-3.38.04-2.26.08-4.51.06-6.76-.04-6.02-.57-12.08-.42-18.08.02-.86.06-1.71.11-2.56.19-3.07.55-6.19,1.08-9.26.13-.77.27-1.53.42-2.3.45-2.29.99-4.54,1.6-6.74,1.43-5.12,2.42-10.47,4.27-15.46.34-.91.7-1.8,1.1-2.68.6-1.32,1.28-2.6,2.06-3.84.23-.36.44-.73.63-1.12.2-.39.38-.79.55-1.2,1.02-2.47,1.64-5.31,2.52-7.91.37-.16.68-.23,1.05-.39h0s0,0,0,0c.13.41.28.8.43,1.19.15.39.3.78.43,1.19.34-1.26.31-2.57.39-3.71.05-.69.14-1.32.38-1.85.22-.49.44-.98.66-1.47,1.33-2.95,2.69-5.92,4.4-8.53.29-.43.58-.86.89-1.27,1.67-2.24,3.56-4.26,5.47-6.25,1.91-1.99,3.85-3.95,5.61-6.11,1.92-2.35,3.99-4.89,5.2-7.77,3.25-7.76,6.1-15.78,9.07-23.7.79-2.1,1.47-4.12,2.2-6.28h0s0,0,0,0c.54.56.51.68.56.73.35-1.7.66-3.43.99-5.13.55-2.85,1.16-5.65,2.16-8.2.21-.53.41-1.05.6-1.55.56-1.52.99-2.96,1.09-4.61.02-.32.03-.64.05-.96.03-.64.07-1.28.13-1.91.03-.32.07-.63.13-.95.24-1.43.48-2.85.68-4.28.1-.71.18-1.43.25-2.14.07-.72.11-1.43.13-2.15.02-.69.11-1.43.25-2.19.22-1.15.57-2.36,1.02-3.6s1.02-2.52,1.66-3.78c.23-.45.24-1.05.19-1.69-.01-.16-.03-.32-.05-.49-.06-.49-.13-.98-.16-1.42-.15-2.2-1.38-4.97-.71-6.62,1.4-3.4.44-6.59.65-9.86.05-.82.09-1.65.12-2.47s.04-1.65.05-2.47c.02-2.48-.05-4.96-.14-7.44-.03-.83-.06-1.66-.1-2.48-.07-1.66-.14-3.31-.19-4.97-.04-1.18-.24-2.35-.45-3.51-.05-.29-.11-.58-.16-.88-.15-.88-.3-1.76-.36-2.64-.3-3.98-.3-8-.74-11.95-.36-3.23-.69-6.47-1.03-9.7-.3-2.87-.62-5.74-.97-8.6-.57-4.58-1.22-9.16-1.9-13.72-.06-.4-.12-.8-.18-1.21-.13-.85-.28-1.69-.46-2.52-.53-2.5-1.27-4.95-2.03-7.38-.05-.16-.11-.32-.17-.49-.73-2.2-1.65-4.3-2.44-6.48-.57-1.57-1.08-3.17-1.58-4.78-.5-1.61-.99-3.22-1.53-4.81-.36-1.06-.73-2.11-1.14-3.14-.57-1.45-1.27-2.84-1.99-4.2-.89-1.69-1.82-3.35-2.64-5.08-.81-1.73-1.51-3.56-2.21-5.39-1.17-3.04-2.36-6.07-4.1-8.55-1.02-1.45-2.09-2.85-3.2-4.2-3.34-4.07-7.01-7.81-10.47-11.74-1.54-1.75-3.27-3.51-5.18-4.53-.68-.36-1.37-.69-2.08-.98-1.06-.44-2.14-.82-3.23-1.17-1.09-.35-2.18-.67-3.27-1.01-.21-.06-.43-.09-.66-.09,0,0-.02,0-.03,0-.45.01-.93.15-1.36.36-.22.11-.42.24-.59.39-.5.42-1.02.86-1.53,1.31-1.2,1.06-2.41,2.19-3.54,3.33.25.73.55,1.4.91,1.99.18.29.37.57.57.83,1.02,1.28,2.38,2.05,4.11,2.16,1.47.09,2.9.76,4.31,1.42.08.04.16.07.23.11.52.24,1.03.5,1.54.76,1.01.54,1.97,1.12,2.91,1.76,5,3.41,9.01,8.21,12.45,13.68.74,1.17,1.45,2.38,2.14,3.61.11.2.22.41.33.61,2.01,3.77,3.48,8.03,5.26,12.28.02,0,.03,0,.05.02.07.03.12.17.18.35.02.05.04.11.06.16.31.71.66,1.41,1.04,2.09,1.2,2.17,2.62,4.22,3.49,6.42.11.29.22.58.31.87.17.53.29,1.07.37,1.63.05.37.09.74.1,1.12.01.64-.04,1.29-.18,1.98.19.19.39.36.58.52.38.32.75.6,1.03.92.03.03.04.07.07.1.11.13.22.26.3.41.27.49.47,1.03.65,1.6.11.34.2.7.3,1.05.06.22.12.44.17.66.33,1.26.65,2.53.97,3.79.63,2.53,1.22,5.08,1.78,7.63.28,1.28.56,2.55.84,3.83.34,1.59.14,3.43.32,5.06.03.27.07.54.12.79s.12.51.21.74c.49,1.34.89,2.69,1.2,4.07.21.91.39,1.84.54,2.76.83,5.1.9,10.34,1.55,15.47.5,3.96.6,7.99.76,12.01.02.57.05,1.15.07,1.72.19,4.11.26,8.23.39,12.34.05,1.65.12,3.29.21,4.93.05.82.1,1.64.16,2.46.03.47.05.94.04,1.41,0,.93-.08,1.85-.16,2.76-.02.23-.04.46-.06.69-.06.69-.1,1.37-.12,2.06,0,.23,0,.46,0,.69.02,1.15.15,2.33.52,3.53.21.68.4,1.42.55,2.18.1.5.18,1.01.23,1.52.08.76.08,1.5,0,2.19-.39,2.99-.98,5.92-1.5,8.88-.13.74-.25,1.48-.37,2.22-.34,2.23-.6,4.48-.65,6.78-.05,2.2-1.02,4.37-1.37,6.59-.48,3.08-.87,6.18-1.3,9.27-.07.52-.85.78-1.12,1.29-.12.22-.22.44-.33.67-.3.69-.54,1.43-.72,2.15-.18.69-.27,1.42-.36,2.15-.14,1.22-.24,2.45-.59,3.57-1.04,3.32-2.23,6.61-3.5,10.17h0c-.19-.02-.97-.22-1.62-.32-.09-.01-.18-.03-.27-.04-.02.07-.05.15-.09.24-.04.09-.08.19-.13.29-.07.15-.13.28-.18.4-.02.04-.04.09-.05.12.36.26.76.46,1.07.6.31.14.54.21.55.22-.85,2.83-1.74,5.52-2.62,8.17-.3.88-.59,1.76-.88,2.64-.03.1-.07.21-.1.32-.14.44-.27.92-.41,1.4-.39,1.32-.83,2.59-1.45,2.69-.48.08-.82.18-1.07.3-.12.06-.22.14-.29.22-.04.04-.07.09-.1.13-.25.43-.11,1.1.05,2.26.17,1.27-.98,3.54-1.65,3.69-3.82.86-4.89,4.47-5.74,8.33-.03.11-.18.06-.42.15-.05.02-.1.04-.16.08-.11.07-.24.17-.39.32h0s0,0,0,0c-.24-.63-.67-1.18-1.07-2.22-.28.51-.52,1.02-.75,1.52-.23.5-.45,1-.66,1.49-.14.33-.27.65-.39.97-.51,1.27-.99,2.48-1.59,3.58h0c-.06-.01-.13-.04-.2-.06-.07-.03-.16-.06-.24-.09-.52-.21-1.23-.53-1.69-.65-.03.35-.03.72-.03,1.08,0,.36,0,.7,0,1.01,0,.31-.02.59-.06.8-.04.22-.11.38-.22.46-.55.38-1.02.82-1.45,1.32-.28.33-.54.68-.79,1.05-.12.18-.24.37-.35.56-.45.77-.85,1.59-1.24,2.41s-.76,1.66-1.16,2.45c-.2.4-.41.78-.64,1.15-.57.94-1.1,1.91-1.6,2.9s-.98,2.01-1.45,3.03c-.94,2.04-1.86,4.11-2.87,6.1-.17.33-.39.62-.63.9-.49.56-1.06,1.07-1.5,1.65-.22.29-.4.6-.52.94-.25.72-.45,1.47-.63,2.22-.09.38-.17.76-.25,1.14-.16.77-.3,1.54-.45,2.3-.23,1.15-.49,2.29-.85,3.38-.34,1.02-.74,2-1.14,2.98-.54,1.31-1.09,2.61-1.52,3.96-.11.34-.21.68-.3,1.02-.17.67-.33,1.35-.5,2.02-1.17,4.72-2.18,9.5-3.02,14.33-.97,5.59-1.72,11.23-2.14,16.92-.19,2.53-.45,5.07-.49,7.64,0,.51,0,1.03,0,1.54.03,1.03.1,2.07.23,3.11.34,2.6.55,5.22.7,7.86.05.88.1,1.76.14,2.64.08,1.76.16,3.52.23,5.29.08,1.76.17,3.53.28,5.28.36,5.44.86,10.9,1.68,16.28.47,3.11,1.84,6.02,2.44,9.11.13.65.24,1.31.34,1.97.1.66.19,1.32.28,1.99.17,1.33.32,2.67.49,4,.08.67.17,1.33.26,1.99.28,1.98.64,3.93,1.19,5.8,1.16,3.93,2.7,7.72,4.29,11.47.32.75.64,1.5.96,2.25.64,1.5,1.28,2.99,1.9,4.5.67,1.63,1.35,3.27,2.03,4.89,1.36,3.26,2.75,6.5,4.18,9.71.72,1.61,1.44,3.21,2.18,4.8,4.28,9.21,9.05,18.11,13.35,27.31,1.39,2.98,2.58,6.14,3.81,9.25.17.44.35.89.52,1.33,0,.13,0,.26.01.39.05.4.2.82.39,1.26,1.06,2.52,2.17,5.01,3.24,7.52.54,1.26,1.06,2.52,1.56,3.79s.98,2.56,1.43,3.86c1.85,5.41,3.58,10.88,5.18,16.4.53,1.84,1.05,3.69,1.56,5.54.15.56.3,1.11.45,1.67.29,1.11.58,2.22.85,3.34.27,1.11.54,2.23.79,3.35.25,1.12.48,2.24.7,3.37.43,2.26.8,4.53,1.07,6.83.27,2.3.45,4.63.51,7,.01.59.02,1.18.02,1.78,0,4.11.93,8.21,1.23,12.32.04.59.07,1.17.09,1.76.05,2.23-.19,4.46-.4,6.7-.13,1.34-.24,2.68-.28,4.02-.02.84.14,1.68.3,2.53.05.28.11.56.15.85-.08.19-.17.39-.26.6-.09.21-.17.42-.26.63-.51,1.28-.94,2.69-.63,3.74.55,1.84-.5,3.64-.74,5.39-.02.18-.04.35-.05.52-.02.52.05,1.04.29,1.56.15.34.38.68.69,1.02-1.61,2.4-.82,5.52-.95,7.87,0,.18-.03.36-.05.53-.04.34-.12.66-.23.96-.11.28-.2.56-.29.84-.71,2.26-.9,4.6-1.12,6.9-.19,2.01-.41,3.99-1.03,5.87-.13.41-.3.81-.47,1.19-.17.39-.34.76-.49,1.14-.05.13-.1.25-.14.38-.35,1-.49,2.02.1,3.19.07.15.16.3.26.45.06.09-.22.36-.41.63-.03.04-.06.09-.09.13-.03.04-.05.08-.06.12-.24.64-.47,1.29-.69,1.93-1.12,3.24-2.08,6.57-3.24,9.78-.23.64-.47,1.28-.72,1.91-.25.63-.51,1.26-.78,1.88-.22.5-.46,1-.7,1.49-1.71,3.42-3.92,6.53-5.91,9.72-.08.13-.18.26-.3.39-.7.76-1.93,1.4-2.36,1.43-.04,0-.07,0-.09,0-.02,0-.04-.02-.05-.03-.85-1.32-2.04-2.15-3.17-3.15-.68-.6-1.33-1.27-1.86-2.14-.81-1.33-1.63-2.66-2.46-3.98-.28-.44-.55-.88-.83-1.32-1.68-2.63-3.42-5.19-5.35-7.57-.32-.4-.65-.79-.98-1.17-.66-.77-1.35-1.52-2.06-2.25-.36-.36-.72-.72-1.09-1.06-.74-.7-1.51-1.36-2.31-2-.38-.3-.76-.58-1.13-.83-1.5-1-2.96-1.59-4.49-1.89-.76-.15-1.54-.22-2.35-.24-.4,0-.81,0-1.23.02h0c-.39.02-.88-.3-1.41-.64-.11-.07-.22-.13-.33-.2-.22-.13-.45-.25-.68-.35-1.13,1.99-2.31,4.08-3.48,6.15-.88,1.55-1.75,3.09-2.59,4.58-.28.49-.56.98-.83,1.46.03.16.08.32.13.48.22.66.58,1.34.81,1.9.17.42.25.76.14.97-.71,1.3-1.13,2.59-1.35,3.87-.16.96-.21,1.92-.19,2.87.08,2.86.87,5.68,1.39,8.49.15.8.37,1.57.64,2.34.54,1.53,1.26,3,1.96,4.47.35.74.69,1.47,1,2.22.29.7.61,1.39.96,2.07.17.34.35.67.53,1,.37.66.76,1.29,1.18,1.91.83,1.23,1.75,2.38,2.74,3.43.74.79,1.53,1.51,2.34,2.17.55.44,1.11.85,1.68,1.23,2.01,1.33,4.18,2.27,6.43,2.71.32.06.64.12.97.16.65.08,1.3.13,1.96.13,1.32,0,2.65-.18,3.98-.56,1.33-.38,2.66-.95,3.98-1.74.15-.09.3-.17.45-.25.15-.07.3-.13.44-.19.29-.1.58-.17.85-.2.14-.01.27-.02.41-.02.13,0,.27.02.4.04.39.06.76.21,1.11.42.23.14.45.32.66.52.53.51.98,1.22,1.36,2.08.72,1.66,1.45,3.31,2.19,4.96,2.21,4.95,4.45,9.9,6.61,14.87,1.89,4.36,2.46,9.31,3.7,13.97.41,1.56.9,3.08,1.53,4.54.34.79.67,1.59.99,2.39.16.4.31.81.46,1.21.6,1.62,1.13,3.28,1.58,4.96.11.42.22.84.32,1.27.31,1.27.57,2.56.77,3.87.34,2.18.54,4.4.55,6.66,0,.8.23,1.71.7,2.18,1.17,1.19,1.93,2.59,2.47,4.1.32.91.55,1.85.74,2.82.13.64.23,1.3.33,1.96.05.33.09.66.14.99.09.66.17,1.32.26,1.97s.19,1.3.31,1.94c.06.32.12.63.19.95.22.99.42,1.99.63,2.98,1.06,4.97,2.03,9.97,2.92,14.99.36,2.01.7,4.02,1.03,6.03.36,2.17.71,4.35,1.05,6.52,1.03,6.53,2.01,13.06,3,19.6.59,3.94.87,7.94,1.46,11.88.06.41.15.83.24,1.26.59,2.54,1.68,5.2,1.6,7.49-.01.38-.06.76-.15,1.12-.27,1.13-.49,2.25-.65,3.34-.05.36-.1.72-.13,1.08-.15,1.42-.16,2.78,0,4.03,1.02,7.69,2,15.24,1.58,23.08-.04.67.04,1.35.16,2.03.15.91.37,1.82.46,2.73.02.23.04.45.04.68.02.95.03,1.91.03,2.86,0,2.86-.06,5.72-.03,8.58.05,4.67.11,9.33.11,13.99,0,1.55,0,3.11-.02,4.66,0,.72-.03,1.44-.07,2.15s-.08,1.43-.13,2.15c-.09,1.43-.16,2.87-.14,4.29.05,2.31.69,4.75.87,7.03.02.21.03.41.04.62.03.82-.02,1.61-.19,2.35-.14.59-.25,1.18-.35,1.76-.2,1.17-.32,2.32-.4,3.47-.08,1.15-.11,2.3-.12,3.44-.01,1.72.03,3.43.05,5.16,0,.29.02.59.03.88.04.59.1,1.18.16,1.77s.13,1.18.18,1.77c.07.88.11,1.76.04,2.63-.14,1.71-.34,3.41-.55,5.11-.21,1.7-.42,3.4-.57,5.11-.2,2.22-.26,4.46-.26,6.71,0,.41.04.84.07,1.27.01.14.02.29.03.43.04.57.04,1.13-.08,1.65-.04.16-.08.31-.12.47s-.09.31-.14.47c-.71,2.2-1.88,4.44-1.45,6.23.1.4.18.8.24,1.21.51,3.21.06,6.34-.45,9.45-.45,2.72-.94,5.44-.86,8.17.08,2.88-.07,5.8-.28,8.71-.07.97-.15,1.94-.22,2.9-.18,2.3-.33,4.58-.48,6.92-.05.78-.1,1.56-.16,2.36.11.06.21.12.35.2.1.05.21.12.37.21.24.14.58.33,1.09.61-.2.03-.39.06-.56.1-.52.12-.92.28-1.23.48-1.23.82-.99,2.28-.89,3.87.02.3.06.6.1.9.3,1.96,1.01,3.96.05,6.16-.07.17-.16.34-.25.51-.34.62-.7,1.36-1.02,2.14-.24.59-.46,1.2-.65,1.82-.57,1.85-.83,3.71-.33,4.89.07.17.14.33.19.48.11.3.2.56.26.79.27,1.03.05,1.38-.21,1.58-.12.09-.24.15-.33.22-.74,4.09-1.38,8.12-2.02,12.1-.26,1.59-.51,3.18-.78,4.75-.26,1.57-.53,3.14-.81,4.7-.28,1.56-.57,3.11-.88,4.65-.77,3.85-1.66,7.64-2.74,11.38-.02.27.09.57.23.88.09.21.2.41.3.62.14.31.24.62.21.9-.26,2.1-.67,4.16-1.05,6.23-.06.34-.13.69-.19,1.03-.56,3.1-1.01,6.24-.81,9.57.02.28-.01.59-.07.9-.09.53-.25,1.1-.38,1.7-.08.36-.15.73-.18,1.1-.06.63-.03,1.28.18,1.93.06.19-.72.54-1.03.91-.04.05-.08.11-.1.16-.22.53-.43,1.13-.56,1.72-.04.2-.08.39-.11.59-.05.37-.07.75-.06,1.14,0,1.15.16,2.33-.02,3.44-.02.15-.06.29-.1.43-.21.72-.63,1.39-.88,2.1-.1.28-.18.57-.21.86-.42,4.32-.35,8.71-.79,13.04-.53,5.17-1.6,10.26-2.16,15.43-.18,1.69-.24,3.4-.28,5.11-.04,1.71-.07,3.42-.2,5.12-.2,2.67-.4,5.34-.6,8.02-.2,2.67-.41,5.34-.62,8.01-.01.14-.05.28-.12.43-.06.14-.15.28-.24.41-.05.06-.1.12-.15.18-.1.11-.21.21-.31.28-.05.04-.1.06-.14.09-.55.26-.89.43-1.05.62-.11.13-.14.26-.1.44.02.09.05.19.1.3.1.23.26.52.47.9.09.16.16.33.23.5.2.53.31,1.12.31,1.67,0,.67,0,1.34-.02,2.02-.03,1.01-.09,2.01-.15,3.02-.06,1.01-.13,2.01-.18,3.02-.11,2.17-.14,4.35,0,6.47.03.44.08.88.13,1.33.11.89.27,1.78.43,2.67.16.89.32,1.78.44,2.65.18,1.32.27,2.62.12,3.88-.24,2.08-.2,4.11-.04,6.11.03.33.06.67.09,1,.07.66.14,1.33.23,1.99.29,2.31.66,4.6.87,6.93.21,2.33.62,4.64,1.08,6.93.27,1.38.56,2.75.83,4.13.3,1.53.59,3.06.88,4.6.58,3.07,1.17,6.13,1.86,9.16.34,1.51.71,3.02,1.12,4.5,1.82,6.67,3.9,13.22,6.04,19.76.03.1.06.19.09.28.09.26.17.5.23.7.04.14.07.26.08.37.03.28-.04.48-.29.62-.25.14-.69.22-1.38.25-1.06.05-2.11.55-3.15,1.17-.26.16-.52.32-.78.48-.78.5-1.55,1.01-2.32,1.41-.5.26-1.02.58-1.55.93-.53.35-1.06.72-1.58,1.06-1.03.68-2.01,1.25-2.77,1.31-1.2.1-2.26.4-3.24.82-1.77.76-3.27,1.93-4.84,3.11-.35.26-.7.52-1.06.78-.21.15-.41.31-.61.48-.39.33-.74.69-1.06,1.08-.16.19-.32.4-.47.6-.61.83-1.15,1.77-1.73,2.82-.18.34-.39.66-.61.96-.67.91-1.49,1.7-2.34,2.48-1.14,1.03-2.32,2.03-3.26,3.27-1.19,1.57-2.32,3.26-3.44,4.93-.28.42-.56.84-.84,1.25-.84,1.24-1.69,2.45-2.57,3.57-.98,1.25-1.85,2.56-2.65,3.9-.27.45-.53.9-.78,1.36-3.02,5.5-5.03,11.58-7.95,17.11-.24.46-.41.99-.54,1.56-.08.38-.15.77-.2,1.17-.05.4-.09.81-.13,1.23-.04.41-.08.82-.12,1.23-.15,1.42-.37,2.74-1.04,3.63-.8,1.07-1.36,2.2-1.79,3.37-.52,1.4-.87,2.86-1.24,4.3-.31,1.2-.63,2.4-1.09,3.55-.15.38-.7.56-1.12.78-.08.04-.16.09-.23.14-.14.1-.24.21-.27.35-.62,2.81-1.34,5.61-1.94,8.43-.47,2.19-.87,4.4-1.09,6.63-.24,2.41.04,4.81-.48,7.21-.07.34-.16.69-.27,1.03-.11.34-.21.69-.29,1.05-.35,1.42-.52,2.93-.68,4.44-.12,1.14-.23,2.28-.41,3.41-.23,1.5-.48,3.01-.75,4.47-.27,1.47-.56,2.9-.85,4.26-.03-.03-.16-.15-.31-.29-.15-.14-.31-.29-.4-.39-.17.39-.22.95-.16,1.28.08.38.24.78.4,1.18.22.53.45,1.05.51,1.55.01.12.02.24,0,.36-.08,1.03-.17,2.06-.26,3.08-.6,7.19-1.15,14.37-.61,21.59.02.23.02.46.02.69-.04,1.61-.58,3.27-.93,4.84.23.78.61,1.63.88,2.46s.44,1.64.27,2.33c-.29,1.16-.47,2.33-.57,3.48-.13,1.55-.12,3.09-.03,4.62.2,3.46.78,6.9.95,10.33.02.37.11.73.24,1.09.32.9.87,1.78,1.12,2.69.05.18.09.37.11.56.03.31.05.62.06.93.01.63-.02,1.26-.07,1.9-.12,1.59-.31,3.19-.03,4.69.24,1.3.52,2.58.82,3.86.9,3.84,2,7.64,2.84,11.49,1.29,5.9,2,11.98,3.42,17.84.98,4.08,2.4,8.02,3.51,12.06.17.62.33,1.25.49,1.87.16.63.32,1.26.47,1.89.93,3.78,1.79,7.6,3.07,11.19,1.58,4.42,2.2,9.03,5.17,13.09,1.12,1.53,1.87,3.41,2.54,5.38.14.39.27.79.4,1.19.26.8.53,1.6.81,2.38.18.35.38.69.59,1.01.64.98,1.38,1.9,1.93,2.93.23.44.26,1.02.5,1.46,0,0,0,0,0,0,0,0,0,0,0,0-.09-.16-.36-.2-.45-.36-.16-.28-.37-.56-.57-.84-.1-.14-.21-.28-.31-.42-.1-.14-.19-.28-.27-.42.28.73.77,1.38,1.22,2.04.18.26.35.53.5.8.08.14.15.27.21.42.6,1.36,1.15,2.74,1.69,4.13,1.62,4.17,3.12,8.41,5.26,12.24.14.25.27.49.4.74,1.42,2.75,2.46,5.76,4.03,8.47.29.49.59.97.92,1.44.33.47.68.92,1.06,1.36,2.36,2.73,3.82,6.41,5.4,9.87.17.38.36.76.56,1.13.19.37.39.73.6,1.09.41.72.82,1.43,1.21,2.16.19.37.38.74.55,1.11.52,1.14.93,2.35,1.11,3.74.01.11.03.21.06.32.03.1.06.21.1.31.31.81.98,1.56,1.59,2.34.08.1.15.19.23.29.37.49.7.99.88,1.53.85,2.49,1.39,5.13,1.97,7.73.31,1.41.13,2.93.36,4.36.1.63.46,1.27.69,1.89.05.13.09.25.12.37.06.25.09.5.07.74-.08.69-.21,1.38-.35,2.07-.42,2.07-1.02,4.13-1.34,6.19-.14.92-.23,1.83-.22,2.75,0,.17,0,.34,0,.5.01.65.03,1.22,0,1.74,0,.13-.01.26-.02.38-.04.5-.12.97-.28,1.42-.04.11-.09.23-.14.34-.1.23-.23.45-.38.68-.23.34-.52.7-.88,1.07-.24.25-.48.5-.71.77-1.38,1.58-2.53,3.43-3.62,5.13-.18.28-.36.56-.54.84h0c-.46-.27-.88-.39-1.25-.38-.09,0-.19,0-.28.02-.09.01-.18.03-.26.06-.34.1-.66.29-.97.51-.15.11-.31.23-.46.36-.15.12-.31.25-.46.37-.16.12-.31.24-.48.35-.43.29-.96.33-1.52.32-.14,0-.28-.01-.42-.02-.28-.02-.57-.04-.85-.04-.14,0-.28,0-.42.01h0c-.1,0-.22-.01-.34-.04-.06-.02-.13-.04-.19-.06-.25-.08-.51-.18-.67-.16-.04,0-.07.02-.1.04-1.49,1.14-2.93,1.51-4.52,1.44-.53-.03-1.08-.1-1.65-.22-2.59-.53-5.22-.89-7.41-2.31-.6-.39-1.16-.85-1.69-1.42-.35-.38-.68-.8-.99-1.28-1.43-2.2-2.57-4.7-3.18-7.27-.07-.3-.13-.61-.19-.92-.37-2.16-.27-4.38-.27-6.43-.73-.11-1.34-.1-1.85,0-1.19.25-1.85,1.02-2.26,2.03-.18.43-.31.91-.42,1.41-.11.5-.2,1.02-.29,1.54-.14.81-.27,1.61-.37,2.4-.03.26-.06.53-.09.79-.32,3.16-.08,6.22,2,9.15.62.88,1.11,1.91,1.61,2.91.5,1,1.03,1.98,1.74,2.76.82.9,1.73,1.8,2.69,2.56.24.19.48.37.73.54.49.34.99.64,1.5.88.26.12.51.23.77.31,4.03,1.38,8.15,2.72,12.33,3.38.6.09,1.2.17,1.8.24.5.05,1.01.08,1.51.08,2.02.01,4.04-.38,5.95-1.16,1.43-.58,2.8-1.39,4.06-2.41,1.95-1.58,3.63-3.55,5.39-5.41.59-.62,1.18-1.23,1.8-1.8,1.04-.97,1.98-1.99,2.81-3.05.83-1.06,1.55-2.17,2.17-3.33.2-.39.4-.78.58-1.17,1.62-3.57,2.24-7.57,1.8-12.05-.27-2.7,1.5-5.19.11-8.33-.41-.93.38-3.01-.54-4.51-.48-.79-.69-1.95-.68-3,0-.76.22-1.57.38-2.35.12-.59.21-1.16.16-1.69-.02-.18-.05-.35-.1-.51-.13-.43-.43-.7-.6-1.02-.07-.12-.1-.26-.12-.4-.03-.25.02-.54.23-.94.1-.2-.02-.55-.24-.97-.15-.28-.34-.59-.54-.9-.3-.47-.63-.95-.86-1.36.06,0,.1-.02.14-.03.04,0,.06-.02.09-.03.06-.02.11-.04.23-.05-.07-.97,0-1.81-.06-2.78-.11.01-.22.02-.32.02-.88-.01-1.12-.66-1.28-1.38-.02-.08-.03-.16-.05-.24-.08-.41-.15-.82-.31-1.14-.3-.6-.56-1.24-.81-1.88-.09-.21-.17-.43-.26-.64-.34-.85-.71-1.68-1.18-2.43-.15-.23-.3-.46-.46-.68-1.12-1.55-2.52-2.86-3.61-4.44-.15-.12-.31-.25-.47-.38-.47-.38-.95-.78-1.4-1.15-.16-.59-.27-1.22-.38-1.85-.05-.32-.11-.64-.17-.96-.1-.48-.21-.95-.37-1.41-.05-.15-.11-.3-.17-.45-.38-.88-.98-1.67-1.99-2.24-.25-.14-.48-.32-.71-.53-.57-.53-1.1-1.28-1.57-2.13-.85-1.54-1.52-3.44-2-5.11-.17-.61-.26-1.25-.37-1.86-.1-.61-.22-1.18-.46-1.66-.28-.57-.73-.99-1.52-1.15,0,0,0-.04.02-.11.01-.07.03-.16.05-.26.03-.21.04-.45-.03-.61-1.01-2.18-1.97-4.37-3.03-6.51-.71-1.59-1.52-3.27-2.23-4.98-.5-1.2-1.26-2.22-1.75-3.42-.21-.51-.41-1.02-.6-1.54-.38-1.04-.75-2.09-1.13-3.13-.19-.52-.39-1.03-.61-1.54-1.71-4.08-3.72-7.99-5.42-12.08-.24-.58-.48-1.17-.7-1.76-.62-1.62-1.11-3.31-1.55-5.02-.44-1.71-.85-3.44-1.3-5.15-.15-.57-.31-1.13-.48-1.7-.17-.56-.34-1.12-.53-1.67-1.08-3.14-3.07-5.91-3.96-9.12-1.41-5.05-2.22-10.32-3.49-15.43-.08-.34-.21-.66-.37-.98-.46-.95-1.13-1.83-1.35-2.85-.87-4.04-1.36-8.18-2.15-12.24-.11-.58-.23-1.16-.36-1.73-.08-.36-.29-.68-.53-.98-.32-.41-.71-.8-.95-1.24-.06-.11-.11-.23-.15-.35-.13-.44-.29-.88-.45-1.32-.08-.22-.16-.44-.25-.66-.41-1.1-.85-2.2-1.13-3.33-.06-.23-.11-.45-.15-.68-.3-1.6-.25-3.26.62-5.04.03-.06.04-.16.04-.27,0-.11-.02-.24-.05-.35-.09-.36-.2-.71-.31-1.06-.23-.71-.5-1.42-.76-2.12-.13-.35-.26-.71-.39-1.06-.51-1.41-.92-2.82-.92-4.24,0-.58,0-1.15,0-1.73,0-.57,0-1.14,0-1.71,0-2.85-.06-5.66-.52-8.48-.09-.56-.2-1.13-.32-1.69-.15-.7-.29-1.41-.41-2.13-.35-2.17-.52-4.42-.48-6.59.03-1.51.34-3.06.63-4.59.21-1.09.41-2.18.49-3.24.07-.85.06-1.68-.08-2.49-.3-1.76.03-3.37.36-4.98.29-1.41.56-2.83.4-4.36-.02-.22-.06-.44-.1-.66-.36-1.89-.43-3.87-.36-5.88.02-.5.05-1.01.08-1.51.11-1.51.28-3.02.46-4.51.98-7.88,1.77-15.82,3.08-23.62.44-2.6.93-5.18,1.51-7.75.39-1.71.81-3.41,1.28-5.09s.98-3.36,1.55-5.02c.35-1.03.7-2.07,1.03-3.11,2.37-7.27,4.47-14.71,7.33-21.68.76-1.86,1.57-3.67,2.42-5.44.43-.89.86-1.76,1.31-2.62.9-1.72,1.84-3.4,2.83-5.03,1.48-2.44,3.07-4.77,4.75-6.97,4.59-5.98,10.02-11.18,16.31-15.23,1.2-.77,2.4-1.47,3.63-2.08,2.85-1.43,5.78-2.42,8.77-2.86,1.28-.19,2.58-.28,3.88-.26,1.31.02,2.62.14,3.95.39,1.02,1.29,2.24,2.29,3.36,3.39.19.18.37.37.55.56s.36.39.53.59c1.5,1.77,2.94,3.61,4.41,5.42s2.96,3.59,4.54,5.23Zm-53.17-613.77c-.2.58-.31,1.14-.43,1.98-.02.14-.04.29-.06.44s-.05.32-.07.49h0c-.37-.2-.71-.38-1.05-.56-.34-.17-.67-.33-.99-.49-.64-.31-1.26-.61-1.9-.97-.46,1.03-.97,1.44-1.51,1.49-.32.03-.66-.07-.99-.25-.89-.46-1.78-1.44-2.54-1.86-.37-.2-.73-.45-1.09-.74-.18-.14-.35-.3-.53-.46-.86-.8-1.65-1.79-2.3-2.8-.79-1.23-1.5-2.49-2.06-3.82-.19-.44-.36-.9-.52-1.36-.63-1.85-.98-3.86-.92-6.15.02-.84-.17-1.68-.42-2.53-.08-.28-.18-.56-.27-.85-.37-1.13-.77-2.26-.84-3.41-.06-1.02.18-2.02.61-2.83.12-.23.26-.45.41-.65.52-.69,1.18-1.16,1.84-1.24.08,0,.16,0,.24,0,.56.05,1.19.45,1.81,1,.18.16.36.33.53.51.35.36.7.75,1.02,1.13.08.1.16.19.24.28s.15.19.23.28c.37.45.42,1.24.49,2.01.04.47.09.93.22,1.31.15-.24.42-.51.6-.76.03-.04.06-.07.08-.11h0c1.26,1.16,3.1,1.72,4.08,3.17,1.13,1.68,1.85,3.77,2.7,5.71.34.78.7,1.53,1.12,2.23.21.35.43.68.68,1,1.77,2.3,2.46,4.44,2.05,6.95-.09.58-.23,1.17-.44,1.8Z"/>
  </g>
</svg>